<svg width="16" height="16" viewBox="0 0 16 16" fill="none" xmlns="http://www.w3.org/2000/svg">
<path d="M14.25 6C14.2499 6.21105 14.161 6.41263 14.0049 6.55469L9.01074 11.0938L9.31152 11.3945C9.85378 11.937 9.72327 12.7499 9.26953 13.2041L8.38184 14.0918C7.92766 14.5455 7.11478 14.676 6.57227 14.1338L5.49902 13.0605L3.9248 14.6328C3.80874 14.749 3.67122 14.8424 3.51953 14.9053C3.36794 14.968 3.20507 15 3.04102 15C2.8769 15 2.71413 14.9681 2.5625 14.9053C2.4109 14.8424 2.27324 14.7499 2.15723 14.6338H2.15625L1.36523 13.8398C1.13154 13.6056 1.00008 13.2879 1 12.957C1.00004 12.6258 1.13209 12.3076 1.36621 12.0732L2.93848 10.5L1.86719 9.42871C1.32467 8.88619 1.45441 8.0724 1.9082 7.61816L2.7959 6.73047C3.25014 6.27667 4.06393 6.14693 4.60645 6.68945L4.90527 6.98828L9.44531 1.99512L9.50098 1.94043C9.63769 1.8185 9.81501 1.75 10 1.75H14.25V6ZM3.10352 8.54395L4.52441 9.96484C4.52622 9.96662 4.52848 9.96793 4.53027 9.96973L6.03027 11.4697C6.03174 11.4712 6.03273 11.4731 6.03418 11.4746L7.45605 12.8965L8.07422 12.2783L3.72168 7.92578L3.10352 8.54395ZM5.9668 8.0498L6.60449 8.6875L10.6465 4.64648C10.8417 4.45122 11.1583 4.45122 11.3535 4.64648C11.5486 4.84176 11.5487 5.1583 11.3535 5.35352L7.31152 9.39453L7.94922 10.0322L12.75 5.66797V3.25H10.332L5.9668 8.0498Z" fill="#EA9794"/>
</svg>
