<svg width="16" height="16" viewBox="0 0 16 16" fill="none" xmlns="http://www.w3.org/2000/svg">
<g clip-path="url(#clip0_2993_29963)">
<path d="M8 0C12.4183 0 16 3.58172 16 8C16 12.4183 12.4183 16 8 16C3.58172 16 0 12.4183 0 8C0 3.58172 3.58172 0 8 0ZM8 1.5C4.41015 1.5 1.5 4.41015 1.5 8C1.5 11.5899 4.41015 14.5 8 14.5C11.5899 14.5 14.5 11.5899 14.5 8C14.5 4.41015 11.5899 1.5 8 1.5ZM7.99414 4.00488C8.54643 4.00488 8.99414 4.4526 8.99414 5.00488V7H11C11.5523 7 12 7.44772 12 8C12 8.55228 11.5523 9 11 9H8.99414V11.0049C8.99414 11.5572 8.54643 12.0049 7.99414 12.0049C7.44186 12.0049 6.99414 11.5572 6.99414 11.0049V9H5C4.44772 9 4 8.55228 4 8C4 7.44772 4.44772 7 5 7H6.99414V5.00488C6.99414 4.4526 7.44186 4.00488 7.99414 4.00488Z" fill="white" fill-opacity="0.15"/>
</g>
<defs>
<clipPath id="clip0_2993_29963">
<rect width="16" height="16" fill="white"/>
</clipPath>
</defs>
</svg>
