<svg width="16" height="16" viewBox="0 0 16 16" fill="none" xmlns="http://www.w3.org/2000/svg">
<g clip-path="url(#clip0_2988_29025)">
<path d="M8 0.25C11.1333 0.25 13.7498 2.65526 13.75 5.71387C13.75 7.69629 13.2888 8.76583 12.6406 9.68262C12.1898 10.3202 11.7727 10.7551 11.3848 11.3809L10.1064 15.6436C10.043 15.855 9.84873 16 9.62793 16H6.37207L6.29102 15.9932C6.13141 15.967 5.99386 15.865 5.92285 15.7197L5.89355 15.6436L4.61426 11.3809C4.22637 10.7554 3.81012 10.3201 3.35938 9.68262C2.71124 8.76583 2.25 7.69629 2.25 5.71387C2.25024 2.65526 4.86669 0.25 8 0.25ZM7.11621 14.5H8.88379L9.48438 12.5H6.51562L7.11621 14.5ZM6.27734 2.08789C4.77373 2.71018 3.75018 4.12051 3.75 5.71387C3.75 7.39777 4.12216 8.16285 4.58496 8.81738C4.97167 9.36418 5.58764 10.0106 6.12598 11H6.62988C6.51153 10.482 6.28007 9.7534 5.82715 8.83008C5.23981 7.65282 5.25 6.54952 5.25 5.5C5.25 3.94709 5.73313 2.83815 6.27734 2.08789ZM9.71582 2.08594C10.2608 2.83623 10.7461 3.94524 10.7461 5.5C10.7461 6.54952 10.7563 7.65282 10.1689 8.83008C9.71602 9.7534 9.48457 10.482 9.36621 11H9.87402C10.4124 10.0106 11.0283 9.36418 11.415 8.81738C11.8778 8.16285 12.25 7.39777 12.25 5.71387C12.2498 4.1182 11.223 2.70684 9.71582 2.08594ZM7.99805 2.41309C7.8745 2.51887 7.72968 2.6603 7.58398 2.84277C7.18352 3.34434 6.75 4.18178 6.75 5.5C6.75 6.58254 6.76041 7.34349 7.1709 8.16406L7.17383 8.16992C7.58352 9.00514 7.83871 9.71712 7.99805 10.2959C8.15738 9.71712 8.41258 9.00514 8.82227 8.16992L8.8252 8.16406C9.23568 7.34349 9.24609 6.58254 9.24609 5.5C9.24609 4.18178 8.81257 3.34434 8.41211 2.84277C8.26642 2.6603 8.12159 2.51887 7.99805 2.41309Z" fill="white"/>
</g>
<defs>
<clipPath id="clip0_2988_29025">
<rect width="16" height="16" fill="white"/>
</clipPath>
</defs>
</svg>
