<svg width="16" height="16" viewBox="0 0 16 16" fill="none" xmlns="http://www.w3.org/2000/svg">
<g clip-path="url(#clip0_2986_28990)">
<path d="M8 0.25C10.8995 0.25 13.25 2.6005 13.25 5.5C13.25 7.38965 12.8357 8.41099 12.249 9.29102C11.7769 9.99924 11.3509 10.4411 10.958 11.208L10.0801 15.5977C10.0333 15.8314 9.82818 16 9.58984 16H6.41016L6.32227 15.9922C6.15128 15.9618 6.00766 15.8443 5.94434 15.6826L5.91992 15.5977L5.04102 11.208C4.64814 10.4413 4.22304 9.99912 3.75098 9.29102C3.1643 8.41099 2.75 7.38965 2.75 5.5C2.75 2.6005 5.1005 0.25 8 0.25ZM15.25 13.5C15.6642 13.5 16 13.8358 16 14.25C16 14.6642 15.6642 15 15.25 15H12.75C12.3358 15 12 14.6642 12 14.25C12 13.8358 12.3358 13.5 12.75 13.5H15.25ZM7.22949 14.5H8.77051L9.16992 12.5H6.83008L7.22949 14.5ZM2 9.5C2.55228 9.5 3 9.94772 3 10.5C3 11.0523 2.55228 11.5 2 11.5H1C0.447715 11.5 0 11.0523 0 10.5C0 9.94772 0.447715 9.5 1 9.5H2ZM6.18164 2.21973C5.02964 2.85968 4.25 4.08874 4.25 5.5C4.25 7.11035 4.5857 7.83901 4.99902 8.45898C5.39726 9.05634 6.07607 9.7887 6.60352 11H6.62988C6.51153 10.482 6.28007 9.7534 5.82715 8.83008C5.23981 7.65282 5.25 6.54952 5.25 5.5C5.25 4.03666 5.67696 2.9661 6.18164 2.21973ZM9.81152 2.21582C10.3174 2.96237 10.7461 4.03402 10.7461 5.5C10.7461 6.54952 10.7563 7.65282 10.1689 8.83008C9.71602 9.7534 9.48457 10.482 9.36621 11H9.39648C9.92393 9.7887 10.6027 9.05634 11.001 8.45898C11.4143 7.83901 11.75 7.11035 11.75 5.5C11.75 4.08593 10.9673 2.8547 9.81152 2.21582ZM7.99805 2.41309C7.8745 2.51887 7.72968 2.6603 7.58398 2.84277C7.18352 3.34434 6.75 4.18178 6.75 5.5C6.75 6.58254 6.76041 7.34349 7.1709 8.16406L7.17383 8.16992C7.58352 9.00514 7.83871 9.71712 7.99805 10.2959C8.15738 9.71712 8.41258 9.00514 8.82227 8.16992L8.8252 8.16406C9.23568 7.34349 9.24609 6.58254 9.24609 5.5C9.24609 4.18178 8.81257 3.34434 8.41211 2.84277C8.26642 2.6603 8.12159 2.51887 7.99805 2.41309Z" fill="white" fill-opacity="0.4"/>
</g>
<defs>
<clipPath id="clip0_2986_28990">
<rect width="16" height="16" fill="white"/>
</clipPath>
</defs>
</svg>
