<svg width="16" height="16" viewBox="0 0 16 16" fill="none" xmlns="http://www.w3.org/2000/svg">
<path d="M10.8189 2.2725C11.2206 2.1722 11.6276 2.41664 11.728 2.8184L12.228 4.8184L12.356 5.33109L10.4165 6.62406C10.0719 6.85375 9.60628 6.76054 9.37648 6.41605C9.14673 6.07142 9.23988 5.60579 9.58449 5.37601L10.0972 5.03324C9.88392 4.95014 9.69773 4.90926 9.53566 4.90043C9.18601 4.88148 8.86595 4.99649 8.5464 5.26176C7.85324 5.83721 7.27028 7.03317 6.82082 8.54496C6.38316 10.0172 6.11389 11.6391 5.95461 12.9053C5.87532 13.5356 5.82402 14.0723 5.7925 14.4502C5.77678 14.6387 5.76608 14.7877 5.75929 14.8887C5.75591 14.9391 5.75301 14.9785 5.75148 15.0039C5.75073 15.0164 5.74987 15.0263 5.74953 15.0323V15.0401L4.27492 15.1905V15.1895C4.27478 15.1889 4.27425 15.1877 4.27394 15.1866C4.27331 15.1841 4.2723 15.1798 4.27101 15.1748C4.26842 15.1649 4.26453 15.1499 4.25929 15.1299C4.24853 15.0889 4.23197 15.0259 4.20949 14.9405C4.16448 14.7695 4.09503 14.5062 3.99758 14.1377C3.80257 13.4004 3.49468 12.2414 3.04543 10.5557C2.85599 9.84489 2.67865 9.27044 2.51515 8.85453C2.5055 8.8814 2.49484 8.90953 2.48488 8.93851C2.26226 9.58669 2.01498 10.6183 1.73879 12.1348C1.66436 12.542 1.27305 12.8124 0.86574 12.7383C0.458456 12.664 0.188138 12.2726 0.262224 11.8653C0.541768 10.3304 0.806489 9.20938 1.06691 8.45121C1.19592 8.07567 1.33709 7.7498 1.50148 7.49906C1.64884 7.27438 1.91662 6.95279 2.35109 6.88578C2.83219 6.81168 3.17597 7.09083 3.35304 7.29008C3.53696 7.49711 3.68099 7.76624 3.79933 8.03129C4.04064 8.57182 4.26918 9.32298 4.49465 10.169C4.57415 10.4673 4.64846 10.7497 4.71926 11.0157C4.88145 10.0819 5.09734 9.07591 5.38234 8.11723C5.84155 6.57266 6.52563 4.98972 7.5884 4.10746C8.14682 3.64394 8.82748 3.35962 9.61672 3.40238C9.86423 3.41582 10.1122 3.4638 10.3618 3.5391L10.273 3.18168C10.1727 2.77991 10.4171 2.37294 10.8189 2.2725ZM12.7095 7.24906C14.5043 7.24919 15.9595 8.70422 15.9595 10.4991C15.9594 12.2938 14.5043 13.7489 12.7095 13.7491C10.9146 13.7491 9.45956 12.2939 9.45949 10.4991C9.45949 8.70414 10.9146 7.24906 12.7095 7.24906ZM12.7095 8.74906C11.743 8.74906 10.9595 9.53256 10.9595 10.4991C10.9596 11.4655 11.743 12.2491 12.7095 12.2491C13.6758 12.2489 14.4594 11.4654 14.4595 10.4991C14.4595 9.53265 13.6759 8.74919 12.7095 8.74906Z" fill="#EA9794"/>
</svg>
