<svg width="16" height="16" viewBox="0 0 16 16" fill="none" xmlns="http://www.w3.org/2000/svg">
<path d="M10.8188 2.2725C11.2206 2.17219 11.6276 2.41663 11.728 2.8184L12.228 4.8184L12.356 5.3311L10.4165 6.62407C10.0719 6.85352 9.60614 6.76058 9.37646 6.41606C9.14685 6.07155 9.24015 5.60585 9.58447 5.37602L10.0972 5.03325C9.884 4.95021 9.69765 4.90925 9.53564 4.90043C9.18615 4.8816 8.8658 4.99661 8.54638 5.26176C7.85334 5.83731 7.2702 7.03338 6.8208 8.54497C6.38316 10.0172 6.11387 11.6391 5.95458 12.9053C5.8753 13.5356 5.824 14.0723 5.79248 14.4502C5.77675 14.6387 5.76606 14.7877 5.75927 14.8887C5.75589 14.9391 5.75299 14.9785 5.75146 15.0039C5.75071 15.0164 5.74985 15.0263 5.74951 15.0323V15.0401L4.2749 15.1905V15.1895C4.27475 15.1889 4.27422 15.1877 4.27392 15.1866C4.27328 15.1841 4.2723 15.1798 4.27099 15.1748C4.26839 15.1649 4.26453 15.15 4.25927 15.1299C4.2485 15.0889 4.23197 15.026 4.20947 14.9405C4.16446 14.7695 4.09503 14.5063 3.99755 14.1377C3.80254 13.4004 3.49468 12.2415 3.0454 10.5557C2.85594 9.84478 2.67865 9.27046 2.51513 8.85454C2.50549 8.88137 2.4948 8.90958 2.48486 8.93852C2.26225 9.5867 2.01494 10.6184 1.73876 12.1348C1.6643 12.542 1.27305 12.8125 0.865717 12.7383C0.458666 12.6638 0.188172 12.2725 0.262202 11.8653C0.541731 10.3305 0.80648 9.20938 1.06689 8.45122C1.19586 8.07578 1.33713 7.74977 1.50146 7.49907C1.64877 7.27446 1.91686 6.95295 2.35107 6.88579C2.83209 6.81167 3.17591 7.09084 3.35302 7.29008C3.537 7.49713 3.68094 7.76619 3.79931 8.03129C4.04065 8.57184 4.26913 9.32289 4.49462 10.169C4.57415 10.4674 4.64843 10.7497 4.71923 11.0157C4.88142 10.0819 5.09734 9.07589 5.38232 8.11723C5.84148 6.57281 6.52577 4.98977 7.58837 4.10747C8.1467 3.64402 8.82764 3.35975 9.61669 3.40239C9.86412 3.41581 10.1122 3.46385 10.3618 3.53911L10.2729 3.18168C10.1727 2.78006 10.4173 2.37313 10.8188 2.2725ZM12.7095 7.24907C14.5044 7.24907 15.9595 8.70414 15.9595 10.4991C15.9594 12.294 14.5044 13.7491 12.7095 13.7491C10.9147 13.7489 9.45952 12.2939 9.45947 10.4991C9.45947 8.70423 10.9147 7.24921 12.7095 7.24907ZM12.7095 8.74907C11.7431 8.74921 10.9595 9.53266 10.9595 10.4991C10.9595 11.4654 11.7431 12.2489 12.7095 12.2491C13.6759 12.2491 14.4594 11.4655 14.4595 10.4991C14.4595 9.53257 13.676 8.74907 12.7095 8.74907Z" fill="white"/>
</svg>
