<svg width="16" height="16" viewBox="0 0 16 16" fill="none" xmlns="http://www.w3.org/2000/svg">
<g clip-path="url(#clip0_2996_30324)">
<path d="M10.6592 3C11.0733 3.00013 11.4092 3.33587 11.4092 3.75C11.4092 4.16413 11.0733 4.49987 10.6592 4.5H5.56445L12.7832 11.7188C13.0757 12.0116 13.0758 12.4865 12.7832 12.7793C12.4903 13.0722 12.0146 13.0722 11.7217 12.7793L4.50391 5.56055V10.6553C4.50391 11.0695 4.16812 11.4053 3.75391 11.4053C3.33969 11.4053 3.00391 11.0695 3.00391 10.6553V3.75C3.00391 3.70468 3.00792 3.66029 3.01562 3.61719C3.02472 3.56636 3.03896 3.51621 3.05859 3.46777L3.0625 3.45801C3.07408 3.43061 3.08986 3.4055 3.10449 3.37988C3.13693 3.32305 3.17512 3.26824 3.22363 3.21973C3.27215 3.17122 3.32695 3.13303 3.38379 3.10059C3.40941 3.08596 3.43452 3.07018 3.46191 3.05859L3.47168 3.05469C3.50213 3.04234 3.53391 3.03455 3.56543 3.02637C3.57853 3.02296 3.59112 3.01735 3.60449 3.01465C3.61 3.01353 3.61557 3.01271 3.62109 3.01172C3.6642 3.00402 3.70858 3 3.75391 3H10.6592Z" fill="white"/>
</g>
<defs>
<clipPath id="clip0_2996_30324">
<rect width="16" height="16" fill="white"/>
</clipPath>
</defs>
</svg>
