<svg width="16" height="16" viewBox="0 0 16 16" fill="none" xmlns="http://www.w3.org/2000/svg">
<path d="M12.7705 0.00195312C13.0958 0.00705265 13.2936 0.0275993 13.4541 0.109375C13.6421 0.205215 13.7948 0.357928 13.8906 0.545898C13.9996 0.75976 14 1.03982 14 1.59961V14.4004L13.998 14.7705C13.9929 15.0958 13.9724 15.2936 13.8906 15.4541L13.8086 15.5879C13.7163 15.7148 13.5952 15.8187 13.4541 15.8906L13.3701 15.9268C13.2239 15.9789 13.0416 15.9938 12.7705 15.998L12.4004 16H3.59961C3.03982 16 2.75976 15.9996 2.5459 15.8906C2.40484 15.8187 2.28366 15.7148 2.19141 15.5879L2.10938 15.4541C2.0276 15.2936 2.00705 15.0958 2.00195 14.7705L2 14.4004V1.59961C2 1.03982 2.00041 0.75976 2.10938 0.545898C2.20522 0.357928 2.35793 0.205215 2.5459 0.109375C2.75976 0.000406864 3.03982 5.89394e-09 3.59961 0H12.4004L12.7705 0.00195312ZM3.5 14.499C3.53136 14.499 3.56447 14.5 3.59961 14.5H12.4004C12.4352 14.5 12.468 14.499 12.499 14.499C12.499 14.468 12.5 14.4352 12.5 14.4004V1.59961C12.5 1.56447 12.499 1.53136 12.499 1.5H3.5V14.499ZM8 6.75C9.51878 6.75 10.75 7.98122 10.75 9.5C10.75 10.1755 10.5047 10.7928 10.1006 11.2715C10.6881 11.5818 11.2004 12.0176 11.5996 12.5498C11.8481 12.8811 11.7813 13.351 11.4502 13.5996C11.1189 13.8481 10.649 13.7813 10.4004 13.4502C10.1209 13.0776 9.75836 12.7747 9.3418 12.5664C8.92523 12.3581 8.46574 12.25 8 12.25C7.53426 12.25 7.07477 12.3581 6.6582 12.5664C6.24164 12.7747 5.87905 13.0776 5.59961 13.4502C5.35102 13.7813 4.88107 13.8481 4.5498 13.5996C4.2187 13.351 4.15194 12.8811 4.40039 12.5498C4.79941 12.0179 5.31124 11.5817 5.89844 11.2715C5.49455 10.7928 5.25 10.1753 5.25 9.5C5.25 7.98122 6.48122 6.75 8 6.75ZM8 8.25C7.30964 8.25 6.75 8.80964 6.75 9.5C6.75 10.1904 7.30964 10.75 8 10.75C8.69036 10.75 9.25 10.1904 9.25 9.5C9.25 8.80964 8.69036 8.25 8 8.25ZM10.25 3.5C10.6642 3.5 11 3.83579 11 4.25C11 4.66421 10.6642 5 10.25 5H5.75C5.33579 5 5 4.66421 5 4.25C5 3.83579 5.33579 3.5 5.75 3.5H10.25Z" fill="white" fill-opacity="0.4"/>
</svg>
