<svg width="16" height="16" viewBox="0 0 16 16" fill="none" xmlns="http://www.w3.org/2000/svg">
<circle cx="8" cy="8" r="8" fill="white"/>
<path d="M10.4697 4.46571C10.7626 4.17312 11.2374 4.17292 11.5302 4.46571C11.8228 4.75852 11.8227 5.23341 11.5302 5.52625L9.05951 7.99696L11.5302 10.4677C11.8227 10.7605 11.8228 11.2354 11.5302 11.5282C11.2374 11.821 10.7626 11.8208 10.4697 11.5282L7.99896 9.0575L5.52826 11.5282C5.23541 11.821 4.76059 11.8209 4.46771 11.5282C4.17484 11.2353 4.17491 10.7606 4.46771 10.4677L6.93842 7.99696L4.46771 5.52625C4.17483 5.23336 4.17482 4.7586 4.46771 4.46571C4.76062 4.17293 5.23541 4.17285 5.52826 4.46571L7.99896 6.93641L10.4697 4.46571Z" fill="black"/>
</svg>
