<svg width="16" height="16" viewBox="0 0 16 16" fill="none" xmlns="http://www.w3.org/2000/svg">
<circle cx="8" cy="8" r="8" fill="#BAB9B9"/>
<path d="M10.4697 4.46582C10.7626 4.17323 11.2375 4.17303 11.5303 4.46582C11.8228 4.75863 11.8228 5.23353 11.5303 5.52637L9.05957 7.99707L11.5303 10.4678C11.8228 10.7606 11.8229 11.2355 11.5303 11.5283C11.2375 11.8211 10.7626 11.8209 10.4697 11.5283L7.99902 9.05762L5.52832 11.5283C5.23547 11.8211 4.76065 11.821 4.46777 11.5283C4.1749 11.2355 4.17497 10.7607 4.46777 10.4678L6.93848 7.99707L4.46777 5.52637C4.17489 5.23347 4.17488 4.75871 4.46777 4.46582C4.76068 4.17304 5.23547 4.17297 5.52832 4.46582L7.99902 6.93652L10.4697 4.46582Z" fill="black"/>
</svg>
