<svg width="16" height="16" viewBox="0 0 16 16" fill="none" xmlns="http://www.w3.org/2000/svg">
<path d="M8 1C11.866 1 15 4.13401 15 8C15 11.866 11.866 15 8 15C4.13401 15 1 11.866 1 8C1 4.13401 4.13401 1 8 1ZM8 2.5C4.96243 2.5 2.5 4.96243 2.5 8C2.5 11.0376 4.96243 13.5 8 13.5C11.0376 13.5 13.5 11.0376 13.5 8C13.5 4.96243 11.0376 2.5 8 2.5ZM10.29 9.79395C10.5615 9.48107 11.0358 9.4473 11.3486 9.71875C11.6612 9.99011 11.6948 10.4636 11.4238 10.7764C10.6651 11.6509 9.44791 12.1777 8 12.1777C6.55197 12.1777 5.33498 11.651 4.57617 10.7764C4.30483 10.4635 4.33853 9.99016 4.65137 9.71875C4.96424 9.44741 5.43757 9.48111 5.70898 9.79395C6.13591 10.2859 6.90955 10.6777 8 10.6777C9.09015 10.6777 9.86311 10.2858 10.29 9.79395ZM5.44141 5.00977C5.99369 5.00977 6.44141 5.68134 6.44141 6.50977C6.44141 7.33819 5.99369 8.00977 5.44141 8.00977C4.88912 8.00977 4.44141 7.33819 4.44141 6.50977C4.44141 5.68134 4.88912 5.00977 5.44141 5.00977ZM10.4414 5.00977C10.9937 5.00977 11.4414 5.68134 11.4414 6.50977C11.4414 7.33819 10.9937 8.00977 10.4414 8.00977C9.88912 8.00977 9.44141 7.33819 9.44141 6.50977C9.44141 5.68134 9.88912 5.00977 10.4414 5.00977Z" fill="white"/>
</svg>
