<svg width="16" height="16" viewBox="0 0 16 16" fill="none" xmlns="http://www.w3.org/2000/svg">
<g clip-path="url(#clip0_2986_28970)">
<path d="M15.0957 12.0898C15.4683 12.4626 15.6777 12.9681 15.6777 13.4951C15.6777 14.0221 15.4683 14.5277 15.0957 14.9004C14.723 15.273 14.2175 15.4824 13.6904 15.4824C13.1634 15.4824 12.6579 15.273 12.2852 14.9004L9.55273 12.168L8.45801 13.2627C8.19001 13.5306 7.76434 13.5567 7.46582 13.3232L7.92773 12.7324L7.46484 13.3223L7.46289 13.3203C7.46158 13.3193 7.45997 13.318 7.45801 13.3164C7.45395 13.3132 7.44814 13.3091 7.44141 13.3037C7.42792 13.2929 7.40937 13.2774 7.38574 13.2578C7.33854 13.2188 7.27146 13.1628 7.18848 13.0898C7.02233 12.9437 6.79025 12.7299 6.51855 12.4541C5.97623 11.9036 5.26951 11.0979 4.61035 10.0762C3.29357 8.03512 2.13651 5.07675 2.94727 1.56348L3.25098 0.245117L15.0957 12.0898ZM2.5 10C2.50082 10.0014 4 12.5442 4 13.418C3.99978 14.2917 3.32829 15 2.5 15C1.67171 15 1.00022 14.2917 1 13.418C1 12.544 2.5 10 2.5 10ZM10.6133 11.1074L13.3457 13.8398C13.4371 13.9311 13.5612 13.9824 13.6904 13.9824C13.8196 13.9824 13.9438 13.9312 14.0352 13.8398C14.1265 13.7485 14.1777 13.6243 14.1777 13.4951C14.1777 13.3659 14.1265 13.2418 14.0352 13.1504L11.3027 10.418L10.6133 11.1074ZM4.19922 3.31348C4.03897 5.69099 4.87819 7.72618 5.87012 9.26367C6.4609 10.1794 7.09801 10.905 7.58691 11.4014C7.69856 11.5147 7.80328 11.6148 7.89648 11.7031L10.2422 9.35742L4.19922 3.31348Z" fill="white"/>
</g>
<defs>
<clipPath id="clip0_2986_28970">
<rect width="16" height="16" fill="white"/>
</clipPath>
</defs>
</svg>
