<svg width="200" height="200" viewBox="0 0 200 200" fill="none" xmlns="http://www.w3.org/2000/svg">
<rect width="200" height="200" rx="48" fill="url(#paint0_linear_41_458)"/>
<path d="M157 85V56M43 56V85L43 114M43 56C43 73.6731 68.5198 88 100 88C131.48 88 157 73.6731 157 56M43 56C43 38.3269 68.5198 24 100 24C131.48 24 157 38.3269 157 56M43 114C43 131.673 68.5198 146 100 146C131.48 146 157 131.673 157 114V143C157 160.673 131.48 175 100 175C68.5198 175 43 160.673 43 143L43 114Z" stroke="white" stroke-width="6"/>
<path d="M78.7539 70.9337C80.8903 67.243 87.9512 65.2229 94.5254 66.422C101.1 67.6212 104.698 71.5856 102.562 75.2765C100.425 78.9673 93.3644 80.9874 86.79 79.7882C80.2156 78.5889 76.6177 74.6246 78.7539 70.9337ZM116.355 62.4405C120.419 59.301 128.246 58.6048 133.839 60.8858C139.431 63.167 140.671 67.5616 136.607 70.7013C132.544 73.8409 124.717 74.537 119.124 72.2559C113.532 69.9748 112.292 65.5801 116.355 62.4405ZM68.5166 48.9698C75.4291 48.9698 81.0328 52.1155 81.0332 55.9962C81.0332 59.877 75.4293 63.0235 68.5166 63.0235C61.6038 63.0235 56 59.877 56 55.9962C56.0004 52.1155 61.6041 48.9698 68.5166 48.9698ZM119.126 39.7393C124.719 37.4583 132.546 38.1534 136.609 41.2931C140.673 44.4327 139.432 48.8274 133.84 51.1085C128.247 53.3896 120.42 52.6935 116.356 49.5538C112.294 46.4141 113.534 42.0204 119.126 39.7393ZM86.79 32.2052C93.3645 31.0059 100.425 33.026 102.562 36.7169C104.697 40.4077 101.1 44.3712 94.5254 45.5704C87.9512 46.7695 80.8903 44.7503 78.7539 41.0597C76.6177 37.3687 80.2156 33.4044 86.79 32.2052Z" fill="white"/>
<path d="M171 73.5H174C174 71.9213 172.776 70.6127 171.201 70.5068C169.626 70.4008 168.238 71.5338 168.027 73.0982L171 73.5ZM100 92V89V92ZM43 86H40H43ZM171 73.5C168.027 73.0982 168.028 73.093 168.028 73.0879C168.029 73.0863 168.029 73.0812 168.03 73.0779C168.031 73.0714 168.032 73.0652 168.033 73.0592C168.034 73.0472 168.036 73.0363 168.038 73.0264C168.041 73.0066 168.044 72.9909 168.046 72.9793C168.051 72.956 168.053 72.9488 168.051 72.9568C168.047 72.9725 168.026 73.0501 167.973 73.1817C167.869 73.4423 167.634 73.9327 167.142 74.5872C166.161 75.8905 164.096 77.9273 159.839 80.0704C151.26 84.389 134.055 89 100 89V92V95C134.445 95 152.74 90.361 162.536 85.4296C167.467 82.9477 170.308 80.3595 171.936 78.1941C172.749 77.1141 173.244 76.1592 173.545 75.4082C173.694 75.0339 173.794 74.714 173.86 74.4587C173.893 74.3312 173.917 74.2202 173.935 74.1268C173.944 74.0802 173.952 74.038 173.958 74.0004C173.961 73.9816 173.964 73.964 173.966 73.9476C173.968 73.9393 173.969 73.9314 173.97 73.9238C173.97 73.92 173.971 73.9144 173.971 73.9125C173.972 73.9071 173.973 73.9018 171 73.5ZM100 92V89C84.7831 89 71.0988 84.8065 61.3015 78.5939C51.3926 72.3105 46 64.3613 46 57H43H40C40 67.3118 47.3673 76.8626 58.0883 83.661C68.9209 90.5301 83.7366 95 100 95V92ZM43 57L40 57V86H43H46V57L43 57ZM171 73.5H168V103H171H174V73.5H171ZM171 102.5C168.027 102.098 168.028 102.093 168.028 102.088C168.029 102.086 168.029 102.081 168.03 102.078C168.031 102.071 168.032 102.065 168.033 102.059C168.034 102.047 168.036 102.036 168.038 102.026C168.041 102.007 168.044 101.991 168.046 101.979C168.051 101.956 168.053 101.949 168.051 101.957C168.047 101.973 168.026 102.05 167.973 102.182C167.869 102.442 167.634 102.933 167.142 103.587C166.161 104.891 164.096 106.927 159.839 109.07C151.26 113.389 134.055 118 100 118V121V124C134.445 124 152.74 119.361 162.536 114.43C167.467 111.948 170.308 109.359 171.936 107.194C172.749 106.114 173.244 105.159 173.545 104.408C173.694 104.034 173.794 103.714 173.86 103.459C173.893 103.331 173.917 103.22 173.935 103.127C173.944 103.08 173.952 103.038 173.958 103C173.961 102.982 173.964 102.964 173.966 102.948C173.968 102.939 173.969 102.931 173.97 102.924C173.97 102.92 173.971 102.914 173.971 102.913C173.972 102.907 173.973 102.902 171 102.5ZM100 121V118C84.7831 118 71.0988 113.806 61.3015 107.594C51.3926 101.31 46 93.3613 46 86H43H40C40 96.3118 47.3673 105.863 58.0883 112.661C68.9209 119.53 83.7366 124 100 124V121Z" fill="white"/>
<defs>
<linearGradient id="paint0_linear_41_458" x1="100" y1="0" x2="100" y2="200" gradientUnits="userSpaceOnUse">
<stop stop-color="#252525"/>
<stop offset="1" stop-color="#0D0D0D"/>
</linearGradient>
</defs>
</svg>
