<svg width="16" height="16" viewBox="0 0 16 16" fill="none" xmlns="http://www.w3.org/2000/svg">
<path d="M13.5 0C13.9142 1.70882e-07 14.25 0.335786 14.25 0.75V7.25H14.5C14.9142 7.25 15.25 7.58579 15.25 8C15.25 8.41421 14.9142 8.75 14.5 8.75H13.7295L9.35156 11.667L13.416 14.376C13.7607 14.6057 13.8538 15.0714 13.624 15.416C13.3943 15.7606 12.9286 15.8536 12.584 15.624L8 12.5674L3.41504 15.624C3.07056 15.8533 2.60571 15.7602 2.37598 15.416C2.14625 15.0713 2.23931 14.6057 2.58398 14.376L6.64746 11.667L2.27246 8.75H1.5C1.08579 8.75 0.75 8.41421 0.75 8C0.75 7.58579 1.08579 7.25 1.5 7.25H1.75V0.75C1.75 0.335786 2.08579 0 2.5 0C2.91421 0 3.25 0.335786 3.25 0.75V1H12.75V0.75C12.75 0.335786 13.0858 3.70454e-08 13.5 0ZM4.97656 8.75L8 10.7656L11.0254 8.75H4.97656ZM3.25 7.25H12.75V5H3.25V7.25Z" fill="#E99896"/>
</svg>
