<svg width="16" height="16" viewBox="0 0 16 16" fill="none" xmlns="http://www.w3.org/2000/svg">
<path d="M6 1.25C7.24264 1.25 8.25 2.25736 8.25 3.5C8.25 4.14296 7.97832 4.72083 7.5459 5.13086L7.82422 5.75879C7.88227 5.7543 7.94079 5.75 8 5.75C8.7212 5.75 9.36168 6.09047 9.77344 6.61816L10.252 6.45898C10.2738 5.23528 11.2711 4.25 12.5 4.25C13.7426 4.25 14.75 5.25736 14.75 6.5C14.75 7.74264 13.7426 8.75 12.5 8.75C11.7788 8.75 11.1383 8.40953 10.7266 7.88184L10.2471 8.04102C10.2429 8.27437 10.2029 8.49815 10.1328 8.70898L11.2861 9.60645C11.6365 9.38141 12.0527 9.25 12.5 9.25C13.7426 9.25 14.75 10.2574 14.75 11.5C14.75 12.7426 13.7426 13.75 12.5 13.75C11.2574 13.75 10.25 12.7426 10.25 11.5C10.25 11.2521 10.2912 11.014 10.3652 10.791L9.21191 9.89355C8.86188 10.118 8.44671 10.25 8 10.25C7.60519 10.25 7.23466 10.1474 6.91211 9.96875L5.58301 11.1514C5.68987 11.4134 5.75 11.6996 5.75 12C5.75 13.2426 4.74264 14.25 3.5 14.25C2.25736 14.25 1.25 13.2426 1.25 12C1.25 10.7574 2.25736 9.75 3.5 9.75C3.89434 9.75 4.26464 9.85206 4.58691 10.0303L5.91602 8.84766C5.80946 8.58596 5.75 8.29999 5.75 8C5.75 7.35706 6.02072 6.7782 6.45312 6.36816L6.1748 5.74023C6.11704 5.74468 6.0589 5.75 6 5.75C4.75736 5.75 3.75 4.74264 3.75 3.5C3.75 2.25736 4.75736 1.25 6 1.25ZM3.5 11.25C3.08579 11.25 2.75 11.5858 2.75 12C2.75 12.4142 3.08579 12.75 3.5 12.75C3.91421 12.75 4.25 12.4142 4.25 12C4.25 11.5858 3.91421 11.25 3.5 11.25ZM12.5 10.75C12.0858 10.75 11.75 11.0858 11.75 11.5C11.75 11.9142 12.0858 12.25 12.5 12.25C12.9142 12.25 13.25 11.9142 13.25 11.5C13.25 11.0858 12.9142 10.75 12.5 10.75ZM8 7.25C7.58579 7.25 7.25 7.58579 7.25 8C7.25 8.41421 7.58579 8.75 8 8.75C8.41421 8.75 8.75 8.41421 8.75 8C8.75 7.58579 8.41421 7.25 8 7.25ZM12.5 5.75C12.0858 5.75 11.75 6.08579 11.75 6.5C11.75 6.91421 12.0858 7.25 12.5 7.25C12.9142 7.25 13.25 6.91421 13.25 6.5C13.25 6.08579 12.9142 5.75 12.5 5.75ZM6 2.75C5.58579 2.75 5.25 3.08579 5.25 3.5C5.25 3.91421 5.58579 4.25 6 4.25C6.41421 4.25 6.75 3.91421 6.75 3.5C6.75 3.08579 6.41421 2.75 6 2.75Z" fill="#EA9794"/>
</svg>
