<svg width="16" height="16" viewBox="0 0 16 16" fill="none" xmlns="http://www.w3.org/2000/svg">
<g clip-path="url(#clip0_2989_29546)">
<path d="M3.93139 6.88555C3.99846 6.4768 4.38397 6.19935 4.79272 6.26641C5.20117 6.33364 5.47776 6.71922 5.41088 7.12774C5.38666 7.27539 5.37481 7.42531 5.37475 7.57501L5.37866 7.69805C5.42102 8.31228 5.77845 8.92043 6.37084 9.40704C7.00273 9.92591 7.82239 10.2352 8.56225 10.2352H8.8435C9.41769 10.2353 9.96725 10.466 10.3708 10.8738C10.7741 11.2815 10.9997 11.833 10.9998 12.4061C10.9997 12.9791 10.774 13.5306 10.3708 13.9383C9.96725 14.3461 9.41769 14.5768 8.8435 14.577H6.031C5.8596 14.577 5.69372 14.6464 5.57006 14.7713C5.44613 14.8965 5.37475 15.0683 5.37475 15.2488C5.37443 15.6627 5.03865 15.9987 4.62475 15.9988C4.21074 15.9988 3.87508 15.6628 3.87475 15.2488C3.87475 14.6756 4.10019 14.1234 4.50366 13.7156C4.90736 13.3078 5.45676 13.077 6.031 13.077H8.8435C9.01475 13.0768 9.18091 13.0084 9.30444 12.8836C9.42826 12.7584 9.4997 12.5864 9.49975 12.4061C9.49965 12.2259 9.42803 12.0546 9.30444 11.9295C9.18091 11.8047 9.01475 11.7353 8.8435 11.7352H8.56225C7.43867 11.7352 6.28932 11.2812 5.4187 10.5662C4.6026 9.89585 3.95987 8.93278 3.88256 7.80352L3.87475 7.57501C3.87482 7.34413 3.89404 7.11336 3.93139 6.88555ZM7.8933 0.00176315C9.35181 -0.0194519 10.7851 0.388894 12.0164 1.17657C13.2474 1.96422 14.2236 3.09692 14.8269 4.43438C15.4301 5.7718 15.6345 7.25743 15.4158 8.70977C15.1969 10.1623 14.5642 11.5205 13.5935 12.617C13.3191 12.9268 12.845 12.9555 12.5349 12.6815C12.2248 12.4069 12.1959 11.932 12.4705 11.6219C13.2482 10.7433 13.7565 9.65352 13.9324 8.48614C14.1082 7.31873 13.944 6.12447 13.4597 5.05059C12.9753 3.97687 12.1922 3.07007 11.2078 2.44024C10.2233 1.81045 9.07844 1.48485 7.91479 1.50176C4.70621 1.54796 2.06338 4.18958 2.00073 7.44903V7.73711C2.03766 9.1722 2.57893 10.5507 3.53002 11.6219C3.8048 11.9316 3.77715 12.4055 3.46752 12.6805C3.15785 12.9553 2.68394 12.9265 2.40893 12.617C1.14239 11.1904 0.461256 9.33204 0.501703 7.41876C0.580322 3.36377 3.86387 0.0597147 7.8933 0.00176315ZM10.531 7.00665C11.1524 7.00667 11.656 7.51554 11.656 8.14336C11.6559 8.77114 11.1524 9.28006 10.531 9.28008C9.9096 9.28008 9.40606 8.77115 9.406 8.14336C9.406 7.51553 9.90957 7.00665 10.531 7.00665ZM7.43725 3.87872C8.05868 3.87872 8.56225 4.3876 8.56225 5.01544C8.56209 5.64313 8.05858 6.15215 7.43725 6.15215C6.81599 6.15207 6.31241 5.64308 6.31225 5.01544C6.31225 4.38765 6.81589 3.8788 7.43725 3.87872Z" fill="#EA9794"/>
</g>
<defs>
<clipPath id="clip0_2989_29546">
<rect width="16" height="16" fill="white"/>
</clipPath>
</defs>
</svg>
