<svg width="16" height="16" viewBox="0 0 16 16" fill="none" xmlns="http://www.w3.org/2000/svg">
<g clip-path="url(#clip0_2988_29279)">
<path d="M3.93139 6.88556C3.99843 6.47694 4.38412 6.1996 4.79271 6.26641C5.20131 6.33352 5.47777 6.71913 5.41088 7.12774C5.38669 7.2753 5.37481 7.42541 5.37475 7.57501L5.37865 7.69806C5.42106 8.3122 5.77855 8.92048 6.37084 9.40704C7.00262 9.92592 7.82242 10.235 8.56225 10.2352H8.8435C9.41775 10.2353 9.96719 10.4659 10.3708 10.8738C10.7742 11.2815 10.9996 11.8329 10.9997 12.4061C10.9996 12.979 10.774 13.5307 10.3708 13.9383C9.96722 14.3459 9.41757 14.5769 8.8435 14.577H6.031C5.85976 14.5771 5.6936 14.6465 5.57006 14.7713C5.44639 14.8965 5.37475 15.0686 5.37475 15.2488C5.37432 15.6627 5.0387 15.9988 4.62475 15.9988C4.21102 15.9986 3.87517 15.6625 3.87475 15.2488C3.87475 14.6758 4.10045 14.1233 4.50365 13.7156C4.90724 13.3079 5.45692 13.0771 6.031 13.077H8.8435C9.01464 13.0769 9.18089 13.0082 9.30443 12.8836C9.42823 12.7585 9.49965 12.5864 9.49975 12.4061C9.49965 12.2258 9.42815 12.0546 9.30443 11.9295C9.18085 11.8046 9.01481 11.7353 8.8435 11.7352H8.56225C7.43872 11.735 6.28922 11.2812 5.41869 10.5662C4.60268 9.89588 3.9599 8.93268 3.88256 7.80352L3.87475 7.57501C3.87482 7.34423 3.89406 7.11326 3.93139 6.88556ZM7.8933 0.00176648C9.35182 -0.0194966 10.785 0.388925 12.0163 1.17657C13.2475 1.96423 14.2236 3.09683 14.8269 4.43438C15.4301 5.77184 15.6346 7.25739 15.4158 8.70977C15.1969 10.1622 14.5642 11.5206 13.5935 12.617C13.3189 12.9264 12.8448 12.9556 12.5349 12.6815C12.225 12.407 12.1963 11.932 12.4704 11.6219C13.2481 10.7434 13.7564 9.65342 13.9324 8.48614C14.1082 7.31869 13.9441 6.12451 13.4597 5.05059C12.9753 3.97678 12.1923 3.07008 11.2078 2.44024C10.2232 1.81048 9.07846 1.4848 7.91478 1.50177C4.70642 1.54822 2.06337 4.18975 2.00072 7.44903V7.45001C1.96824 8.98735 2.51571 10.4795 3.53002 11.6219C3.80503 11.9316 3.77726 12.4055 3.46752 12.6805C3.15777 12.955 2.68377 12.9266 2.40893 12.617C1.14245 11.1905 0.461305 9.33196 0.501699 7.41876C0.580315 3.36393 3.86408 0.0599768 7.8933 0.00176648ZM10.532 7.00665C11.1533 7.00681 11.657 7.51563 11.657 8.14337C11.6568 8.77097 11.1532 9.27993 10.532 9.28009C9.91064 9.28009 9.40616 8.77107 9.406 8.14337C9.406 7.51553 9.91054 7.00665 10.532 7.00665ZM7.43822 3.87774C8.05945 3.8778 8.56296 4.38688 8.56322 5.01446C8.56322 5.64226 8.05961 6.1521 7.43822 6.15216C6.81679 6.15216 6.31322 5.6423 6.31322 5.01446C6.31348 4.38685 6.81695 3.87774 7.43822 3.87774Z" fill="white"/>
</g>
<defs>
<clipPath id="clip0_2988_29279">
<rect width="16" height="16" fill="white"/>
</clipPath>
</defs>
</svg>
