<svg width="16" height="16" viewBox="0 0 16 16" fill="none" xmlns="http://www.w3.org/2000/svg">
<g clip-path="url(#clip0_2988_29275)">
<path d="M8 0.25C12.2802 0.25 15.75 3.71979 15.75 8C15.75 12.2802 12.2802 15.75 8 15.75C3.71979 15.75 0.25 12.2802 0.25 8C0.25 3.71979 3.71979 0.25 8 0.25ZM8 1.75C4.54822 1.75 1.75 4.54822 1.75 8C1.75 11.4518 4.54822 14.25 8 14.25C11.4518 14.25 14.25 11.4518 14.25 8C14.25 4.54822 11.4518 1.75 8 1.75ZM8.00098 10.3926C8.63863 10.3926 9.26449 10.5646 9.8125 10.8906C10.1684 11.1024 10.2859 11.563 10.0742 11.9189C9.8624 12.2749 9.40186 12.3915 9.0459 12.1797C8.72984 11.9916 8.36875 11.8926 8.00098 11.8926C7.63324 11.8926 7.2721 11.9917 6.95605 12.1797C6.6001 12.3915 6.13955 12.2749 5.92773 11.9189C5.71597 11.563 5.83257 11.1024 6.18848 10.8906C6.73664 10.5644 7.36309 10.3926 8.00098 10.3926ZM5.42773 7.71387C6.05882 7.71387 6.57114 8.22539 6.57129 8.85645C6.57129 9.48763 6.05892 10 5.42773 10C4.79668 9.99985 4.28516 9.48753 4.28516 8.85645C4.28531 8.22548 4.79677 7.71402 5.42773 7.71387ZM10.5703 7.71387C11.2014 7.71387 11.7137 8.22539 11.7139 8.85645C11.7139 9.48763 11.2015 10 10.5703 10C9.93926 9.99985 9.42773 9.48753 9.42773 8.85645C9.42789 8.22548 9.93935 7.71402 10.5703 7.71387ZM10.1543 4.80469C10.4989 4.57495 10.9645 4.66815 11.1943 5.0127C11.4241 5.35734 11.331 5.82297 10.9863 6.05273L8.41504 7.7666C8.16311 7.93455 7.83493 7.93455 7.58301 7.7666L5.01172 6.05273C4.66707 5.82297 4.57395 5.35734 4.80371 5.0127C5.03348 4.66805 5.4991 4.57492 5.84375 4.80469L7.99902 6.24121L10.1543 4.80469Z" fill="white" fill-opacity="0.4"/>
</g>
<defs>
<clipPath id="clip0_2988_29275">
<rect width="16" height="16" fill="white"/>
</clipPath>
</defs>
</svg>
