<svg width="16" height="16" viewBox="0 0 16 16" fill="none" xmlns="http://www.w3.org/2000/svg">
<path d="M15 15C15 15.5523 14.5523 16 14 16H2L1.89746 15.9951C1.39333 15.9438 1 15.5177 1 15V1L1.00488 0.897461C1.05278 0.427034 1.42703 0.0527828 1.89746 0.00488281L2 0H14C14.5177 1.81167e-07 14.9438 0.393331 14.9951 0.897461L15 1V15ZM3.75 12.25H2.5V14.5H3.75V12.25ZM2.5 8.75V10.75H3.75V8.75H2.5ZM2.5 5.25V7.25H3.75V5.25H2.5ZM2.5 1.5V3.75H3.75V1.5H2.5ZM10.75 8.75H5.25V14.5H10.75V8.75ZM5.25 1.5V7.25H10.75V1.5H5.25ZM12.25 12.25V14.5H13.5V12.25H12.25ZM12.25 1.5V3.75H13.5V1.5H12.25ZM12.25 5.25V7.25H13.5V5.25H12.25ZM12.25 8.75V10.75H13.5V8.75H12.25Z" fill="white" fill-opacity="0.4"/>
</svg>
