<svg width="16" height="16" viewBox="0 0 16 16" fill="none" xmlns="http://www.w3.org/2000/svg">
<path d="M8.15039 1.25586C8.3993 1.28063 8.63555 1.37867 8.8291 1.53711L8.92188 1.62109L15.3779 8.07715V8.07812C15.6159 8.31627 15.75 8.63891 15.75 8.97559C15.75 9.31221 15.6159 9.63494 15.3779 9.87305L9.875 15.3779C9.63689 15.6159 9.31416 15.75 8.97754 15.75C8.64087 15.75 8.31822 15.6159 8.08008 15.3779H8.0791L1.62207 8.92285L1.62109 8.92188C1.38361 8.68397 1.25022 8.36154 1.25 8.02539V2C1.25 1.58579 1.58579 1.25 2 1.25H8.02539L8.15039 1.25586ZM2.75 7.92773L8.97656 14.1543L14.1543 8.97559L7.92871 2.75H2.75V7.92773ZM5.5 4.5C6.05228 4.5 6.5 4.94772 6.5 5.5C6.5 6.05228 6.05228 6.5 5.5 6.5C4.94772 6.5 4.5 6.05228 4.5 5.5C4.5 4.94772 4.94772 4.5 5.5 4.5Z" fill="#EA9794"/>
</svg>
