<svg width="16" height="16" viewBox="0 0 16 16" fill="none" xmlns="http://www.w3.org/2000/svg">
<path d="M7.99023 1.5C8.15443 1.5 8.31707 1.53283 8.46875 1.5957C8.5825 1.64286 8.68839 1.70631 8.7832 1.78418L8.87402 1.86621L15.0137 8.00586C15.3063 8.29879 15.3055 8.7736 15.0127 9.06641C14.8019 9.277 14.4979 9.33367 14.2344 9.24121V12.9873H14.9834C15.3976 12.9873 15.7334 13.3231 15.7334 13.7373C15.7334 14.1515 15.3976 14.4873 14.9834 14.4873H1C0.585786 14.4873 0.25 14.1515 0.25 13.7373C0.25 13.3231 0.585786 12.9873 1 12.9873H1.74805V9.24023C1.48402 9.33378 1.17907 9.27768 0.967773 9.06641C0.674909 8.77352 0.67491 8.29875 0.967773 8.00586L7.10645 1.86621L7.19727 1.78418C7.29204 1.7063 7.39801 1.64289 7.51172 1.5957C7.66333 1.53286 7.82612 1.50003 7.99023 1.5ZM3.24805 7.8457V12.9873H5.74414V9.74219C5.74414 9.32797 6.07993 8.99219 6.49414 8.99219H9.49023C9.90445 8.99219 10.2402 9.32797 10.2402 9.74219V12.9873H12.7344V7.84766L7.99023 3.10352L3.24805 7.8457ZM7.24414 12.9873H8.74023V10.4922H7.24414V12.9873Z" fill="#EA9794"/>
</svg>
