<svg width="16" height="16" viewBox="0 0 16 16" fill="none" xmlns="http://www.w3.org/2000/svg">
<g clip-path="url(#clip0_2988_29337)">
<path d="M6.29297 1.50586C7.41181 1.46256 8.52326 1.70479 9.52148 2.20898C9.77395 2.33654 9.9335 2.59508 9.93359 2.87793C9.93354 3.16085 9.77402 3.42029 9.52148 3.54785C8.69126 3.96734 7.99554 4.60594 7.50977 5.3916C7.02406 6.17722 6.76667 7.07979 6.7666 8C6.76663 8.92035 7.02396 9.82366 7.50977 10.6094C7.99556 11.395 8.69127 12.0337 9.52148 12.4531C9.77389 12.5807 9.93342 12.8393 9.93359 13.1221C9.93354 13.405 9.77402 13.6644 9.52148 13.792C8.52331 14.2961 7.41174 14.5384 6.29297 14.4951C5.1739 14.4517 4.08372 14.1242 3.12793 13.5439C2.17215 12.9637 1.38165 12.1493 0.833008 11.1787C0.284435 10.2081 -0.00388198 9.11331 -0.00390625 8C-0.0038455 6.88671 0.284419 5.79184 0.833008 4.82129C1.38161 3.85087 2.17229 3.03722 3.12793 2.45703C4.08374 1.8768 5.17388 1.54925 6.29297 1.50586ZM6.35059 3.00488C5.48544 3.03843 4.64368 3.29159 3.90625 3.73926C3.16902 4.18687 2.56033 4.81365 2.13867 5.55957C1.71707 6.30546 1.49615 7.14598 1.49609 8C1.49612 8.85397 1.71716 9.69455 2.13867 10.4404C2.56036 11.1864 3.16894 11.8141 3.90625 12.2617C4.64367 12.7094 5.48546 12.9625 6.35059 12.9961C6.74393 13.0113 7.13546 12.9775 7.51855 12.9033C7.01813 12.4715 6.58367 11.9649 6.2334 11.3984C5.60144 10.3763 5.26663 9.19976 5.2666 8C5.26667 6.80041 5.60157 5.62452 6.2334 4.60254C6.58387 4.03571 7.01776 3.52776 7.51855 3.0957C7.13555 3.02152 6.74383 2.98964 6.35059 3.00488ZM12.6328 4.75781C12.8284 4.58459 13.1033 4.52359 13.3574 4.60449C13.648 4.69714 13.8541 4.95674 13.8779 5.26074L14.0088 6.95117L15.5234 7.59863C15.7993 7.71675 15.9785 7.98894 15.9785 8.28906C15.9782 8.58893 15.7991 8.86051 15.5234 8.97852L14.0088 9.625L13.8779 11.3164C13.854 11.6203 13.6479 11.8801 13.3574 11.9727C13.0669 12.0651 12.749 11.9724 12.5537 11.7383L11.4922 10.4648L9.91309 10.8525C9.61975 10.9245 9.31172 10.8129 9.13184 10.5703C8.95206 10.3276 8.93572 10.0009 9.08984 9.74121L9.95215 8.28809L9.08984 6.83594C8.93564 6.57625 8.95212 6.24955 9.13184 6.00684C9.31171 5.7641 9.61967 5.65264 9.91309 5.72461L11.4922 6.11133L12.5537 4.83887L12.6328 4.75781Z" fill="#EA9794"/>
</g>
<defs>
<clipPath id="clip0_2988_29337">
<rect width="16" height="16" fill="white"/>
</clipPath>
</defs>
</svg>
