<svg width="16" height="16" viewBox="0 0 16 16" fill="none" xmlns="http://www.w3.org/2000/svg">
<g clip-path="url(#clip0_2988_29344)">
<path d="M6.29297 1.50591C7.41181 1.46261 8.52326 1.70484 9.52148 2.20904C9.77395 2.3366 9.9335 2.59513 9.93359 2.87798C9.93354 3.1609 9.77402 3.42034 9.52148 3.5479C8.69126 3.9674 7.99554 4.60599 7.50977 5.39165C7.02406 6.17727 6.76667 7.07984 6.7666 8.00005C6.76663 8.9204 7.02396 9.82371 7.50977 10.6094C7.99556 11.395 8.69127 12.0337 9.52148 12.4532C9.77389 12.5807 9.93342 12.8393 9.93359 13.1221C9.93354 13.405 9.77402 13.6645 9.52148 13.792C8.52331 14.2962 7.41174 14.5385 6.29297 14.4952C5.1739 14.4518 4.08372 14.1242 3.12793 13.544C2.17215 12.9638 1.38165 12.1493 0.833008 11.1788C0.284435 10.2082 -0.00388198 9.11336 -0.00390625 8.00005C-0.0038455 6.88676 0.284419 5.7919 0.833008 4.82134C1.38161 3.85092 2.17229 3.03728 3.12793 2.45708C4.08374 1.87685 5.17388 1.5493 6.29297 1.50591ZM6.35059 3.00494C5.48544 3.03849 4.64368 3.29164 3.90625 3.73931C3.16902 4.18693 2.56033 4.81371 2.13867 5.55962C1.71707 6.30552 1.49615 7.14603 1.49609 8.00005C1.49612 8.85403 1.71716 9.69461 2.13867 10.4405C2.56036 11.1865 3.16894 11.8141 3.90625 12.2618C4.64367 12.7094 5.48546 12.9626 6.35059 12.9961C6.74393 13.0114 7.13546 12.9776 7.51855 12.9034C7.01813 12.4715 6.58367 11.965 6.2334 11.3985C5.60144 10.3764 5.26663 9.19981 5.2666 8.00005C5.26667 6.80046 5.60157 5.62457 6.2334 4.60259C6.58387 4.03576 7.01776 3.52781 7.51855 3.09576C7.13555 3.02158 6.74383 2.98969 6.35059 3.00494ZM12.6328 4.75786C12.8284 4.58464 13.1033 4.52364 13.3574 4.60454C13.648 4.69719 13.8541 4.95679 13.8779 5.26079L14.0088 6.95122L15.5234 7.59869C15.7993 7.71681 15.9785 7.98899 15.9785 8.28911C15.9782 8.58898 15.7991 8.86056 15.5234 8.97857L14.0088 9.62505L13.8779 11.3165C13.854 11.6204 13.6479 11.8801 13.3574 11.9727C13.0669 12.0651 12.749 11.9724 12.5537 11.7383L11.4922 10.4649L9.91309 10.8526C9.61975 10.9245 9.31172 10.813 9.13184 10.5704C8.95206 10.3277 8.93572 10.001 9.08984 9.74126L9.95215 8.28814L9.08984 6.83599C8.93564 6.5763 8.95212 6.2496 9.13184 6.00689C9.31171 5.76416 9.61967 5.65269 9.91309 5.72466L11.4922 6.11138L12.5537 4.83892L12.6328 4.75786Z" fill="white"/>
</g>
<defs>
<clipPath id="clip0_2988_29344">
<rect width="16" height="16" fill="white"/>
</clipPath>
</defs>
</svg>
