<svg width="16" height="16" viewBox="0 0 16 16" fill="none" xmlns="http://www.w3.org/2000/svg">
<g clip-path="url(#clip0_2988_29344)">
<path d="M6.66504 1.25511C7.84707 1.21032 9.02208 1.46076 10.0781 1.98264C10.3338 2.109 10.4959 2.36937 10.4961 2.65452C10.4961 2.93982 10.3339 3.20093 10.0781 3.32737C9.18316 3.76976 8.43523 4.44221 7.91406 5.26682C7.39306 6.09129 7.11821 7.03716 7.11816 8.00022C7.11816 8.9633 7.39308 9.90913 7.91406 10.7336C8.43521 11.5583 9.18314 12.2307 10.0781 12.6731C10.3339 12.7995 10.496 13.0607 10.4961 13.3459C10.496 13.6311 10.3338 13.8914 10.0781 14.0178C9.02205 14.5397 7.84711 14.7901 6.66504 14.7453C5.48288 14.7005 4.33088 14.3617 3.31934 13.761C2.30774 13.1601 1.46852 12.3165 0.885742 11.3078C0.302908 10.299 -0.00390625 9.15964 -0.00390625 8.00022C-0.00386679 6.84082 0.302883 5.70146 0.885742 4.69261C1.46853 3.68403 2.30775 2.8403 3.31934 2.23948C4.33086 1.63876 5.48291 1.29995 6.66504 1.25511ZM6.72168 2.75413C5.78752 2.78956 4.87942 3.05675 4.08496 3.52854C3.29063 4.00033 2.63682 4.66086 2.18457 5.44358C1.73254 6.22608 1.49613 7.10646 1.49609 8.00022C1.49609 8.894 1.73256 9.77434 2.18457 10.5569C2.63681 11.3396 3.29061 12.0001 4.08496 12.4719C4.87944 12.9437 5.78749 13.2109 6.72168 13.2463C7.1711 13.2634 7.61851 13.2246 8.05469 13.136C7.50497 12.6799 7.02818 12.1409 6.64551 11.5354C5.97436 10.4733 5.61816 9.2496 5.61816 8.00022C5.61821 6.75086 5.97433 5.52714 6.64551 4.46507C7.0283 3.85938 7.50477 3.31959 8.05469 2.8635C7.61858 2.77494 7.17102 2.73709 6.72168 2.75413ZM12.5 4.75022C12.8137 4.75022 13.0941 4.94543 13.2031 5.23948L13.7588 6.74046L15.2607 7.2971C15.5548 7.40614 15.75 7.68657 15.75 8.00022C15.75 8.31388 15.5548 8.59431 15.2607 8.70335L13.7588 9.25901L13.2031 10.761C13.0941 11.055 12.8137 11.2502 12.5 11.2502C12.1863 11.2502 11.9059 11.055 11.7969 10.761L11.2402 9.25901L9.73926 8.70335C9.44521 8.59431 9.25 8.31388 9.25 8.00022C9.25 7.68657 9.44521 7.40614 9.73926 7.2971L11.2402 6.74046L11.7969 5.23948L11.8457 5.13401C11.9767 4.89972 12.2256 4.75022 12.5 4.75022Z" fill="white"/>
</g>
<defs>
<clipPath id="clip0_2988_29344">
<rect width="16" height="16" fill="white"/>
</clipPath>
</defs>
</svg>
