<svg width="16" height="16" viewBox="0 0 16 16" fill="none" xmlns="http://www.w3.org/2000/svg">
<g clip-path="url(#clip0_2988_29337)">
<path d="M6.29297 1.50591C7.41181 1.46261 8.52326 1.70484 9.52148 2.20904C9.77394 2.3366 9.9335 2.59514 9.93359 2.87798C9.93352 3.16088 9.774 3.42035 9.52148 3.5479C8.69127 3.9674 7.99553 4.606 7.50977 5.39165C7.02408 6.17726 6.76667 7.07985 6.7666 8.00005C6.76664 8.92039 7.02397 9.82373 7.50977 10.6094C7.99556 11.395 8.69129 12.0337 9.52148 12.4532C9.77388 12.5807 9.93342 12.8394 9.93359 13.1221C9.93352 13.405 9.774 13.6645 9.52148 13.792C8.52331 14.2962 7.41173 14.5385 6.29297 14.4952C5.17391 14.4518 4.08372 14.1242 3.12793 13.544C2.17217 12.9638 1.38165 12.1493 0.833008 11.1788C0.284444 10.2082 -0.00387293 9.11335 -0.00390625 8.00005C-0.0038455 6.88678 0.284434 5.79189 0.833008 4.82134C1.38161 3.85093 2.17231 3.03727 3.12793 2.45708C4.08374 1.87685 5.17388 1.5493 6.29297 1.50591ZM6.35059 3.00494C5.48545 3.03849 4.64368 3.29164 3.90625 3.73931C3.16903 4.18693 2.56032 4.81372 2.13867 5.55962C1.71709 6.30551 1.49615 7.14604 1.49609 8.00005C1.49613 8.85401 1.71717 9.69462 2.13867 10.4405C2.56036 11.1864 3.16896 11.8142 3.90625 12.2618C4.64367 12.7094 5.48547 12.9626 6.35059 12.9961C6.74393 13.0114 7.13546 12.9776 7.51855 12.9034C7.01814 12.4715 6.58367 11.965 6.2334 11.3985C5.60145 10.3764 5.26664 9.19979 5.2666 8.00005C5.26667 6.80048 5.60159 5.62457 6.2334 4.60259C6.58386 4.03577 7.01777 3.5278 7.51855 3.09576C7.13555 3.02158 6.74383 2.98969 6.35059 3.00494ZM12.5361 4.30376C12.7318 4.13036 13.0074 4.06938 13.2617 4.15044C13.5521 4.24319 13.7574 4.50283 13.7812 4.80669L13.9209 6.61724L15.5449 7.31158C15.8206 7.42969 15.9999 7.70107 16 8.00103C15.9998 8.30092 15.8206 8.57237 15.5449 8.69048L13.9209 9.38384L13.7812 11.1954C13.7575 11.4992 13.5521 11.7589 13.2617 11.8516C12.9711 11.9442 12.6524 11.8514 12.457 11.6172L11.3193 10.252L9.62598 10.668C9.3328 10.7399 9.02466 10.6291 8.84473 10.3868C8.66491 10.1441 8.64864 9.81642 8.80273 9.55669L9.72656 8.00103L8.80273 6.44536C8.64864 6.18571 8.66506 5.85892 8.84473 5.61626C9.0246 5.37358 9.3326 5.2621 9.62598 5.33404L11.3193 5.74908L12.457 4.38482L12.5361 4.30376ZM12.1719 7.07036C11.9884 7.2902 11.6951 7.38662 11.417 7.31841L11.0049 7.21685L11.2432 7.61822C11.3831 7.85415 11.3832 8.14791 11.2432 8.38384L11.0049 8.78423L11.417 8.68365C11.6954 8.61534 11.9884 8.71248 12.1719 8.93267L12.4287 9.24029L12.4619 8.81548L12.4766 8.71294C12.5279 8.47833 12.6904 8.27975 12.915 8.18365L13.3418 8.00103L12.915 7.81841C12.6585 7.70873 12.4838 7.46565 12.4619 7.18755L12.4287 6.76177L12.1719 7.07036Z" fill="white" fill-opacity="0.4"/>
</g>
<defs>
<clipPath id="clip0_2988_29337">
<rect width="16" height="16" fill="white"/>
</clipPath>
</defs>
</svg>
