<svg width="16" height="16" viewBox="0 0 16 16" fill="none" xmlns="http://www.w3.org/2000/svg">
<path d="M8.69238 10.7568C8.43984 10.4288 8.50022 9.95786 8.82812 9.70508C9.15613 9.4523 9.627 9.51391 9.87988 9.8418C10.0859 10.1091 10.3268 10.3501 10.5947 10.5615V6.66406C10.5949 6.24996 10.9306 5.91406 11.3447 5.91406C11.7589 5.91406 12.0946 6.24996 12.0947 6.66406V11.3271C12.3331 11.3953 12.5773 11.4447 12.8252 11.4727V5.87402C12.8254 5.45999 13.1611 5.12409 13.5752 5.12402C13.9893 5.12402 14.325 5.45995 14.3252 5.87402V11.501H15.248C15.6621 11.5011 15.998 11.8369 15.998 12.251C15.998 12.6651 15.6622 13.0009 15.248 13.001H13.3311C12.5501 13.0009 11.7777 12.8491 11.0605 12.5547C11.0567 12.5531 11.0526 12.5524 11.0488 12.5508C10.9441 12.5075 10.8405 12.4605 10.7383 12.4111C9.93294 12.0225 9.23136 11.4562 8.69238 10.7568ZM0 12.251C7.78722e-05 11.8368 0.335834 11.501 0.75 11.501H2.66699C3.46686 11.5009 4.24897 11.2886 4.9248 10.8906C5.60032 10.4927 6.14108 9.92602 6.49121 9.25879L8.17871 6.04395C8.6622 5.12258 9.40257 4.3523 10.3125 3.81641C11.2222 3.28076 12.2681 2.999 13.332 2.99902H15.248C15.6621 2.99916 15.998 3.33496 15.998 3.74902C15.9978 4.16295 15.662 4.49889 15.248 4.49902H13.332C12.5321 4.49901 11.7491 4.71138 11.0732 5.10938C10.3978 5.50726 9.85694 6.07406 9.50684 6.74121L7.82031 9.95605C7.33687 10.8774 6.5954 11.6467 5.68555 12.1826C4.77595 12.7183 3.73087 13.0009 2.66699 13.001H0.75C0.335786 13.001 6.01324e-10 12.6652 0 12.251ZM0 3.74902C3.14479e-05 3.33484 0.335806 2.99902 0.75 2.99902H2.66699L3.00391 3.00781C3.66215 3.04501 4.30906 3.19198 4.91699 3.43945C4.93156 3.44494 4.94585 3.45068 4.95996 3.45703C5.06049 3.49888 5.16059 3.54244 5.25879 3.58984C6.06354 3.97841 6.76504 4.54329 7.30371 5.24219C7.55633 5.57006 7.49549 6.041 7.16797 6.29395C6.83991 6.54678 6.3681 6.48621 6.11523 6.1582C5.90987 5.89176 5.67005 5.65143 5.40332 5.44043V9.33594C5.40322 9.75003 5.06742 10.0859 4.65332 10.0859C4.23917 10.0859 3.90342 9.75007 3.90332 9.33594V4.67285C3.66503 4.60457 3.42069 4.55542 3.17285 4.52734V10.126C3.17263 10.5399 2.83681 10.8758 2.42285 10.876C2.00878 10.876 1.67308 10.54 1.67285 10.126V4.49902H0.75C0.335918 4.49902 0.000213296 4.16306 0 3.74902Z" fill="black"/>
</svg>
