<svg width="16" height="16" viewBox="0 0 16 16" fill="none" xmlns="http://www.w3.org/2000/svg">
<g clip-path="url(#clip0_24_280)">
<path d="M8.69238 13.7568C8.43984 13.4288 8.50022 12.9579 8.82812 12.7051C9.15613 12.4523 9.627 12.5139 9.87988 12.8418C10.0859 13.1091 10.3268 13.3501 10.5947 13.5615V9.66406C10.5949 9.24996 10.9306 8.91406 11.3447 8.91406C11.7589 8.91406 12.0946 9.24996 12.0947 9.66406V14.3271C12.3331 14.3953 12.5773 14.4447 12.8252 14.4727V8.87402C12.8254 8.45999 13.1611 8.12409 13.5752 8.12402C13.9893 8.12402 14.325 8.45995 14.3252 8.87402V14.501H15.248C15.6621 14.5011 15.998 14.8369 15.998 15.251C15.998 15.6651 15.6622 16.0009 15.248 16.001H13.3311C12.5501 16.0009 11.7777 15.8491 11.0605 15.5547C11.0567 15.5531 11.0526 15.5524 11.0488 15.5508C10.9441 15.5075 10.8405 15.4605 10.7383 15.4111C9.93294 15.0225 9.23136 14.4562 8.69238 13.7568ZM0 15.251C7.78722e-05 14.8368 0.335834 14.501 0.75 14.501H2.66699C3.46686 14.5009 4.24897 14.2886 4.9248 13.8906C5.60032 13.4927 6.14108 12.926 6.49121 12.2588L8.17871 9.04395C8.6622 8.12258 9.40257 7.3523 10.3125 6.81641C11.2222 6.28076 12.2681 5.999 13.332 5.99902H15.248C15.6621 5.99916 15.998 6.33496 15.998 6.74902C15.9978 7.16295 15.662 7.49889 15.248 7.49902H13.332C12.5321 7.49901 11.7491 7.71138 11.0732 8.10938C10.3978 8.50726 9.85694 9.07406 9.50684 9.74121L7.82031 12.9561C7.33687 13.8774 6.5954 14.6467 5.68555 15.1826C4.77595 15.7183 3.73087 16.0009 2.66699 16.001H0.75C0.335786 16.001 6.01324e-10 15.6652 0 15.251ZM5.66113 2.73145C5.44638 2.65173 5.44638 2.34827 5.66113 2.26855L6.98633 1.77832C7.1215 1.72827 7.22827 1.6215 7.27832 1.48633L7.76855 0.161133C7.84827 -0.0536239 8.15173 -0.0536241 8.23145 0.161133L8.72168 1.48633C8.77173 1.6215 8.8785 1.72827 9.01367 1.77832L10.3389 2.26855C10.5536 2.34827 10.5536 2.65173 10.3389 2.73145L9.01367 3.22168C8.8785 3.27173 8.77173 3.3785 8.72168 3.51367L8.23145 4.83887C8.15173 5.05362 7.84827 5.05362 7.76855 4.83887L7.27832 3.51367C7.22827 3.3785 7.1215 3.27173 6.98633 3.22168L5.66113 2.73145ZM0 6.74902C3.14479e-05 6.33484 0.335806 5.99902 0.75 5.99902H2.66699L3.00391 6.00781C3.66215 6.04501 4.30906 6.19198 4.91699 6.43945C4.93156 6.44494 4.94585 6.45068 4.95996 6.45703C5.06049 6.49888 5.16059 6.54244 5.25879 6.58984C6.06354 6.97841 6.76504 7.54329 7.30371 8.24219C7.55633 8.57006 7.49549 9.041 7.16797 9.29395C6.83991 9.54678 6.3681 9.48621 6.11523 9.1582C5.90987 8.89176 5.67005 8.65143 5.40332 8.44043V12.3359C5.40322 12.75 5.06742 13.0859 4.65332 13.0859C4.23917 13.0859 3.90342 12.7501 3.90332 12.3359V7.67285C3.66503 7.60457 3.42069 7.55542 3.17285 7.52734V13.126C3.17263 13.5399 2.83681 13.8758 2.42285 13.876C2.00878 13.876 1.67308 13.54 1.67285 13.126V7.49902H0.75C0.335918 7.49902 0.000213296 7.16306 0 6.74902Z" fill="black"/>
</g>
<defs>
<clipPath id="clip0_24_280">
<rect width="16" height="16" fill="white"/>
</clipPath>
</defs>
</svg>
