<svg width="58" height="14" viewBox="0 0 58 14" fill="none" xmlns="http://www.w3.org/2000/svg">
<path d="M35.2441 1.10352C36.951 1.10357 38.2242 1.3908 39.0635 1.96582C39.9027 2.54084 40.3222 3.29959 40.3223 4.24219C40.3223 5.04351 40.0395 5.73679 39.4736 6.32129C38.9078 6.89628 38.0825 7.3109 36.998 7.56543C37.5827 7.7257 38.0263 7.98978 38.3281 8.35742C38.6297 8.71555 38.7802 9.13039 38.7803 9.60156C38.7803 10.3463 38.5447 10.9923 38.0732 11.5391C37.6112 12.0858 36.932 12.5099 36.0361 12.8115C35.1402 13.1038 34.0597 13.25 32.7959 13.25C32.3245 13.25 31.9469 13.2363 31.6641 13.208C31.6546 13.4718 31.5419 13.6698 31.3252 13.8018C31.1083 13.9337 30.8298 14 30.4902 14C30.1508 14 29.9153 13.9242 29.7832 13.7734C29.6606 13.6226 29.6081 13.4006 29.627 13.1084C29.7118 11.7888 29.8769 10.4079 30.1221 8.96582C30.3673 7.51401 30.6794 6.11374 31.0566 4.76562C31.1227 4.53 31.2541 4.36478 31.4521 4.27051C31.6502 4.17623 31.9098 4.12891 32.2305 4.12891C32.8057 4.12893 33.0938 4.28984 33.0938 4.61035C33.0937 4.74222 33.0653 4.89301 33.0088 5.0625C32.7636 5.79783 32.5177 6.79728 32.2725 8.06055C32.0273 9.31432 31.8528 10.5117 31.749 11.6523C32.2016 11.69 32.5696 11.709 32.8525 11.709C34.1728 11.709 35.1399 11.5206 35.7529 11.1436C36.3753 10.7571 36.6864 10.2666 36.6865 9.67285C36.6865 9.25811 36.5077 8.90877 36.1494 8.62598C35.8005 8.34317 35.2107 8.18748 34.3809 8.15918C34.1922 8.14975 34.0598 8.10242 33.9844 8.01758C33.9092 7.93278 33.8712 7.79644 33.8711 7.6084C33.8711 7.33507 33.9279 7.11304 34.041 6.94336C34.1542 6.77367 34.3623 6.68423 34.6641 6.6748C35.3335 6.65592 35.9371 6.55701 36.4746 6.37793C37.0216 6.19881 37.4505 5.94845 37.7617 5.62793C38.0729 5.29799 38.2285 4.91605 38.2285 4.48242C38.2284 3.93579 37.9594 3.50733 37.4219 3.19629C36.8843 2.87581 36.0591 2.71484 34.9463 2.71484C33.9373 2.71487 32.9615 2.84744 32.0186 3.11133C31.0754 3.36586 30.2735 3.69097 29.6133 4.08691C29.3117 4.26592 29.057 4.35536 28.8496 4.35547C28.6798 4.35547 28.5474 4.29868 28.4531 4.18555C28.3683 4.06305 28.3262 3.91239 28.3262 3.7334C28.3262 3.49773 28.3725 3.29468 28.4668 3.125C28.5705 2.95537 28.8115 2.76263 29.1885 2.5459C29.9807 2.09339 30.9099 1.73891 31.9756 1.48438C33.0413 1.22984 34.1312 1.10352 35.2441 1.10352ZM49.5439 6.54785C49.808 6.54785 49.992 6.57103 50.0957 6.61816C50.1994 6.6653 50.251 6.74104 50.251 6.84473C50.2509 6.90131 50.232 6.99102 50.1943 7.11328C50.1566 7.23567 50.105 7.35808 50.0391 7.48047C49.8693 7.81985 49.7842 8.10807 49.7842 8.34375C49.7843 8.48494 49.8317 8.6402 49.9258 8.80957C50.0295 8.97924 50.1851 9.19179 50.3926 9.44629C50.6944 9.84224 50.9214 10.182 51.0723 10.4648C51.2324 10.738 51.3124 11.0395 51.3125 11.3691C51.3125 11.4634 51.303 11.5959 51.2842 11.7656C51.6068 11.6406 51.9664 11.3686 52.3672 10.9541C52.3412 10.763 52.3272 10.5622 52.3271 10.3516C52.3271 9.70107 52.4638 9.09723 52.7373 8.54102C53.0107 7.97559 53.3883 7.52814 53.8691 7.19824C54.3595 6.86833 54.9115 6.70317 55.5244 6.70312C56.0714 6.70312 56.5107 6.86828 56.8408 7.19824C57.1706 7.51865 57.3358 7.9569 57.3359 8.5127C57.3359 9.16318 57.0995 9.72492 56.6279 10.1963C56.1658 10.6581 55.3731 11.0255 54.251 11.2988C54.4773 11.7325 54.8599 11.9492 55.3975 11.9492C55.784 11.9492 56.0996 11.8596 56.3447 11.6807C56.5994 11.5015 56.8926 11.1996 57.2227 10.7754C57.3358 10.6342 57.4632 10.5635 57.6045 10.5635C57.727 10.5635 57.8217 10.6203 57.8877 10.7334C57.963 10.8465 58 11.0024 58 11.2002C58 11.5395 57.9201 11.8321 57.7598 12.0771C57.4957 12.4824 57.1466 12.7982 56.7129 13.0244C56.2886 13.2505 55.7795 13.3632 55.1855 13.3633C54.2801 13.3633 53.577 13.095 53.0771 12.5576C52.9953 12.4681 52.922 12.3721 52.8535 12.2725C52.5827 12.5307 52.32 12.7258 52.0625 12.8545C51.6381 13.0619 51.1094 13.1745 50.4775 13.1934C50.1003 13.5139 49.6525 13.6748 49.1338 13.6748C48.6434 13.6748 48.266 13.5612 48.002 13.335C47.7473 13.1087 47.6201 12.8541 47.6201 12.5713C47.6202 12.3264 47.7097 12.1146 47.8887 11.9355C48.0678 11.7565 48.3319 11.6661 48.6807 11.666C48.8033 11.666 48.9451 11.6807 49.1055 11.709C49.2751 11.7278 49.4024 11.7416 49.4873 11.751C49.4778 11.506 49.4211 11.2753 49.3174 11.0586C49.2231 10.8419 49.1009 10.6344 48.9502 10.4365C48.7993 10.2291 48.6574 10.0493 48.5254 9.89844C48.2331 10.4545 47.9407 10.9166 47.6484 11.2842C47.6052 11.3403 47.5592 11.3949 47.5146 11.4502C47.4778 11.5246 47.4357 11.5932 47.3838 11.6533C46.9971 12.1341 46.5862 12.5392 46.1523 12.8691C45.7186 13.199 45.299 13.3642 44.8936 13.3643C44.5823 13.3643 44.2944 13.2601 44.0303 13.0527C43.7757 12.8359 43.5822 12.5433 43.4502 12.1758C42.9599 12.9675 42.3425 13.3641 41.5977 13.3643C41.0129 13.3643 40.5452 13.1518 40.1963 12.7275C39.8475 12.3033 39.6729 11.7466 39.6729 11.0586C39.6729 10.3047 39.8475 9.59297 40.1963 8.92383C40.5452 8.24515 41.0078 7.70321 41.583 7.29785C42.1677 6.88305 42.7858 6.67578 43.4365 6.67578C43.6439 6.67581 43.7807 6.71791 43.8467 6.80273C43.922 6.87815 43.9832 7.01942 44.0303 7.22656C44.2283 7.18885 44.4364 7.16992 44.6533 7.16992C45.1152 7.17 45.3456 7.33525 45.3457 7.66504C45.3457 7.863 45.2752 8.33441 45.1338 9.0791C44.9169 10.1632 44.8086 10.9176 44.8086 11.3418C44.8086 11.4832 44.8412 11.5968 44.9072 11.6816C44.9826 11.7664 45.0773 11.8086 45.1904 11.8086C45.3696 11.8086 45.5872 11.695 45.8418 11.4688C45.9141 11.4018 45.9923 11.3222 46.0791 11.2324C46.5828 10.6082 46.9647 10.0932 47.2236 9.68652C47.384 9.41313 47.5731 9.05016 47.79 8.59766C48.0069 8.13584 48.2193 7.66 48.4268 7.16992C48.606 6.75512 48.9781 6.54785 49.5439 6.54785ZM8.31836 1.31543C9.92165 1.31543 11.3364 1.39965 12.5625 1.56934C12.8266 1.60705 13.0063 1.68799 13.1006 1.81055C13.2041 1.93305 13.2559 2.09327 13.2559 2.29102C13.2559 2.94145 12.9068 3.24337 12.209 3.19629L11.7139 3.15332C11.1574 3.10618 10.6004 3.06832 10.0439 3.04004C9.49706 3.01177 8.9218 2.99805 8.31836 2.99805H7.68164C7.56846 4.3933 7.45073 5.66627 7.32812 6.81641L9.76172 6.77344C10.1105 6.77347 10.3419 6.83549 10.4551 6.95801C10.5773 7.08045 10.6386 7.24516 10.6387 7.45215C10.6387 7.77263 10.544 8.02728 10.3555 8.21582C10.1668 8.39494 9.89779 8.48438 9.54883 8.48438H7.12988L7.04492 9.09277C6.84686 10.6483 6.42225 11.7561 5.77148 12.416C5.13017 13.0758 4.24392 13.4062 3.1123 13.4062C2.47099 13.4062 1.88133 13.2695 1.34375 12.9961C0.806186 12.7133 0.409913 12.3735 0.155273 11.9775C0.0516249 11.8173 0 11.6236 0 11.3975C5.94365e-05 11.1714 0.0515884 10.9733 0.155273 10.8037C0.268343 10.6342 0.405291 10.55 0.56543 10.5498C0.678606 10.5498 0.787857 10.5867 0.891602 10.6621C1.00472 10.7375 1.1458 10.884 1.31543 11.1006C1.7681 11.6945 2.32946 11.9921 2.99902 11.9922C3.53661 11.9922 3.98438 11.7745 4.34277 11.3408C4.71053 10.8977 4.94704 10.2053 5.05078 9.2627L5.13574 8.48438H4.45605C4.23926 8.48433 4.05089 8.42327 3.89062 8.30078C3.73972 8.17823 3.66406 8.0036 3.66406 7.77734C3.66413 7.48529 3.73979 7.26405 3.89062 7.11328C4.04153 6.95302 4.2633 6.87305 4.55566 6.87305C4.81949 6.87304 5.0786 6.86781 5.33301 6.8584C5.44618 5.82144 5.56914 4.563 5.70117 3.08301C4.68263 3.17728 3.96575 3.34245 3.55078 3.57812C3.13602 3.81376 2.92879 4.16229 2.92871 4.62402C2.92871 4.94436 3.02254 5.25088 3.21094 5.54297C3.26749 5.62777 3.29587 5.71305 3.2959 5.79785C3.2959 5.96754 3.20228 6.119 3.01367 6.25098C2.82511 6.37349 2.61263 6.43453 2.37695 6.43457C2.12231 6.43457 1.90478 6.35885 1.72559 6.20801C1.6125 6.11366 1.50406 5.91997 1.40039 5.62793C1.29674 5.33578 1.24512 5.01043 1.24512 4.65234C1.24519 3.48346 1.84429 2.63532 3.04199 2.10742C4.24918 1.57956 6.00787 1.31543 8.31836 1.31543ZM18.1787 0C18.6314 0 18.9856 0.212487 19.2402 0.636719C19.5042 1.05151 19.6357 1.65038 19.6357 2.43262C19.6357 3.55437 19.3245 4.85506 18.7021 6.33496C18.0797 7.81506 17.2357 9.28158 16.1699 10.7334C16.2359 11.1196 16.3443 11.3977 16.4951 11.5674C16.646 11.7276 16.8446 11.8076 17.0898 11.8076C17.4765 11.8076 17.8161 11.6992 18.1084 11.4824C18.3258 11.3142 18.5865 11.059 18.8926 10.7188C18.9163 9.59162 19.0888 8.51705 19.4121 7.49512C19.497 7.22185 19.6338 7.02394 19.8223 6.90137C20.0202 6.76944 20.2938 6.70318 20.6426 6.70312C20.831 6.70312 20.9636 6.72639 21.0391 6.77344C21.1145 6.82057 21.1523 6.91099 21.1523 7.04297C21.1522 7.19402 21.0817 7.53326 20.9404 8.06055C20.8461 8.43764 20.7705 8.76796 20.7139 9.05078C20.6573 9.32414 20.61 9.66831 20.5723 10.083C20.8269 9.34767 21.1286 8.7249 21.4775 8.21582C21.8359 7.70685 22.1996 7.33004 22.5674 7.08496C22.9445 6.83056 23.2979 6.70314 23.6279 6.70312C23.958 6.70312 24.1893 6.77885 24.3213 6.92969C24.4626 7.08049 24.5332 7.31122 24.5332 7.62207C24.5332 7.92375 24.4438 8.4708 24.2646 9.2627C24.1892 9.60206 24.1377 9.85668 24.1094 10.0264C24.4206 9.23449 24.7644 8.58851 25.1416 8.08887C25.5283 7.58923 25.9056 7.23572 26.2734 7.02832C26.6412 6.81151 26.9808 6.70314 27.292 6.70312C27.5936 6.70312 27.8198 6.78329 27.9707 6.94336C28.131 7.09416 28.2119 7.32051 28.2119 7.62207C28.2119 7.86715 28.1594 8.32918 28.0557 9.00781C27.9614 9.58285 27.8867 10.13 27.8301 10.6484C27.7735 11.1575 27.7451 11.7278 27.7451 12.3594C27.7451 12.7176 27.6695 12.9774 27.5186 13.1377C27.3771 13.2884 27.1413 13.3632 26.8115 13.3633C26.5003 13.3633 26.2733 13.2833 26.1318 13.123C25.9905 12.9628 25.92 12.7226 25.9199 12.4023C25.9199 12.0252 25.9861 11.4025 26.1182 10.5352C26.2313 9.7811 26.2881 9.30015 26.2881 9.09277C26.288 8.94206 26.2355 8.86719 26.1318 8.86719C26.0092 8.86735 25.8346 9.02729 25.6084 9.34766C25.3821 9.65871 25.156 10.0735 24.9297 10.5918C24.7033 11.1103 24.5194 11.6574 24.3779 12.2324C24.2742 12.6849 24.1512 12.9869 24.0098 13.1377C23.8777 13.2883 23.6609 13.3633 23.3594 13.3633C23.0481 13.3633 22.8127 13.2171 22.6523 12.9248C22.5015 12.6232 22.4258 12.2601 22.4258 11.8359C22.4258 11.4778 22.4731 10.9596 22.5674 10.2812C22.6428 9.6779 22.6797 9.28132 22.6797 9.09277C22.6796 8.94206 22.6281 8.86719 22.5244 8.86719C22.383 8.86729 22.2042 9.03671 21.9873 9.37598C21.7704 9.71534 21.5581 10.1489 21.3506 10.6768C21.1525 11.2047 20.9917 11.7233 20.8691 12.2324C20.7654 12.6754 20.6434 12.9775 20.502 13.1377C20.37 13.2885 20.1574 13.3632 19.8652 13.3633C19.5068 13.3633 19.2515 13.1749 19.1006 12.7979C19.0605 12.6911 19.0268 12.5659 18.998 12.4229C18.8069 12.5918 18.6101 12.7463 18.4053 12.8828C17.9339 13.2032 17.3963 13.3632 16.793 13.3633C15.9631 13.3633 15.345 12.9864 14.9395 12.2324C14.8991 12.1557 14.8624 12.0755 14.8262 11.9941C14.0029 12.9062 13.2301 13.3632 12.5049 13.3633C11.8918 13.3633 11.4441 13.1465 11.1611 12.7129C10.8877 12.2793 10.75 11.7046 10.75 10.9883C10.75 10.564 10.8025 10.0212 10.9062 9.36133C11.0194 8.69219 11.1604 8.07003 11.3301 7.49512C11.4149 7.19351 11.5285 6.98619 11.6699 6.87305C11.8113 6.75997 12.0376 6.70318 12.3486 6.70312C12.8294 6.70312 13.0701 6.86338 13.0703 7.18359C13.0703 7.41926 12.9809 7.96645 12.8018 8.82422C12.5754 9.86123 12.4619 10.564 12.4619 10.9316C12.4619 11.2144 12.4998 11.4312 12.5752 11.582C12.6506 11.7328 12.778 11.8085 12.957 11.8086C13.1267 11.8086 13.3393 11.6905 13.5938 11.4551C13.8105 11.2545 14.088 10.9534 14.4277 10.5547C14.3724 10.169 14.3447 9.75225 14.3447 9.30469C14.3447 8.15466 14.4919 6.84451 14.7842 5.37402C15.086 3.90338 15.5243 2.63984 16.0996 1.58398C16.6843 0.528239 17.3772 0.00012023 18.1787 0ZM43.6348 7.99023C43.2386 7.99966 42.8708 8.15111 42.5312 8.44336C42.2012 8.72618 41.9363 9.10287 41.7383 9.57422C41.5403 10.0455 41.4414 10.5454 41.4414 11.0732C41.4414 11.3654 41.4982 11.5822 41.6113 11.7236C41.7339 11.865 41.899 11.9355 42.1064 11.9355C42.3139 11.9355 42.5125 11.8135 42.7012 11.5684C42.8897 11.3233 43.0264 10.998 43.1113 10.5928L43.6348 7.99023ZM55.2842 8.08887C54.9352 8.08887 54.6378 8.29189 54.3926 8.69727C54.1569 9.10258 54.0391 9.59306 54.0391 10.168V10.1963C54.5955 10.0643 55.0338 9.86552 55.3545 9.60156C55.6752 9.3376 55.8359 9.03143 55.8359 8.68262C55.8359 8.50377 55.7842 8.36242 55.6807 8.25879C55.5864 8.14566 55.4539 8.08887 55.2842 8.08887ZM17.8682 1.40039C17.6513 1.40039 17.4053 1.79097 17.1318 2.57324C16.8584 3.35564 16.6176 4.3269 16.4102 5.48633C16.2027 6.64589 16.0902 7.75893 16.0713 8.82422C16.7409 7.72122 17.2738 6.61765 17.6699 5.51465C18.0659 4.40237 18.2637 3.38896 18.2637 2.47461C18.2637 1.75855 18.132 1.40076 17.8682 1.40039ZM12.7881 3.56445C13.1368 3.56453 13.4199 3.64874 13.6367 3.81836C13.8536 3.98805 13.9619 4.22898 13.9619 4.54004C13.9618 4.91695 13.8389 5.21815 13.5938 5.44434C13.3486 5.66111 13.0236 5.76948 12.6182 5.76953C12.222 5.76953 11.9246 5.6801 11.7266 5.50098C11.5286 5.31246 11.4297 5.05344 11.4297 4.72363C11.4297 4.39367 11.5569 4.12015 11.8115 3.90332C12.0756 3.67708 12.4014 3.56445 12.7881 3.56445Z" fill="white"/>
</svg>
