<svg width="16" height="16" viewBox="0 0 16 16" fill="none" xmlns="http://www.w3.org/2000/svg">
<g clip-path="url(#clip0_2973_27734)">
<path d="M8 0C10.0317 0 11.908 0.439825 13.3037 1.1875C14.6436 1.90528 15.7084 3.01396 15.7461 4.42285C15.7487 4.44821 15.75 4.47395 15.75 4.5V11.5C15.75 12.9457 14.668 14.0817 13.3037 14.8125C11.908 15.5602 10.0316 16 8 16C5.96836 16 4.09198 15.5602 2.69629 14.8125C1.33203 14.0817 0.25 12.9457 0.25 11.5V4.5C0.25 3.05437 1.33204 1.91835 2.69629 1.1875C4.09197 0.439826 5.96834 0 8 0ZM14.25 10.5898C13.9664 10.8258 13.654 11.0399 13.3223 11.2295C11.9229 12.0291 10.0393 12.5 8 12.5C5.96071 12.5 4.07711 12.0291 2.67773 11.2295C2.34597 11.0399 2.03364 10.8258 1.75 10.5898V11.5C1.75 12.1254 2.23521 12.8639 3.4043 13.4902C4.54212 14.0998 6.16573 14.5 8 14.5C9.83427 14.5 11.4579 14.0998 12.5957 13.4902C13.7648 12.8639 14.25 12.1254 14.25 11.5V10.5898ZM14.25 7.19824C13.9597 7.42658 13.6405 7.6321 13.3037 7.8125C11.908 8.56017 10.0317 9 8 9C5.96834 9 4.09197 8.56017 2.69629 7.8125C2.35954 7.6321 2.04033 7.42658 1.75 7.19824V7.75C1.75 8.46928 2.26749 9.26753 3.42285 9.92773C4.55697 10.5756 6.17368 11 8 11C9.82632 11 11.443 10.5756 12.5771 9.92773C13.7325 9.26753 14.25 8.46928 14.25 7.75V7.19824ZM8 1.5C6.16569 1.5 4.54211 1.90022 3.4043 2.50977C2.23521 3.13613 1.75 3.8746 1.75 4.5C1.75 5.1254 2.2352 5.86388 3.4043 6.49023C4.54211 7.09978 6.16569 7.5 8 7.5C9.83431 7.5 11.4579 7.09978 12.5957 6.49023C13.7648 5.86388 14.25 5.1254 14.25 4.5C14.25 3.8746 13.7648 3.13613 12.5957 2.50977C11.4579 1.90022 9.83431 1.5 8 1.5ZM8 5C8.32023 5 8.63255 5.04775 8.88281 5.1416C9.00596 5.18779 9.14036 5.25478 9.25293 5.35449C9.36501 5.45386 9.5 5.62888 9.5 5.875C9.5 6.12112 9.36501 6.29614 9.25293 6.39551C9.14036 6.49522 9.00596 6.56221 8.88281 6.6084C8.63255 6.70225 8.32023 6.75 8 6.75C7.67977 6.75 7.36745 6.70225 7.11719 6.6084C6.99404 6.56221 6.85964 6.49522 6.74707 6.39551C6.63499 6.29614 6.5 6.12112 6.5 5.875C6.5 5.62888 6.63499 5.45386 6.74707 5.35449C6.85964 5.25478 6.99404 5.18779 7.11719 5.1416C7.36745 5.04775 7.67977 5 8 5ZM4 3.5C4.32023 3.5 4.63255 3.54775 4.88281 3.6416C5.00596 3.68779 5.14036 3.75478 5.25293 3.85449C5.36501 3.95386 5.5 4.12888 5.5 4.375C5.5 4.62112 5.36501 4.79614 5.25293 4.89551C5.14036 4.99522 5.00596 5.06221 4.88281 5.1084C4.63255 5.20225 4.32023 5.25 4 5.25C3.67977 5.25 3.36745 5.20225 3.11719 5.1084C2.99404 5.06221 2.85964 4.99522 2.74707 4.89551C2.63499 4.79614 2.5 4.62112 2.5 4.375C2.5 4.12888 2.63499 3.95386 2.74707 3.85449C2.85964 3.75478 2.99404 3.68779 3.11719 3.6416C3.36745 3.54775 3.67977 3.5 4 3.5ZM12 3.5C12.3202 3.5 12.6326 3.54775 12.8828 3.6416C13.006 3.68779 13.1404 3.75478 13.2529 3.85449C13.365 3.95386 13.5 4.12888 13.5 4.375C13.5 4.62112 13.365 4.79614 13.2529 4.89551C13.1404 4.99522 13.006 5.06221 12.8828 5.1084C12.6326 5.20225 12.3202 5.25 12 5.25C11.6798 5.25 11.3674 5.20225 11.1172 5.1084C10.994 5.06221 10.8596 4.99522 10.7471 4.89551C10.635 4.79614 10.5 4.62112 10.5 4.375C10.5 4.12888 10.635 3.95386 10.7471 3.85449C10.8596 3.75478 10.994 3.68779 11.1172 3.6416C11.3674 3.54775 11.6798 3.5 12 3.5ZM8 2C8.32023 2 8.63255 2.04775 8.88281 2.1416C9.00596 2.18779 9.14036 2.25478 9.25293 2.35449C9.36501 2.45386 9.5 2.62888 9.5 2.875C9.5 3.12112 9.36501 3.29614 9.25293 3.39551C9.14036 3.49522 9.00596 3.56221 8.88281 3.6084C8.63255 3.70225 8.32023 3.75 8 3.75C7.67977 3.75 7.36745 3.70225 7.11719 3.6084C6.99404 3.56221 6.85964 3.49522 6.74707 3.39551C6.63499 3.29614 6.5 3.12112 6.5 2.875C6.5 2.62888 6.63499 2.45386 6.74707 2.35449C6.85964 2.25478 6.99404 2.18779 7.11719 2.1416C7.36745 2.04775 7.67977 2 8 2Z" fill="#EA9794"/>
</g>
<defs>
<clipPath id="clip0_2973_27734">
<rect width="16" height="16" fill="white"/>
</clipPath>
</defs>
</svg>
