<svg width="16" height="16" viewBox="0 0 16 16" fill="none" xmlns="http://www.w3.org/2000/svg">
<path d="M12.4004 2L12.7705 2.00195C13.0958 2.00705 13.2936 2.0276 13.4541 2.10938C13.6421 2.20522 13.7948 2.35793 13.8906 2.5459C13.9996 2.75976 14 3.03982 14 3.59961V12.4004L13.998 12.7705C13.9929 13.0958 13.9724 13.2936 13.8906 13.4541L13.8086 13.5879C13.7163 13.7148 13.5952 13.8187 13.4541 13.8906L13.3701 13.9268C13.2239 13.9789 13.0416 13.9938 12.7705 13.998L12.4004 14H3V13.9883C2.8039 13.9762 2.66464 13.9511 2.5459 13.8906C2.40484 13.8187 2.28366 13.7148 2.19141 13.5879L2.10938 13.4541C2.0276 13.2936 2.00705 13.0958 2.00195 12.7705L2 12.4004V3.59961C2 3.03982 2.00041 2.75976 2.10938 2.5459C2.20522 2.35793 2.35793 2.20522 2.5459 2.10938C2.66465 2.04887 2.80387 2.02282 3 2.01074V2H12.4004ZM8 12.5H12.4004C12.4352 12.5 12.468 12.499 12.499 12.499C12.499 12.468 12.5 12.4352 12.5 12.4004V3.59961C12.5 3.56447 12.499 3.53136 12.499 3.5H8V12.5Z" fill="white"/>
</svg>
