<svg width="16" height="16" viewBox="0 0 16 16" fill="none" xmlns="http://www.w3.org/2000/svg">
<g clip-path="url(#clip0_3006_30584)">
<path d="M10.5889 1.05762C11.484 1.05763 12.3363 1.42766 12.96 2.07617C13.5758 2.71657 13.9193 3.5768 13.9268 4.46973C14.5718 4.81654 15.1097 5.34464 15.4766 5.99414C15.9327 6.80185 16.0987 7.74845 15.9473 8.66699C15.7957 9.58584 15.3352 10.4258 14.6406 11.0342C14.4199 11.2275 14.1798 11.3929 13.9258 11.5293C13.9203 12.1934 13.7298 12.8435 13.3721 13.4004C13.0088 13.9658 12.4893 14.4116 11.876 14.6758C11.2624 14.94 10.5851 15.0092 9.93166 14.874C9.27847 14.7388 8.68261 14.4062 8.21779 13.9229C8.14043 13.8424 8.06882 13.7572 8.00002 13.6699C7.93122 13.7572 7.85961 13.8424 7.78224 13.9229C7.31743 14.4062 6.72155 14.7388 6.06838 14.874C5.41494 15.0092 4.73764 14.94 4.12404 14.6758C3.51079 14.4116 2.99125 13.9658 2.62795 13.4004C2.26984 12.8429 2.0774 12.1921 2.07228 11.5273C1.82027 11.3916 1.5825 11.2261 1.3633 11.0342C0.668721 10.4258 0.20827 9.58588 0.0566576 8.66699C-0.0947775 7.74843 0.070227 6.80187 0.526384 5.99414C0.893282 5.34455 1.43111 4.81561 2.07619 4.46875C2.08394 3.57618 2.42836 2.71634 3.04396 2.07617C3.66763 1.42779 4.52 1.05762 5.41506 1.05762C6.31009 1.05772 7.16255 1.42772 7.78615 2.07617C7.86225 2.15531 7.93429 2.23773 8.00197 2.32324C8.06965 2.23774 8.14169 2.15531 8.21779 2.07617C8.84147 1.42768 9.69374 1.05762 10.5889 1.05762ZM5.41506 2.55762C4.93705 2.55762 4.47232 2.75509 4.12502 3.11621C3.77679 3.47835 3.57619 3.97573 3.57619 4.5V4.95215C3.57615 5.26671 3.37931 5.54791 3.084 5.65625C2.56426 5.84676 2.11916 6.22578 1.83302 6.73242C1.54672 7.23948 1.44083 7.83864 1.53713 8.42285C1.63351 9.00698 1.92451 9.53118 2.35158 9.90527C2.77795 10.2787 3.31252 10.4799 3.86037 10.4795H4.37892C4.79312 10.4795 5.12889 10.8153 5.12892 11.2295C5.12887 11.6437 4.7931 11.9795 4.37892 11.9795H3.86135V11.9785C3.78324 11.9786 3.70547 11.9745 3.62795 11.9697C3.68013 12.1905 3.76808 12.4005 3.88967 12.5898C4.09517 12.9096 4.38427 13.1545 4.71681 13.2979C5.04921 13.441 5.41386 13.4778 5.76467 13.4053C6.11552 13.3326 6.44211 13.1522 6.70119 12.8828C6.96043 12.613 7.14081 12.2658 7.21388 11.8838C7.28687 11.5017 7.24912 11.1053 7.10646 10.7471C6.96375 10.389 6.72385 10.0868 6.42189 9.87695C6.12018 9.66739 5.76806 9.55762 5.41115 9.55762C4.99694 9.55761 4.66115 9.22182 4.66115 8.80762C4.6614 8.39362 4.9971 8.05763 5.41115 8.05762C6.06872 8.05762 6.70926 8.2583 7.25392 8.62988V4.57617C7.25138 4.55112 7.25003 4.52571 7.25002 4.5C7.25002 4.48211 7.25072 4.46415 7.25099 4.44629C7.23779 3.94198 7.04123 3.46594 6.7051 3.11621C6.35788 2.75516 5.89294 2.55772 5.41506 2.55762ZM10.5889 2.55762C10.1109 2.55762 9.64615 2.75507 9.29885 3.11621C8.96259 3.46596 8.76515 3.9419 8.75197 4.44629C8.75224 4.46415 8.75392 4.48211 8.75392 4.5V8.625C9.29695 8.25672 9.93436 8.05762 10.5889 8.05762C11.0029 8.05763 11.3386 8.39363 11.3389 8.80762C11.3389 9.22182 11.0031 9.5576 10.5889 9.55762C10.232 9.55762 9.87986 9.66738 9.57814 9.87695C9.27616 10.0868 9.03629 10.389 8.89357 10.7471C8.81305 10.9493 8.76658 11.1639 8.75392 11.3809V11.499C8.75392 11.5158 8.75209 11.5323 8.75099 11.5488C8.75365 11.6608 8.76497 11.7729 8.78615 11.8838C8.85923 12.2658 9.03959 12.613 9.29885 12.8828C9.55793 13.1522 9.88451 13.3326 10.2354 13.4053C10.5862 13.4778 10.9508 13.441 11.2832 13.2979C11.6158 13.1545 11.9049 12.9096 12.1104 12.5898C12.2317 12.4009 12.3189 12.191 12.3711 11.9707C12.2952 11.9753 12.2191 11.9795 12.1426 11.9795H11.624C11.21 11.9793 10.8741 11.6435 10.874 11.2295C10.8741 10.8154 11.21 10.4797 11.624 10.4795H12.1426C12.6905 10.48 13.2259 10.2788 13.6524 9.90527C14.0793 9.53119 14.3704 9.00686 14.4668 8.42285C14.5631 7.83872 14.4571 7.23942 14.1709 6.73242C13.8848 6.22582 13.4396 5.84678 12.9199 5.65625C12.6245 5.54797 12.4278 5.26679 12.4278 4.95215V4.5C12.4278 3.97581 12.2271 3.47834 11.8789 3.11621C11.5316 2.75507 11.0669 2.55763 10.5889 2.55762ZM5.41213 4.28906C5.82634 4.28906 6.16213 4.62485 6.16213 5.03906V5.30859C6.16193 5.99767 5.89864 6.66423 5.42189 7.16016C4.94402 7.65712 4.28961 7.94238 3.6006 7.94238H3.34181C2.92775 7.94237 2.59205 7.60639 2.59181 7.19238C2.59196 6.7783 2.9277 6.44239 3.34181 6.44238H3.6006C3.87224 6.44238 4.13931 6.33055 4.34084 6.12109C4.5432 5.91059 4.66193 5.6185 4.66213 5.30859V5.03906C4.66213 4.62486 4.99793 4.28908 5.41213 4.28906ZM10.5918 4.28906C11.006 4.28906 11.3418 4.62485 11.3418 5.03906V5.30859C11.342 5.6185 11.4607 5.91059 11.6631 6.12109C11.8646 6.33056 12.1317 6.44238 12.4033 6.44238H12.6621C13.0763 6.44238 13.412 6.77829 13.4121 7.19238C13.4119 7.6064 13.0762 7.94238 12.6621 7.94238H12.4033C11.7143 7.94237 11.0599 7.65713 10.582 7.16016C10.1053 6.66423 9.84201 5.99766 9.84181 5.30859V5.03906C9.84181 4.62485 10.1776 4.28907 10.5918 4.28906Z" fill="white"/>
</g>
<defs>
<clipPath id="clip0_3006_30584">
<rect width="16" height="16" fill="white"/>
</clipPath>
</defs>
</svg>
