<svg width="16" height="16" viewBox="0 0 16 16" fill="none" xmlns="http://www.w3.org/2000/svg">
<path d="M7.6065 1.61125C7.84755 1.46291 8.15256 1.46292 8.39361 1.61125L14.8936 5.61125C15.1791 5.78716 15.313 6.13135 15.2217 6.45403C15.1303 6.77684 14.8356 6.99992 14.5001 6.99992H13.2501V12.9999H14.0001C14.4143 12.9999 14.7501 13.3357 14.7501 13.7499C14.7501 14.1641 14.4143 14.4999 14.0001 14.4999H2.00005C1.58584 14.4999 1.25005 14.1641 1.25005 13.7499C1.25005 13.3357 1.58584 12.9999 2.00005 12.9999H2.75005V6.99992H1.50005C1.16455 6.9999 0.86977 6.77684 0.778375 6.45403C0.687125 6.13138 0.821088 5.78717 1.1065 5.61125L7.6065 1.61125ZM4.25005 12.9999H5.75005V6.99992H4.25005V12.9999ZM7.25005 12.9999H8.75005V6.99992H7.25005V12.9999ZM10.2501 12.9999H11.7501V6.99992H10.2501V12.9999ZM4.15045 5.49992H11.8497L8.00005 3.13078L4.15045 5.49992Z" fill="white" fill-opacity="0.4"/>
</svg>
