<svg width="16" height="16" viewBox="0 0 16 16" fill="none" xmlns="http://www.w3.org/2000/svg">
<path d="M7.60651 1.61125C7.84756 1.46292 8.15257 1.46291 8.39362 1.61125L14.8936 5.61125C15.1789 5.7872 15.313 6.13144 15.2217 6.45402C15.1303 6.77672 14.8355 6.99984 14.5001 6.99992H13.2501V12.9999H14.0001C14.4142 13.0001 14.7501 13.3358 14.7501 13.7499C14.75 14.164 14.4141 14.4998 14.0001 14.4999H2.00006C1.58591 14.4999 1.25016 14.164 1.25006 13.7499C1.25006 13.3357 1.58585 12.9999 2.00006 12.9999H2.75006V6.99992H1.50006C1.16462 6.99992 0.869862 6.77673 0.778384 6.45402C0.687125 6.13135 0.821044 5.78715 1.10651 5.61125L7.60651 1.61125ZM4.25006 12.9999H5.75006V6.99992H4.25006V12.9999ZM7.25006 12.9999H8.75006V6.99992H7.25006V12.9999ZM10.2501 12.9999H11.7501V6.99992H10.2501V12.9999ZM4.15045 5.49992H11.8497L8.00006 3.13078L4.15045 5.49992Z" fill="white"/>
</svg>
