<svg width="16" height="16" viewBox="0 0 16 16" fill="none" xmlns="http://www.w3.org/2000/svg">
<path d="M9.12235 0.25C12.256 0.250267 14.7503 2.87673 14.7503 6.05859V13.1396H14.0003C14.685 13.1396 14.7451 13.1403 14.7503 13.1406V13.1562C14.7502 13.163 14.7496 13.1711 14.7493 13.1807C14.7487 13.2003 14.7475 13.2263 14.7454 13.2568C14.7413 13.3178 14.734 13.4001 14.719 13.498C14.6894 13.6926 14.6296 13.9586 14.51 14.248C14.2661 14.8382 13.7629 15.5329 12.7815 15.8721L12.7659 15.8779L12.7503 15.8818C12.2886 16.0191 11.8677 16.0446 11.4768 15.916C11.0993 15.7917 10.8471 15.5516 10.6936 15.4023C10.5181 15.2315 10.4448 15.1539 10.3362 15.0898C10.2543 15.0416 10.1248 14.9883 9.87528 14.9883C9.81895 14.9884 9.73777 15.0077 9.57646 15.1221C9.49336 15.181 9.41058 15.2486 9.30106 15.3379C9.20017 15.4202 9.07275 15.5245 8.93485 15.6172C8.65192 15.8074 8.24141 16.0087 7.71903 15.9385C7.22076 15.8713 6.77139 15.5765 6.34306 15.1445C6.17536 14.9755 6.09746 14.9631 6.08427 14.9609C6.05535 14.9563 5.97665 14.9533 5.76103 15.0312C5.52067 15.1182 5.29037 15.2312 4.87626 15.4043C4.49302 15.5645 4.02824 15.7412 3.45634 15.8896L3.36356 15.9131H3.26786C2.65794 15.913 2.12183 15.7543 1.74052 15.3887C1.3537 15.0174 1.23136 14.5346 1.25224 14.1143L1.26298 13.9785C1.29758 13.6588 1.40084 13.3194 1.59892 13.0312C1.8371 12.685 2.23777 12.3898 2.78056 12.3896L2.86942 12.3818C2.95135 12.3645 3.01767 12.3155 3.09403 12.2041C3.22321 12.0155 3.34251 11.6857 3.42411 11.1855C3.58658 10.1898 3.55453 8.86099 3.51981 7.52734C3.50671 7.02394 3.49345 6.52217 3.49345 6.05859C3.49345 2.87672 5.98873 0.250257 9.12235 0.25ZM9.12235 1.75C6.86791 1.75026 4.99345 3.65347 4.99345 6.05859C4.99345 6.49897 5.00561 6.98028 5.01884 7.48828C5.05232 8.77434 5.09465 10.2615 4.90458 11.4268C4.8099 12.007 4.64526 12.5946 4.33134 13.0527C3.99853 13.5381 3.49552 13.8717 2.83036 13.8877C2.81615 13.9101 2.79816 13.9466 2.78251 13.998C2.76537 14.0545 2.7537 14.1208 2.75028 14.1895C2.74625 14.2729 2.76982 14.2972 2.7786 14.3057C2.79136 14.3179 2.8838 14.396 3.17509 14.4102C3.61332 14.2908 3.97884 14.1539 4.29814 14.0205C4.60927 13.8905 4.97207 13.7221 5.25126 13.6211C5.5532 13.5119 5.92367 13.4137 6.33134 13.4814C6.75397 13.5519 7.10211 13.7799 7.40849 14.0889C7.72805 14.4111 7.8892 14.448 7.91923 14.4521C7.92541 14.4533 7.96288 14.4628 8.09794 14.3721C8.1706 14.3232 8.24855 14.2616 8.3538 14.1758C8.45045 14.097 8.576 13.9929 8.70927 13.8984C8.98081 13.706 9.36946 13.4885 9.87528 13.4883C10.3752 13.4883 10.7711 13.6054 11.0989 13.7988C11.3993 13.9762 11.6214 14.2122 11.7395 14.3271C11.8791 14.463 11.9208 14.483 11.9456 14.4912C11.9568 14.4949 12.045 14.5227 12.304 14.4482C12.777 14.2805 13.0034 13.9681 13.1243 13.6758C13.1875 13.5229 13.2195 13.3781 13.2356 13.2725C13.2435 13.2207 13.2477 13.1803 13.2493 13.1562L13.2503 13.1377V6.05859C13.2503 3.65348 11.3768 1.75027 9.12235 1.75ZM9.68974 8.58789C10.2285 8.58812 10.6653 9.26751 10.6653 10.1055C10.6652 10.9433 10.2284 11.6228 9.68974 11.623C9.15094 11.623 8.71424 10.9434 8.71415 10.1055C8.71415 9.26737 9.15089 8.58789 9.68974 8.58789ZM8.22587 4.54102C8.76472 4.54102 9.20146 5.2205 9.20146 6.05859C9.20143 6.89666 8.7647 7.57617 8.22587 7.57617C7.68708 7.5761 7.25031 6.89661 7.25028 6.05859C7.25028 5.22054 7.68706 4.54109 8.22587 4.54102ZM11.1526 4.54102C11.6915 4.54102 12.1282 5.2205 12.1282 6.05859C12.1282 6.89666 11.6915 7.57617 11.1526 7.57617C10.614 7.57588 10.1771 6.89648 10.177 6.05859C10.177 5.22068 10.6139 4.54131 11.1526 4.54102Z" fill="white"/>
</svg>
