<svg width="16" height="16" viewBox="0 0 16 16" fill="none" xmlns="http://www.w3.org/2000/svg">
<path d="M9.12236 0.25C12.256 0.250267 14.7503 2.87673 14.7503 6.05859V13.1396H14.0003C14.6937 13.1396 14.7463 13.1403 14.7503 13.1406V13.1562C14.7502 13.163 14.7496 13.1711 14.7493 13.1807C14.7487 13.2003 14.7475 13.2263 14.7454 13.2568C14.7413 13.3178 14.734 13.4001 14.719 13.498C14.6894 13.6926 14.6296 13.9586 14.5101 14.248C14.2661 14.8382 13.763 15.5329 12.7815 15.8721L12.7659 15.8779L12.7503 15.8818C12.2886 16.0191 11.8678 16.0446 11.4768 15.916C11.0992 15.7917 10.8471 15.5516 10.6936 15.4023C10.518 15.2315 10.4448 15.1539 10.3362 15.0898C10.2543 15.0416 10.125 14.9883 9.87529 14.9883C9.81894 14.9884 9.73793 15.0076 9.57646 15.1221C9.49332 15.181 9.41064 15.2485 9.30107 15.3379C9.20015 15.4202 9.0728 15.5244 8.93486 15.6172C8.65192 15.8074 8.24148 16.0087 7.71904 15.9385C7.22069 15.8714 6.77144 15.5766 6.34306 15.1445C6.1753 14.9754 6.09747 14.9631 6.08427 14.9609C6.05549 14.9563 5.97706 14.9531 5.76103 15.0312C5.52061 15.1182 5.29045 15.2312 4.87626 15.4043C4.493 15.5645 4.02831 15.7412 3.45634 15.8896L3.36357 15.9131H3.26786C2.65787 15.913 2.12186 15.7544 1.74052 15.3887C1.35363 15.0174 1.23136 14.5347 1.25224 14.1143L1.26298 13.9785C1.29758 13.6588 1.40081 13.3194 1.59892 13.0312C1.83712 12.685 2.23768 12.3898 2.78056 12.3896L2.86943 12.3818C2.95138 12.3645 3.01765 12.3155 3.09404 12.2041C3.22322 12.0155 3.34251 11.6857 3.42411 11.1855C3.58658 10.1898 3.55453 8.86099 3.51982 7.52734C3.50671 7.02394 3.49345 6.52217 3.49345 6.05859C3.49345 2.87667 5.98865 0.250161 9.12236 0.25ZM9.12236 1.75C6.86783 1.75016 4.99345 3.65341 4.99345 6.05859C4.99345 6.49897 5.00562 6.98028 5.01884 7.48828C5.05232 8.77434 5.09465 10.2615 4.90458 11.4268C4.8099 12.0071 4.64526 12.5946 4.33134 13.0527C3.99853 13.5382 3.49556 13.8717 2.83036 13.8877C2.81615 13.9101 2.79818 13.9465 2.78251 13.998C2.76536 14.0545 2.7537 14.1208 2.75029 14.1895C2.74624 14.2732 2.76989 14.2973 2.77861 14.3057C2.79137 14.3179 2.88367 14.396 3.17509 14.4102C3.61339 14.2908 3.97881 14.154 4.29814 14.0205C4.60933 13.8904 4.97205 13.7221 5.25126 13.6211C5.55325 13.5119 5.9236 13.4136 6.33134 13.4814C6.75402 13.5519 7.10209 13.7799 7.40849 14.0889C7.72865 14.4117 7.88964 14.4481 7.91923 14.4521C7.92541 14.4533 7.96278 14.4629 8.09794 14.3721C8.17063 14.3232 8.2485 14.2616 8.3538 14.1758C8.45048 14.0969 8.57596 13.993 8.70927 13.8984C8.98084 13.706 9.36938 13.4884 9.87529 13.4883C10.3753 13.4883 10.7711 13.6054 11.0989 13.7988C11.3994 13.9763 11.6214 14.2122 11.7395 14.3271C11.8794 14.4633 11.9208 14.483 11.9456 14.4912C11.9568 14.4949 12.0449 14.5227 12.304 14.4482C12.7771 14.2805 13.0034 13.9681 13.1243 13.6758C13.1875 13.5229 13.2195 13.3781 13.2356 13.2725C13.2435 13.2207 13.2477 13.1803 13.2493 13.1562L13.2503 13.1377V6.05859C13.2503 3.65348 11.3768 1.75027 9.12236 1.75ZM10.0979 8.58789C10.6368 8.58789 11.0735 9.26737 11.0735 10.1055C11.0734 10.9434 10.6367 11.623 10.0979 11.623C9.55916 11.623 9.12245 10.9434 9.12236 10.1055C9.12236 9.26738 9.5591 8.58791 10.0979 8.58789ZM8.63407 4.54102C9.17292 4.54102 9.60966 5.2205 9.60966 6.05859C9.60964 6.89666 9.17291 7.57617 8.63407 7.57617C8.09541 7.57586 7.65851 6.89646 7.65849 6.05859C7.65849 5.22069 8.0954 4.54133 8.63407 4.54102ZM11.5618 4.54102C12.1005 4.5413 12.5374 5.22067 12.5374 6.05859C12.5374 6.89648 12.1005 7.57589 11.5618 7.57617C11.023 7.57617 10.5862 6.89666 10.5862 6.05859C10.5862 5.2205 11.023 4.54102 11.5618 4.54102Z" fill="white"/>
</svg>
