<svg width="16" height="16" viewBox="0 0 16 16" fill="none" xmlns="http://www.w3.org/2000/svg">
<path d="M9.12207 0.25C12.2557 0.250267 14.75 2.87673 14.75 6.05859V13.1396H14C14.6934 13.1396 14.746 13.1403 14.75 13.1406V13.1562C14.7499 13.163 14.7493 13.1711 14.749 13.1807C14.7484 13.2003 14.7472 13.2263 14.7451 13.2568C14.741 13.3178 14.7337 13.4001 14.7188 13.498C14.6891 13.6926 14.6294 13.9586 14.5098 14.248C14.2658 14.8382 13.7627 15.5329 12.7812 15.8721L12.7656 15.8779L12.75 15.8818C12.2883 16.0191 11.8675 16.0446 11.4766 15.916C11.099 15.7917 10.8468 15.5516 10.6934 15.4023C10.5177 15.2315 10.4445 15.1539 10.3359 15.0898C10.254 15.0416 10.1247 14.9883 9.875 14.9883C9.81866 14.9884 9.73764 15.0076 9.57617 15.1221C9.49303 15.181 9.41035 15.2485 9.30078 15.3379C9.19987 15.4202 9.07251 15.5244 8.93457 15.6172C8.65164 15.8074 8.2412 16.0087 7.71875 15.9385C7.22041 15.8714 6.77116 15.5766 6.34277 15.1445C6.17502 14.9754 6.09718 14.9631 6.08398 14.9609C6.0552 14.9563 5.97678 14.9531 5.76074 15.0312C5.52033 15.1182 5.29017 15.2312 4.87598 15.4043C4.49271 15.5645 4.02803 15.7412 3.45605 15.8896L3.36328 15.9131H3.26758C2.65758 15.913 2.12158 15.7544 1.74023 15.3887C1.35334 15.0174 1.23108 14.5347 1.25195 14.1143L1.2627 13.9785C1.2973 13.6588 1.40052 13.3194 1.59863 13.0312C1.83684 12.685 2.2374 12.3898 2.78027 12.3896L2.86914 12.3818C2.95109 12.3645 3.01737 12.3155 3.09375 12.2041C3.22293 12.0155 3.34222 11.6857 3.42383 11.1855C3.5863 10.1898 3.55425 8.86099 3.51953 7.52734C3.50643 7.02394 3.49317 6.52217 3.49316 6.05859C3.49316 2.87667 5.98837 0.250161 9.12207 0.25ZM9.12207 1.75C6.86755 1.75016 4.99316 3.65341 4.99316 6.05859C4.99317 6.49897 5.00533 6.98028 5.01855 7.48828C5.05203 8.77434 5.09437 10.2615 4.9043 11.4268C4.80961 12.0071 4.64498 12.5946 4.33105 13.0527C3.99824 13.5382 3.49527 13.8717 2.83008 13.8877C2.81586 13.9101 2.79789 13.9465 2.78223 13.998C2.76508 14.0545 2.75342 14.1208 2.75 14.1895C2.74595 14.2732 2.7696 14.2973 2.77832 14.3057C2.79108 14.3179 2.88338 14.396 3.1748 14.4102C3.6131 14.2908 3.97853 14.154 4.29785 14.0205C4.60905 13.8904 4.97176 13.7221 5.25098 13.6211C5.55296 13.5119 5.92332 13.4136 6.33105 13.4814C6.75373 13.5519 7.1018 13.7799 7.4082 14.0889C7.72836 14.4117 7.88936 14.4481 7.91895 14.4521C7.92513 14.4533 7.9625 14.4629 8.09766 14.3721C8.17034 14.3232 8.24821 14.2616 8.35352 14.1758C8.4502 14.0969 8.57567 13.993 8.70898 13.8984C8.98056 13.706 9.36909 13.4884 9.875 13.4883C10.375 13.4883 10.7708 13.6054 11.0986 13.7988C11.3991 13.9763 11.6212 14.2122 11.7393 14.3271C11.8791 14.4633 11.9205 14.483 11.9453 14.4912C11.9565 14.4949 12.0446 14.5227 12.3037 14.4482C12.7768 14.2805 13.0031 13.9681 13.124 13.6758C13.1872 13.5229 13.2192 13.3781 13.2354 13.2725C13.2432 13.2207 13.2474 13.1803 13.249 13.1562L13.25 13.1377V6.05859C13.25 3.65348 11.3765 1.75027 9.12207 1.75ZM10.0977 8.58789C10.6365 8.58789 11.0732 9.26737 11.0732 10.1055C11.0732 10.9434 10.6364 11.623 10.0977 11.623C9.55887 11.623 9.12216 10.9434 9.12207 10.1055C9.12207 9.26738 9.55882 8.58791 10.0977 8.58789ZM8.63379 4.54102C9.17264 4.54102 9.60938 5.2205 9.60938 6.05859C9.60935 6.89666 9.17262 7.57617 8.63379 7.57617C8.09513 7.57586 7.65823 6.89646 7.6582 6.05859C7.6582 5.22069 8.09511 4.54133 8.63379 4.54102ZM11.5615 4.54102C12.1002 4.5413 12.5371 5.22067 12.5371 6.05859C12.5371 6.89648 12.1002 7.57589 11.5615 7.57617C11.0227 7.57617 10.586 6.89666 10.5859 6.05859C10.5859 5.2205 11.0227 4.54102 11.5615 4.54102Z" fill="white" fill-opacity="0.4"/>
</svg>
