<svg width="16" height="16" viewBox="0 0 16 16" fill="none" xmlns="http://www.w3.org/2000/svg">
<path d="M9.12236 0.25C12.256 0.250267 14.7503 2.87673 14.7503 6.05859V13.1396H14.0003C14.7014 13.1396 14.7473 13.1403 14.7503 13.1406V13.1562C14.7502 13.163 14.7496 13.1711 14.7493 13.1807C14.7487 13.2003 14.7475 13.2263 14.7454 13.2568C14.7413 13.3178 14.734 13.4001 14.719 13.498C14.6894 13.6926 14.6296 13.9586 14.5101 14.248C14.2661 14.8382 13.763 15.5328 12.7815 15.8721L12.7659 15.8779L12.7503 15.8818C12.2885 16.0191 11.8678 16.0446 11.4768 15.916C11.0992 15.7917 10.8471 15.5517 10.6936 15.4023C10.518 15.2314 10.4448 15.1539 10.3362 15.0898C10.2543 15.0415 10.1251 14.9883 9.87529 14.9883C9.81894 14.9884 9.73804 15.0075 9.57646 15.1221C9.49329 15.181 9.41067 15.2485 9.30107 15.3379C9.20014 15.4202 9.07283 15.5244 8.93486 15.6172C8.65192 15.8074 8.24153 16.0087 7.71904 15.9385C7.22065 15.8714 6.77148 15.5766 6.34306 15.1445C6.17526 14.9753 6.09747 14.9631 6.08427 14.9609C6.05558 14.9563 5.97735 14.953 5.76103 15.0312C5.52058 15.1182 5.29051 15.2312 4.87626 15.4043C4.49298 15.5645 4.02836 15.7412 3.45634 15.8896L3.36357 15.9131H3.26786C2.65782 15.9131 2.12189 15.7544 1.74052 15.3887C1.35358 15.0174 1.23136 14.5347 1.25224 14.1143L1.26298 13.9785C1.29759 13.6587 1.40078 13.3194 1.59892 13.0312C1.83714 12.6849 2.23762 12.3897 2.78056 12.3896L2.86943 12.3818C2.95139 12.3645 3.01764 12.3156 3.09404 12.2041C3.22322 12.0155 3.34251 11.6857 3.42411 11.1855C3.58658 10.1898 3.55453 8.86099 3.51982 7.52734C3.50671 7.02393 3.49345 6.52217 3.49345 6.05859C3.49345 2.87663 5.9886 0.250097 9.12236 0.25ZM9.12236 1.75C6.86778 1.7501 4.99345 3.65337 4.99345 6.05859C4.99345 6.49897 5.00562 6.98028 5.01884 7.48828C5.05232 8.77434 5.09466 10.2615 4.90458 11.4268C4.8099 12.0071 4.64527 12.5946 4.33134 13.0527C3.99853 13.5382 3.49558 13.8717 2.83036 13.8877C2.81614 13.9101 2.79819 13.9465 2.78251 13.998C2.76536 14.0545 2.7537 14.1208 2.75029 14.1895C2.74623 14.2734 2.76994 14.2973 2.77861 14.3057C2.79137 14.3179 2.88358 14.396 3.17509 14.4102C3.61343 14.2907 3.97879 14.154 4.29814 14.0205C4.60937 13.8904 4.97204 13.7221 5.25126 13.6211C5.55327 13.5119 5.92356 13.4136 6.33134 13.4814C6.75404 13.5519 7.10207 13.7798 7.40849 14.0889C7.72906 14.4121 7.88994 14.4482 7.91923 14.4521C7.92542 14.4533 7.96272 14.463 8.09794 14.3721C8.17064 14.3232 8.24846 14.2617 8.3538 14.1758C8.4505 14.0969 8.57593 13.993 8.70927 13.8984C8.98086 13.7059 9.36932 13.4884 9.87529 13.4883C10.3753 13.4883 10.7711 13.6054 11.0989 13.7988C11.3994 13.9763 11.6215 14.2122 11.7395 14.3271C11.8796 14.4634 11.9208 14.483 11.9456 14.4912C11.9568 14.4949 12.0448 14.5228 12.304 14.4482C12.7771 14.2805 13.0034 13.9681 13.1243 13.6758C13.1875 13.5229 13.2195 13.3781 13.2356 13.2725C13.2435 13.2207 13.2477 13.1803 13.2493 13.1562L13.2503 13.1377V6.05859C13.2503 3.65348 11.3768 1.75027 9.12236 1.75ZM9.68974 8.58789C10.2285 8.58812 10.6653 9.26751 10.6653 10.1055C10.6652 10.9433 10.2284 11.6228 9.68974 11.623C9.15095 11.623 8.71425 10.9434 8.71415 10.1055C8.71415 9.26737 9.15089 8.58789 9.68974 8.58789ZM8.22587 4.54102C8.76472 4.54102 9.20146 5.2205 9.20146 6.05859C9.20143 6.89666 8.76471 7.57617 8.22587 7.57617C7.68708 7.5761 7.25031 6.89661 7.25029 6.05859C7.25029 5.22054 7.68706 4.54109 8.22587 4.54102ZM11.1526 4.54102C11.6915 4.54102 12.1282 5.2205 12.1282 6.05859C12.1282 6.89666 11.6915 7.57617 11.1526 7.57617C10.614 7.57588 10.1771 6.89648 10.177 6.05859C10.177 5.22068 10.6139 4.54131 11.1526 4.54102Z" fill="#EA9794"/>
</svg>
