<svg width="16" height="16" viewBox="0 0 16 16" fill="none" xmlns="http://www.w3.org/2000/svg">
<g clip-path="url(#clip0_2982_28476)">
<path d="M8 0C12.4183 0 16 3.58172 16 8C16 12.4183 12.4183 16 8 16C3.58172 16 0 12.4183 0 8C0 3.58172 3.58172 0 8 0ZM8 1.5C4.41015 1.5 1.5 4.41015 1.5 8C1.5 11.5899 4.41015 14.5 8 14.5C11.5899 14.5 14.5 11.5899 14.5 8C14.5 4.41015 11.5899 1.5 8 1.5ZM8.99902 6.55859V10.5H10.5V12H5.99902V10.5H7.44043V8.60547C7.44043 8.29222 7.48525 8.08538 7.5752 7.98535C7.64273 7.90781 7.73636 7.8507 7.85645 7.81445L7.98535 7.78516H5.99902L6.00098 6.54492L8.99902 6.55859ZM8.2002 3.58984C8.4734 3.5899 8.7046 3.68043 8.89453 3.86035C9.08778 4.03695 9.18449 4.28313 9.18457 4.59961C9.18457 4.90628 9.08631 5.15008 8.88965 5.33008C8.69642 5.5099 8.46667 5.59956 8.2002 5.59961C7.92689 5.59961 7.69332 5.51004 7.5 5.33008C7.31 5.15008 7.21484 4.90628 7.21484 4.59961C7.21492 4.28988 7.31174 4.04514 7.50488 3.86523C7.69821 3.6819 7.9302 3.58984 8.2002 3.58984Z" fill="white"/>
</g>
<defs>
<clipPath id="clip0_2982_28476">
<rect width="16" height="16" fill="white"/>
</clipPath>
</defs>
</svg>
