<svg width="16" height="16" viewBox="0 0 16 16" fill="none" xmlns="http://www.w3.org/2000/svg">
<g clip-path="url(#clip0_2999_30386)">
<path d="M8.00098 1C10.115 1.00007 12.065 1.51283 13.5117 2.38086C14.9436 3.24004 15.999 4.53165 15.999 6.09961C15.9989 7.66744 14.9435 8.95923 13.5117 9.81836C12.2363 10.5836 10.5694 11.0708 8.74414 11.1758C8.66899 12.8379 7.64123 14.0024 6.35547 14.5752C5.04584 15.1585 3.41407 15.164 2.08594 14.4883C1.71677 14.3004 1.56996 13.8487 1.75781 13.4795C1.94568 13.1105 2.39652 12.9636 2.76562 13.1514C3.66776 13.6104 4.82453 13.6151 5.74512 13.2051C6.58427 12.8313 7.17522 12.1444 7.24512 11.1758C5.4245 11.0694 3.76187 10.5819 2.48926 9.81836C1.05744 8.95923 0.00208041 7.66744 0.00195312 6.09961C0.00195312 4.53165 1.05735 3.24004 2.48926 2.38086C3.93608 1.51275 5.8868 1 8.00098 1ZM8.00098 2.5C6.1119 2.5 4.43738 2.96098 3.26074 3.66699C2.06925 4.38195 1.50195 5.26553 1.50195 6.09961C1.50206 6.80747 1.91158 7.54964 2.76367 8.19531C3.48822 7.13214 4.81983 6.79087 5.9834 7.08203C7.1445 7.37261 8.17828 8.27263 8.57617 9.68164C10.2286 9.59862 11.6846 9.16465 12.7402 8.53125C13.9315 7.81639 14.4989 6.93358 14.499 6.09961C14.499 5.26552 13.9318 4.38195 12.7402 3.66699C11.5637 2.96104 9.88987 2.50007 8.00098 2.5ZM5.61914 8.53711C5.00102 8.38248 4.42934 8.53878 4.08301 8.94824C4.90782 9.30234 5.88914 9.55273 6.9668 9.65137C6.65508 9.02193 6.13189 8.66543 5.61914 8.53711Z" fill="white"/>
</g>
<defs>
<clipPath id="clip0_2999_30386">
<rect width="16" height="16" fill="white"/>
</clipPath>
</defs>
</svg>
