<svg width="32" height="32" viewBox="0 0 32 32" fill="none" xmlns="http://www.w3.org/2000/svg">
<g clip-path="url(#clip0_2992_29928)">
<path d="M8.48828 20.7295C9.55847 19.2569 11.6199 18.9311 13.0928 20.001C14.5656 21.0711 14.8931 23.1325 13.8232 24.6055C12.753 26.0783 10.6907 26.4051 9.21777 25.335C7.74489 24.2648 7.41832 22.2024 8.48828 20.7295Z" fill="#444444"/>
<path d="M18.9072 20.001C20.3801 18.9311 22.4415 19.2569 23.5117 20.7295C24.5817 22.2024 24.2551 24.2648 22.7822 25.335C21.3093 26.4051 19.247 26.0783 18.1768 24.6055C17.1069 23.1325 17.4344 21.0711 18.9072 20.001Z" fill="#444444"/>
<path d="M5.02637 12.4346C5.58895 10.7031 7.44919 9.75501 9.18066 10.3174C10.9119 10.8801 11.8593 12.7403 11.2969 14.4717C10.7343 16.2031 8.87497 17.1511 7.14355 16.5889C5.41201 16.0263 4.46382 14.1661 5.02637 12.4346Z" fill="#444444"/>
<path d="M22.8193 10.3174C24.5508 9.75501 26.411 10.7031 26.9736 12.4346C27.5362 14.1661 26.588 16.0263 24.8564 16.5889C23.125 17.1511 21.2657 16.2031 20.7031 14.4717C20.1407 12.7403 21.0881 10.8801 22.8193 10.3174Z" fill="#444444"/>
<path d="M16 4.46191C17.8207 4.46191 19.2969 5.9381 19.2969 7.75879C19.2966 9.57929 17.8206 11.0547 16 11.0547C14.1794 11.0547 12.7034 9.57929 12.7031 7.75879C12.7031 5.9381 14.1793 4.46191 16 4.46191Z" fill="#444444"/>
<path fill-rule="evenodd" clip-rule="evenodd" d="M16 0C24.8366 0 32 7.16344 32 16C32 24.8366 24.8366 32 16 32C7.16344 32 0 24.8366 0 16C0 7.16344 7.16344 0 16 0ZM16 2C8.26801 2 2 8.26801 2 16C2 23.732 8.26801 30 16 30C23.732 30 30 23.732 30 16C30 8.26801 23.732 2 16 2Z" fill="#444444"/>
</g>
<defs>
<clipPath id="clip0_2992_29928">
<rect width="32" height="32" fill="white"/>
</clipPath>
</defs>
</svg>
