<svg width="16" height="16" viewBox="0 0 16 16" fill="none" xmlns="http://www.w3.org/2000/svg">
<g clip-path="url(#clip0_3057_31104)">
<path d="M3.75003 6.32328C4.04255 6.03058 4.51749 6.03016 4.81058 6.3223C5.10355 6.61484 5.10388 7.09067 4.81156 7.38382L2.66605 9.53226C2.16865 10.0378 1.8917 10.7205 1.89457 11.4297C1.89753 12.1387 2.1804 12.8179 2.68168 13.3194C3.18318 13.8208 3.86312 14.1046 4.5723 14.1075C5.28137 14.1102 5.96332 13.8323 6.46878 13.335L8.61332 11.1866C8.90598 10.8936 9.38178 10.893 9.67484 11.1856C9.96746 11.4782 9.96711 11.9531 9.67484 12.2461L7.52543 14.3994L7.52054 14.4043C6.73307 15.179 5.67108 15.6118 4.56644 15.6075C3.46155 15.603 2.40244 15.1612 1.62113 14.3799C0.839984 13.5986 0.399075 12.5404 0.394566 11.4356C0.390088 10.3307 0.822771 9.26815 1.59769 8.4805L1.60062 8.47757H1.6016L3.75003 6.32328ZM9.76078 5.17679C10.0535 4.88415 10.5284 4.88435 10.8213 5.17679C11.1141 5.46966 11.1141 5.94447 10.8213 6.23734L6.23636 10.8223C5.94349 11.115 5.46867 11.115 5.17582 10.8223C4.88339 10.5294 4.88321 10.0545 5.17582 9.76175L9.76078 5.17679ZM11.4346 0.396518C12.5394 0.401028 13.5976 0.841937 14.3789 1.62308C15.1602 2.4044 15.602 3.46347 15.6065 4.56839C15.6108 5.67306 15.1781 6.735 14.4034 7.5225L14.3985 7.52738L12.2452 9.67679C11.9521 9.96909 11.4772 9.96948 11.1846 9.67679C10.892 9.38373 10.8927 8.90794 11.1856 8.61527L13.334 6.46976C13.8311 5.96432 14.1093 5.28314 14.1065 4.57425C14.1036 3.86504 13.8199 3.18514 13.3184 2.68363C12.817 2.18235 12.1378 1.89948 11.4287 1.89652C10.7196 1.89367 10.0378 2.1716 9.53226 2.66898L7.38285 4.81351C7.08967 5.10586 6.61385 5.10557 6.32132 4.81253C6.02919 4.51945 6.0296 4.04451 6.3223 3.75199L8.4766 1.60355L8.47953 1.59964C9.26716 0.82474 10.3297 0.392059 11.4346 0.396518Z" fill="white" fill-opacity="0.4"/>
</g>
<defs>
<clipPath id="clip0_3057_31104">
<rect width="16" height="16" fill="white"/>
</clipPath>
</defs>
</svg>
