<svg width="16" height="16" viewBox="0 0 16 16" fill="none" xmlns="http://www.w3.org/2000/svg">
<g clip-path="url(#clip0_3006_30456)">
<path d="M12.1641 0.240234C12.4569 -0.0525945 12.9317 -0.052466 13.2246 0.240234L13.7207 0.736328C13.7245 0.739987 13.7287 0.743316 13.7324 0.74707C13.7358 0.750447 13.7389 0.754388 13.7422 0.757812L15.2383 2.25391C15.2436 2.25894 15.2497 2.26334 15.2549 2.26855C15.2598 2.27346 15.2638 2.27918 15.2686 2.28418L15.7607 2.77637C16.0536 3.06926 16.0536 3.54402 15.7607 3.83691C15.4755 4.12198 15.0188 4.12872 14.7246 3.8584L11.2041 7.37891C11.875 8.78405 11.8853 10.4516 10.79 11.5469L10.7891 11.5488C10.509 11.8276 10.1747 12.0455 9.80762 12.1914L9.80859 12.1924C9.75847 12.2133 9.71508 12.2481 9.68457 12.293C9.65412 12.3379 9.63761 12.3911 9.63672 12.4453V12.4561C9.60756 13.3811 9.28354 14.2703 8.60938 14.9453V14.9463C7.73291 15.8226 6.50443 16.1006 5.30078 15.9287C4.09725 15.7568 2.8674 15.1346 1.86719 14.1348C0.866861 13.1348 0.245111 11.9048 0.0732422 10.7012C-0.0986086 9.49737 0.179355 8.26905 1.05566 7.39258V7.3916C1.73065 6.71745 2.61961 6.39496 3.54199 6.36133H3.55664C3.6109 6.3604 3.66409 6.34395 3.70898 6.31348C3.75386 6.28299 3.7887 6.23952 3.80957 6.18945C3.95611 5.82344 4.17546 5.49096 4.4541 5.21191V5.21094C5.54952 4.11551 7.2218 4.12714 8.62207 4.7959L12.1416 1.27637C11.8721 0.982151 11.8793 0.525219 12.1641 0.240234ZM7.46875 5.94922C6.64428 5.70323 5.92417 5.86338 5.51562 6.27148C5.37867 6.40863 5.27046 6.57269 5.19922 6.75293L5.19531 6.76465H5.19434C5.06138 7.08455 4.8383 7.35901 4.55176 7.55371C4.26698 7.74715 3.93199 7.85338 3.58789 7.86035C3.0593 7.8811 2.60772 8.04185 2.25977 8.32422L2.11621 8.45312C1.64865 8.92086 1.43594 9.63688 1.55762 10.4893C1.67937 11.3419 2.13516 12.2808 2.92773 13.0732C3.7206 13.8658 4.66004 14.3215 5.5127 14.4434C6.3651 14.5651 7.08114 14.3524 7.54883 13.8848C7.91277 13.52 8.11764 13.0142 8.13672 12.4092C8.14454 12.0667 8.25176 11.7337 8.44434 11.4502C8.63906 11.1636 8.91343 10.9396 9.2334 10.8066L9.24707 10.8008C9.42768 10.73 9.59187 10.623 9.72949 10.4863C10.138 10.0778 10.2972 9.35434 10.0518 8.53125L9.10547 9.47754C8.94213 10.572 8.0011 11.4121 6.86133 11.4121C5.6068 11.412 4.58984 10.3942 4.58984 9.13965C4.59015 8.0006 5.42897 7.05929 6.52246 6.89551L7.46875 5.94922ZM2.7793 10.1309C3.07211 9.83804 3.54693 9.8382 3.83984 10.1309L5.86914 12.1602C6.16175 12.4531 6.16194 12.9279 5.86914 13.2207C5.57632 13.5132 5.10142 13.5132 4.80859 13.2207L2.7793 11.1914C2.48672 10.8986 2.48674 10.4237 2.7793 10.1309ZM6.86133 8.36816C6.43543 8.36831 6.09019 8.7138 6.08984 9.13965C6.08984 9.56579 6.43522 9.91196 6.86133 9.91211C7.28753 9.91207 7.63379 9.56586 7.63379 9.13965C7.63345 8.71373 7.28732 8.3682 6.86133 8.36816ZM8.21777 7.32129C8.39312 7.4522 8.54856 7.60706 8.67969 7.78223L13.6631 2.7998L13.2012 2.33789L8.21777 7.32129Z" fill="white"/>
</g>
<defs>
<clipPath id="clip0_3006_30456">
<rect width="16" height="16" fill="white"/>
</clipPath>
</defs>
</svg>
