<svg width="16" height="16" viewBox="0 0 16 16" fill="none" xmlns="http://www.w3.org/2000/svg">
<g clip-path="url(#clip0_3006_30473)">
<path d="M12.1644 0.238983C12.4572 -0.0536881 12.9321 -0.0535508 13.225 0.238983L15.7611 2.77512C16.054 3.06797 16.0539 3.54276 15.7611 3.83566C15.4758 4.12096 15.0192 4.12764 14.725 3.85715L11.2045 7.37766C11.8755 8.78276 11.8856 10.4502 10.7904 11.5456L10.7894 11.5476C10.5094 11.8263 10.175 12.0442 9.80799 12.1902L9.80897 12.1911C9.75892 12.212 9.71546 12.2469 9.68494 12.2917C9.65451 12.3366 9.63804 12.3899 9.63709 12.4441V12.4548C9.60797 13.3798 9.28379 14.2691 8.60975 14.9441V14.945C7.73331 15.8214 6.5048 16.0993 5.30116 15.9275C4.0976 15.7555 2.86779 15.1334 1.86756 14.1335C0.867227 13.1335 0.245452 11.9036 0.0736166 10.6999C-0.0981628 9.49616 0.179728 8.26775 1.05604 7.39133V7.39035C1.731 6.71635 2.62008 6.3937 3.54237 6.36008H3.55702C3.61124 6.35912 3.66449 6.3427 3.70936 6.31223C3.75415 6.28172 3.78912 6.23823 3.80994 6.1882C3.9565 5.82228 4.17588 5.48965 4.45448 5.21066V5.20969C5.55 4.1144 7.22221 4.12674 8.62244 4.79562L12.143 1.27512C11.8731 0.980844 11.8794 0.524064 12.1644 0.238983ZM7.4701 5.94797C6.64539 5.70162 5.92474 5.86214 5.516 6.27023C5.37909 6.40731 5.27085 6.57152 5.19959 6.75168L5.19569 6.7634H5.19471C5.0618 7.08326 4.83859 7.35774 4.55213 7.55246C4.26738 7.7459 3.93233 7.8521 3.58827 7.8591C3.05979 7.87984 2.60807 8.04072 2.26014 8.32297L2.11659 8.45187C1.64901 8.91956 1.43638 9.63569 1.55799 10.488C1.67971 11.3406 2.13553 12.2796 2.92811 13.072C3.72099 13.8646 4.66039 14.3203 5.51307 14.4421C6.36548 14.5638 7.08154 14.3512 7.5492 13.8835C7.91303 13.5187 8.11805 13.0129 8.13709 12.4079C8.14497 12.0655 8.25215 11.7324 8.44471 11.4489C8.63943 11.1624 8.91388 10.9383 9.23377 10.8054L9.24744 10.7995C9.42799 10.7288 9.59229 10.6217 9.72987 10.4851C10.1383 10.0765 10.2977 9.35308 10.0521 8.53L9.10584 9.47629C8.94271 10.5709 8.00155 11.4117 6.8617 11.4118C5.60723 11.4117 4.59031 10.3939 4.59022 9.13937C4.59035 8.00013 5.42918 7.05899 6.52284 6.89523L7.4701 5.94797ZM2.77967 10.1296C3.07245 9.83689 3.54731 9.83709 3.84022 10.1296L5.86952 12.1589C6.16211 12.4518 6.16226 12.9266 5.86952 13.2195C5.57672 13.5123 5.10188 13.5121 4.80897 13.2195L2.77967 11.1902C2.48714 10.8972 2.4869 10.4224 2.77967 10.1296ZM6.8617 8.36789C6.43569 8.36804 6.09037 8.71336 6.09022 9.13937C6.09031 9.56543 6.43566 9.91169 6.8617 9.91183C7.2858 9.9117 7.62993 9.56861 7.63319 9.14523C7.63315 9.141 7.63315 9.13677 7.63319 9.13254C7.62945 8.70959 7.2855 8.36803 6.8617 8.36789ZM8.21912 7.32004C8.39419 7.45081 8.5491 7.60607 8.68006 7.78098L13.6635 2.79855L13.2025 2.33762L8.21912 7.32004Z" fill="#EA9794"/>
</g>
<defs>
<clipPath id="clip0_3006_30473">
<rect width="16" height="16" fill="white"/>
</clipPath>
</defs>
</svg>
