<svg width="16" height="16" viewBox="0 0 16 16" fill="none" xmlns="http://www.w3.org/2000/svg">
<path d="M13.8184 1.27228C14.0423 1.21639 14.28 1.26699 14.4619 1.409C14.6437 1.55109 14.7499 1.76911 14.75 1.99982V10.9998C14.75 12.5186 13.5188 13.7498 12 13.7498C10.4812 13.7498 9.25 12.5186 9.25 10.9998C9.25011 9.48113 10.4813 8.24982 12 8.24982C12.4505 8.24982 12.8747 8.36049 13.25 8.55255V5.95978L6.75 7.58478V12.4998C6.75 12.5285 6.74728 12.5569 6.74414 12.5848C6.74539 12.6188 6.75 12.653 6.75 12.6873C6.74991 14.206 5.51873 15.4373 4 15.4373C2.48127 15.4373 1.25009 14.206 1.25 12.6873C1.25 11.1685 2.48122 9.93732 4 9.93732C4.45061 9.93732 4.87466 10.0479 5.25 10.2401V3.99982C5.2501 3.65576 5.48455 3.35573 5.81836 3.27228L13.8184 1.27228ZM4 11.4373C3.30964 11.4373 2.75 11.997 2.75 12.6873C2.75009 13.3776 3.3097 13.9373 4 13.9373C4.6903 13.9373 5.24991 13.3776 5.25 12.6873C5.25 11.997 4.69036 11.4373 4 11.4373ZM12 9.74982C11.3097 9.74982 10.7501 10.3096 10.75 10.9998C10.75 11.6902 11.3096 12.2498 12 12.2498C12.6904 12.2498 13.25 11.6902 13.25 10.9998C13.2499 10.3096 12.6903 9.74982 12 9.74982ZM6.75 4.58478V6.03888L13.25 4.41388V2.95978L6.75 4.58478Z" fill="white"/>
</svg>
