<svg width="16" height="16" viewBox="0 0 16 16" fill="none" xmlns="http://www.w3.org/2000/svg">
<g clip-path="url(#clip0_2988_29236)">
<path d="M8 0.25C8.39479 0.25 8.72897 0.392303 8.99219 0.554688C9.25046 0.71403 9.47944 0.91788 9.66699 1.09375C9.87517 1.28896 10.0206 1.43639 10.1895 1.58203C10.3497 1.72025 10.4659 1.79611 10.5537 1.83301C10.6307 1.86485 10.7586 1.89159 10.9697 1.90527C11.1934 1.91977 11.3922 1.91653 11.6836 1.9248C12.1531 1.93813 12.9346 1.97366 13.4805 2.51953C14.0263 3.06541 14.0619 3.84693 14.0752 4.31641C14.0835 4.6078 14.0802 4.80658 14.0947 5.03027C14.1084 5.24141 14.1352 5.36928 14.167 5.44629C14.2038 5.53483 14.2795 5.6518 14.418 5.8125C14.5632 5.98102 14.7114 6.12638 14.9062 6.33398C15.082 6.52116 15.2859 6.74982 15.4453 7.00781C15.6079 7.27092 15.75 7.60509 15.75 8C15.75 8.39479 15.6077 8.72897 15.4453 8.99219C15.286 9.25046 15.0821 9.47944 14.9062 9.66699C14.711 9.87517 14.5636 10.0206 14.418 10.1895C14.28 10.3494 14.203 10.465 14.166 10.5527L14.167 10.5537C14.1352 10.6307 14.1084 10.7586 14.0947 10.9697C14.0802 11.1934 14.0835 11.3922 14.0752 11.6836C14.0619 12.1531 14.0263 12.9346 13.4805 13.4805C12.9346 14.0263 12.1531 14.0619 11.6836 14.0752C11.3922 14.0835 11.1934 14.0802 10.9697 14.0947C10.7586 14.1084 10.6307 14.1352 10.5537 14.167C10.4659 14.2039 10.3497 14.2797 10.1895 14.418C10.0206 14.5636 9.87517 14.711 9.66699 14.9062C9.47944 15.0821 9.25046 15.286 8.99219 15.4453C8.72897 15.6077 8.39479 15.75 8 15.75C7.60521 15.75 7.27103 15.6077 7.00781 15.4453C6.74954 15.286 6.52056 15.0821 6.33301 14.9062C6.12483 14.711 5.97944 14.5636 5.81055 14.418C5.64911 14.2788 5.53237 14.2026 5.44434 14.166V14.165C5.36745 14.1336 5.23993 14.1083 5.03027 14.0947C4.80673 14.0803 4.60772 14.0835 4.31641 14.0752C3.8469 14.0619 3.06533 14.0263 2.51953 13.4805C1.97366 12.9346 1.93813 12.1531 1.9248 11.6836C1.91653 11.3922 1.91977 11.1934 1.90527 10.9697C1.89159 10.7586 1.86485 10.6307 1.83301 10.5537V10.5527C1.79598 10.465 1.71982 10.3492 1.58203 10.1895C1.43639 10.0206 1.28896 9.87517 1.09375 9.66699C0.91788 9.47944 0.71403 9.25046 0.554688 8.99219C0.392303 8.72897 0.25 8.39479 0.25 8C0.25 7.60521 0.392303 7.27103 0.554688 7.00781C0.71403 6.74954 0.91788 6.52056 1.09375 6.33301C1.28896 6.12483 1.43639 5.97944 1.58203 5.81055C1.72124 5.64911 1.79738 5.53237 1.83398 5.44434C1.8655 5.36748 1.89166 5.24024 1.90527 5.03027C1.91975 4.80673 1.91654 4.60772 1.9248 4.31641C1.93814 3.8469 1.97373 3.06533 2.51953 2.51953C3.06533 1.97373 3.8469 1.93814 4.31641 1.9248C4.60772 1.91654 4.80673 1.91975 5.03027 1.90527C5.241 1.89161 5.36854 1.86565 5.44531 1.83398C5.53396 1.79729 5.65129 1.72093 5.8125 1.58203C5.98102 1.43683 6.12638 1.28865 6.33398 1.09375C6.52116 0.918034 6.74982 0.71407 7.00781 0.554688C7.27092 0.392144 7.60509 0.25 8 0.25ZM8 1.75C7.97424 1.75 7.91337 1.75848 7.7959 1.83105C7.67348 1.90674 7.53594 2.02265 7.36035 2.1875C7.20504 2.33331 6.99023 2.54612 6.79102 2.71777C6.58446 2.89574 6.32592 3.09286 6.01953 3.21973C5.7157 3.34545 5.39429 3.38506 5.12793 3.40234C4.87413 3.4188 4.56588 3.41797 4.35938 3.42383C3.83286 3.43877 3.65337 3.50679 3.58008 3.58008C3.50679 3.65337 3.43877 3.83286 3.42383 4.35938C3.41797 4.56588 3.4188 4.87413 3.40234 5.12793C3.38506 5.39429 3.34545 5.7157 3.21973 6.01953L3.21875 6.02051C3.09179 6.32576 2.8954 6.58406 2.71777 6.79004C2.54657 6.98857 2.33302 7.20322 2.1875 7.3584C2.02277 7.53407 1.90682 7.67219 1.83105 7.79492C1.75833 7.91281 1.75 7.97411 1.75 8C1.75 8.02589 1.75833 8.08719 1.83105 8.20508C1.90682 8.32781 2.02277 8.46593 2.1875 8.6416C2.33302 8.79678 2.54657 9.01143 2.71777 9.20996C2.8954 9.41594 3.09179 9.67424 3.21875 9.97949L3.21973 9.98145C3.34519 10.2851 3.38506 10.6058 3.40234 10.8721C3.41879 11.1258 3.41798 11.4342 3.42383 11.6406C3.43877 12.167 3.50676 12.3466 3.58008 12.4199C3.65337 12.4932 3.83286 12.5612 4.35938 12.5762C4.56588 12.582 4.87413 12.5812 5.12793 12.5977C5.32766 12.6106 5.55815 12.6361 5.78906 12.7012L6.01953 12.7803L6.02051 12.7812C6.32576 12.9082 6.58406 13.1046 6.79004 13.2822C6.98857 13.4534 7.20322 13.667 7.3584 13.8125C7.53407 13.9772 7.67219 14.0932 7.79492 14.1689C7.91281 14.2417 7.97411 14.25 8 14.25C8.02589 14.25 8.08719 14.2417 8.20508 14.1689C8.32781 14.0932 8.46593 13.9772 8.6416 13.8125C8.79678 13.667 9.01143 13.4534 9.20996 13.2822C9.41594 13.1046 9.67424 12.9082 9.97949 12.7812L9.98145 12.7803C10.2851 12.6548 10.6058 12.6149 10.8721 12.5977C11.1258 12.5812 11.4342 12.582 11.6406 12.5762C12.167 12.5612 12.3466 12.4932 12.4199 12.4199C12.4932 12.3466 12.5612 12.167 12.5762 11.6406C12.582 11.4342 12.5812 11.1258 12.5977 10.8721C12.6149 10.6058 12.6548 10.2851 12.7803 9.98145L12.7812 9.97949C12.9082 9.67424 13.1046 9.41594 13.2822 9.20996C13.4534 9.01143 13.667 8.79678 13.8125 8.6416C13.9772 8.46593 14.0932 8.32781 14.1689 8.20508C14.2417 8.08719 14.25 8.02589 14.25 8C14.25 7.97424 14.2415 7.91337 14.1689 7.7959C14.0933 7.67348 13.9773 7.53594 13.8125 7.36035C13.6667 7.20504 13.4539 6.99023 13.2822 6.79102C13.1043 6.58446 12.9071 6.32592 12.7803 6.01953V6.01855C12.6548 5.71489 12.6149 5.39419 12.5977 5.12793C12.5812 4.87421 12.582 4.56583 12.5762 4.35938C12.5612 3.83302 12.4932 3.65339 12.4199 3.58008C12.3466 3.50676 12.167 3.43877 11.6406 3.42383C11.4342 3.41798 11.1258 3.41879 10.8721 3.40234C10.6058 3.38506 10.2851 3.34519 9.98145 3.21973L9.97949 3.21875C9.67424 3.09179 9.41594 2.8954 9.20996 2.71777C9.01143 2.54657 8.79678 2.33302 8.6416 2.1875C8.46593 2.02277 8.32781 1.90682 8.20508 1.83105C8.08719 1.75833 8.02589 1.75 8 1.75ZM7.87988 10.5645C8.11481 10.5645 8.31485 10.6623 8.47363 10.8467L8.53027 10.9189C8.65299 11.0934 8.70989 11.3107 8.70996 11.5615C8.70996 11.8532 8.63631 12.1009 8.47461 12.2891C8.31573 12.4739 8.11511 12.5712 7.87988 12.5713C7.64658 12.5713 7.44696 12.4729 7.28613 12.2891H7.28516C7.12344 12.1009 7.04883 11.8532 7.04883 11.5615C7.04891 11.2748 7.12415 11.0319 7.28613 10.8467L7.34766 10.7822C7.49688 10.6401 7.6756 10.5645 7.87988 10.5645ZM7.99316 4.875C8.36969 4.875 8.69745 4.93051 8.97168 5.04688C9.2412 5.16134 9.46534 5.31638 9.63867 5.51367H9.6377C9.80729 5.70389 9.93112 5.9156 10.0078 6.14844C10.0854 6.37696 10.125 6.60717 10.125 6.83789C10.125 7.10702 10.082 7.3432 9.99219 7.54199C9.90789 7.73107 9.79679 7.89491 9.65723 8.03125C9.52693 8.1582 9.38784 8.27207 9.23926 8.37109L9.2373 8.37207C9.09669 8.46309 8.96271 8.55151 8.83691 8.63965C8.72181 8.72194 8.62857 8.81131 8.55664 8.90723L8.55762 8.9082C8.49729 8.99152 8.46387 9.0972 8.46387 9.23242V9.5127C8.46388 9.58299 8.46826 9.65784 8.47754 9.7373L8.49414 9.87695H7.27441L7.24805 9.78613C7.22323 9.69784 7.20801 9.59824 7.2002 9.48926V9.48828C7.19257 9.37864 7.18848 9.23327 7.18848 9.05371C7.1885 8.84121 7.2286 8.65213 7.31445 8.49414C7.39763 8.34314 7.50398 8.21306 7.63379 8.10547C7.75792 8.00197 7.88864 7.90702 8.02539 7.82031C8.15447 7.7358 8.27631 7.64898 8.39062 7.55957L8.3916 7.55859C8.49998 7.47553 8.58549 7.37995 8.65039 7.27246L8.65137 7.27148C8.71253 7.17344 8.74701 7.04992 8.74707 6.89551C8.74707 6.77457 8.71908 6.6597 8.66406 6.5498L8.66309 6.54688C8.61275 6.44016 8.53379 6.35254 8.42285 6.2832V6.28223C8.32076 6.21719 8.18387 6.17974 8.00488 6.17969C7.79998 6.17969 7.63937 6.22883 7.51562 6.31836C7.3871 6.41142 7.29149 6.53811 7.22852 6.70117C7.16709 6.86396 7.13929 7.049 7.14844 7.25879L7.1543 7.38965H5.90918L5.89551 7.27832C5.85988 6.97165 5.87015 6.67571 5.92676 6.3916V6.39062C5.98657 6.10081 6.10031 5.84167 6.26855 5.61523C6.4391 5.38299 6.66841 5.20275 6.95215 5.07324L7.06445 5.02637C7.33094 4.92441 7.64146 4.87503 7.99316 4.875Z" fill="#EA9794"/>
</g>
<defs>
<clipPath id="clip0_2988_29236">
<rect width="16" height="16" fill="white"/>
</clipPath>
</defs>
</svg>
