<svg width="16" height="16" viewBox="0 0 16 16" fill="none" xmlns="http://www.w3.org/2000/svg">
<path d="M13.7207 2C14.0258 2.00008 14.3141 2.11155 14.5391 2.30469L14.6309 2.3916L14.7139 2.4873C14.8949 2.71854 14.9912 3.00485 14.9912 3.2959V14.2041C14.9911 14.4664 14.8533 14.7099 14.6289 14.8457C14.4044 14.9813 14.1249 14.9899 13.8926 14.8682L12.1582 13.959L10.4238 14.8682C10.2059 14.9822 9.94542 14.9823 9.72754 14.8682L7.99316 13.959L6.25879 14.8682C6.04102 14.9821 5.78127 14.9821 5.56348 14.8682L3.82812 13.959L2.09375 14.8682C1.86133 14.9898 1.58186 14.9815 1.35742 14.8457C1.13308 14.7099 0.996248 14.4663 0.996094 14.2041V3.2959C0.996094 2.9633 1.12227 2.63693 1.35645 2.3916L1.44824 2.30469C1.67322 2.11157 1.96152 2.00003 2.2666 2H13.7207ZM2.49609 12.9639L3.48047 12.4482C3.69843 12.3341 3.9588 12.3341 4.17676 12.4482L5.91113 13.3564L7.64551 12.4482C7.86345 12.3341 8.12386 12.3341 8.3418 12.4482L10.0752 13.3564L11.8105 12.4482L11.8945 12.4111C12.0932 12.3364 12.3162 12.3484 12.5068 12.4482L13.4912 12.9639V3.5H2.49609V12.9639ZM7 5.25C7.41421 5.25 7.75 5.58579 7.75 6V10C7.75 10.4142 7.41421 10.75 7 10.75H4C3.58579 10.75 3.25 10.4142 3.25 10V6C3.25 5.58579 3.58579 5.25 4 5.25H7ZM12 8.25C12.4142 8.25 12.75 8.58579 12.75 9C12.75 9.41421 12.4142 9.75 12 9.75H9C8.58579 9.75 8.25 9.41421 8.25 9C8.25 8.58579 8.58579 8.25 9 8.25H12ZM4.75 9.25H6.25V6.75H4.75V9.25ZM12 6.25C12.4142 6.25 12.75 6.58579 12.75 7C12.75 7.41421 12.4142 7.75 12 7.75H9C8.58579 7.75 8.25 7.41421 8.25 7C8.25 6.58579 8.58579 6.25 9 6.25H12Z" fill="white"/>
</svg>
