<svg width="32" height="32" viewBox="0 0 32 32" fill="none" xmlns="http://www.w3.org/2000/svg">
<g clip-path="url(#clip0_3025_30851)">
<path d="M18 16C18 17.1046 17.1046 18 16 18C14.8954 18 14 17.1046 14 16C14 14.8954 14.8954 14 16 14C17.1046 14 18 14.8954 18 16Z" fill="#828282"/>
<path d="M9.2959 21.3164C10.0412 20.2913 11.4777 20.0644 12.5039 20.8096C13.5303 21.5553 13.7584 22.9919 13.0137 24.0176C12.2681 25.0436 10.8307 25.2716 9.80469 24.5264C8.77865 23.7809 8.55142 22.3436 9.29688 21.3174L9.2959 21.3164ZM19.4941 20.8096C20.5205 20.0643 21.9569 20.2919 22.7021 21.3174C23.4473 22.3436 23.2193 23.781 22.1934 24.5264C21.1674 25.2715 19.731 25.0434 18.9854 24.0176C18.2403 22.9918 18.4677 21.5554 19.4941 20.8096ZM5.97656 12.7432C6.36861 11.5373 7.66425 10.8773 8.87012 11.2686C10.0761 11.6606 10.7366 12.9567 10.3447 14.1631C9.95257 15.3692 8.65701 16.0292 7.45117 15.6377C6.24498 15.2455 5.58476 13.9491 5.97656 12.7432ZM23.127 11.2676C24.333 10.8759 25.6294 11.5371 26.0215 12.7432C26.4133 13.9492 25.7531 15.2455 24.5469 15.6377C23.341 16.0293 22.0455 15.3692 21.6533 14.1631C21.2614 12.9567 21.922 11.6606 23.1279 11.2686L23.127 11.2676ZM15.999 5.46191C17.2674 5.46191 18.2959 6.49038 18.2959 7.75879L18.2842 7.99316C18.1666 9.15107 17.1884 10.0547 15.999 10.0547C14.7306 10.0547 13.7024 9.02677 13.7021 7.75879L13.7139 7.52441C13.8235 6.44314 14.6834 5.58326 15.7646 5.47363L15.999 5.46191Z" fill="#444444" stroke="#444444" stroke-width="2"/>
<circle cx="16" cy="16" r="15" stroke="#444444" stroke-width="2" stroke-linecap="round"/>
</g>
<defs>
<clipPath id="clip0_3025_30851">
<rect width="32" height="32" fill="white"/>
</clipPath>
</defs>
</svg>
