<svg width="16" height="16" viewBox="0 0 16 16" fill="none" xmlns="http://www.w3.org/2000/svg">
<path d="M13.7705 1.00195C14.0958 1.00705 14.2936 1.0276 14.4541 1.10938C14.6421 1.20522 14.7948 1.35793 14.8906 1.5459C14.9996 1.75976 15 2.03982 15 2.59961V13.4004L14.998 13.7705C14.9929 14.0958 14.9724 14.2936 14.8906 14.4541L14.8086 14.5879C14.7163 14.7148 14.5952 14.8187 14.4541 14.8906L14.3701 14.9268C14.2239 14.9789 14.0416 14.9938 13.7705 14.998L13.4004 15H2.59961C2.03982 15 1.75976 14.9996 1.5459 14.8906C1.40484 14.8187 1.28366 14.7148 1.19141 14.5879L1.10938 14.4541C1.0276 14.2936 1.00705 14.0958 1.00195 13.7705L1 13.4004V2.59961C1 2.03982 1.00041 1.75976 1.10938 1.5459C1.20522 1.35793 1.35793 1.20522 1.5459 1.10938C1.75976 1.00041 2.03982 1 2.59961 1H13.4004L13.7705 1.00195ZM2.75 13.5H5.25V10.5H2.75V13.5ZM6.75 13.5H9.25V10.5H6.75V13.5ZM10.75 13.5H13.25V10.5H10.75V13.5ZM2.75 9.5H5.25V6.5H2.75V9.5ZM6.75 9.5H9.25V6.5H6.75V9.5ZM10.75 9.5H13.25V6.5H10.75V9.5ZM2.75 5.5H5.25V2.5H2.75V5.5ZM6.75 5.5H9.25V2.5H6.75V5.5ZM10.75 5.5H13.25V2.5H10.75V5.5Z" fill="white" fill-opacity="0.15"/>
</svg>
