<svg width="16" height="16" viewBox="0 0 16 16" fill="none" xmlns="http://www.w3.org/2000/svg">
<g clip-path="url(#clip0_2977_28105)">
<path d="M16 1.5H15V14.5H16V16H0V14.5H1V1.5H0V0H16V1.5ZM2.5 14.5H13.5V1.5H2.5V14.5ZM7.46094 3.99121C9.37524 3.99147 10.9274 5.54372 10.9277 7.45801C10.9277 8.14374 10.7263 8.78225 10.3828 9.32031L12.0322 10.9697C12.3249 11.2626 12.3251 11.7374 12.0322 12.0303C11.7394 12.3231 11.2646 12.323 10.9717 12.0303L9.32227 10.3809C8.78433 10.7243 8.14648 10.9247 7.46094 10.9248C5.54627 10.9247 3.99414 9.37269 3.99414 7.45801C3.99447 5.5436 5.54647 3.99128 7.46094 3.99121ZM7.46094 5.49121C6.3749 5.49128 5.49447 6.37203 5.49414 7.45801C5.49414 8.54427 6.37469 9.42474 7.46094 9.4248C8.54701 9.42454 9.42773 8.54415 9.42773 7.45801C9.42741 6.37215 8.54681 5.49147 7.46094 5.49121Z" fill="white"/>
</g>
<defs>
<clipPath id="clip0_2977_28105">
<rect width="16" height="16" fill="white"/>
</clipPath>
</defs>
</svg>
