<svg width="16" height="16" viewBox="0 0 16 16" fill="none" xmlns="http://www.w3.org/2000/svg">
<path d="M12.7705 0.00195312C13.0958 0.00705265 13.2936 0.0275993 13.4541 0.109375C13.6421 0.205215 13.7948 0.357928 13.8906 0.545898C13.9996 0.75976 14 1.03982 14 1.59961V14.4004L13.998 14.7705C13.9929 15.0958 13.9724 15.2936 13.8906 15.4541L13.8086 15.5879C13.7163 15.7148 13.5952 15.8187 13.4541 15.8906L13.3701 15.9268C13.2239 15.9789 13.0416 15.9938 12.7705 15.998L12.4004 16H3.59961C3.03982 16 2.75976 15.9996 2.5459 15.8906C2.40484 15.8187 2.28366 15.7148 2.19141 15.5879L2.10938 15.4541C2.0276 15.2936 2.00705 15.0958 2.00195 14.7705L2 14.4004V1.59961C2 1.03982 2.00041 0.75976 2.10938 0.545898C2.20522 0.357928 2.35793 0.205215 2.5459 0.109375C2.75976 0.000406864 3.03982 5.89394e-09 3.59961 0H12.4004L12.7705 0.00195312ZM3.5 14.499C3.53136 14.499 3.56447 14.5 3.59961 14.5H12.4004C12.4352 14.5 12.468 14.499 12.499 14.499C12.499 14.468 12.5 14.4352 12.5 14.4004V1.59961C12.5 1.56447 12.499 1.53136 12.499 1.5H3.5V14.499Z" fill="white" fill-opacity="0.15"/>
</svg>
