<svg width="16" height="16" viewBox="0 0 16 16" fill="none" xmlns="http://www.w3.org/2000/svg">
<g clip-path="url(#clip0_2977_28104)">
<path d="M16 1.5H15V14.5H16V16H0V14.5H1V1.5H0V0H16V1.5ZM2.5 14.5H13.5V1.5H2.5V14.5ZM11.4375 8.9375C11.7136 8.9375 11.9375 9.16136 11.9375 9.4375V12.4375C11.9375 12.4702 11.9341 12.5029 11.9277 12.5352C11.9176 12.5863 11.8975 12.6335 11.873 12.6777C11.8509 12.7179 11.8251 12.7569 11.791 12.791C11.7569 12.8251 11.7179 12.8509 11.6777 12.873C11.6335 12.8975 11.5863 12.9176 11.5352 12.9277C11.5029 12.9341 11.4702 12.9375 11.4375 12.9375H8.4375C8.16136 12.9375 7.9375 12.7136 7.9375 12.4375C7.9375 12.1614 8.16136 11.9375 8.4375 11.9375H10.2305L8.08398 9.79102C7.88872 9.59575 7.88872 9.27925 8.08398 9.08398C8.27925 8.88872 8.59575 8.88872 8.79102 9.08398L10.9375 11.2305V9.4375C10.9375 9.16136 11.1614 8.9375 11.4375 8.9375ZM7.5 3C7.77614 3 8 3.22386 8 3.5C8 3.77614 7.77614 4 7.5 4H5.70703L7.85352 6.14648C8.04878 6.34175 8.04878 6.65825 7.85352 6.85352C7.65825 7.04878 7.34175 7.04878 7.14648 6.85352L5 4.70703V6.5C5 6.77614 4.77614 7 4.5 7C4.22386 7 4 6.77614 4 6.5V3.5C4 3.46701 4.0023 3.43383 4.00879 3.40137C4.01898 3.35033 4.03903 3.30293 4.06348 3.25879C4.08563 3.21875 4.11251 3.18046 4.14648 3.14648C4.18046 3.11251 4.21875 3.08563 4.25879 3.06348C4.30293 3.03903 4.35033 3.01898 4.40137 3.00879C4.43383 3.0023 4.46701 3 4.5 3H7.5Z" fill="white" fill-opacity="0.4"/>
</g>
<defs>
<clipPath id="clip0_2977_28104">
<rect width="16" height="16" fill="white"/>
</clipPath>
</defs>
</svg>
