<svg width="16" height="16" viewBox="0 0 16 16" fill="none" xmlns="http://www.w3.org/2000/svg">
<g clip-path="url(#clip0_3006_30617)">
<path d="M0.751953 12.4268C1.16602 12.4268 1.50171 12.7628 1.50195 13.1768V14.498H2.82324C3.23725 14.4983 3.57324 14.834 3.57324 15.248C3.57306 15.662 3.23713 15.9978 2.82324 15.998H0.751953C0.337854 15.998 0.00213809 15.6621 0.00195312 15.248V13.1768C0.00219796 12.7628 0.337891 12.4268 0.751953 12.4268ZM15.248 12.4268C15.6621 12.4268 15.9978 12.7628 15.998 13.1768V15.248C15.9979 15.6621 15.6621 15.998 15.248 15.998H13.1768C12.7629 15.9978 12.4269 15.662 12.4268 15.248C12.4268 14.834 12.7628 14.4983 13.1768 14.498H14.498V13.1768C14.4983 12.7628 14.834 12.4268 15.248 12.4268ZM4.99023 5.41309C5.88037 5.26271 7.05701 5.38825 8.39355 6.26172C8.43518 6.28391 8.47372 6.30985 8.50977 6.33887C8.52193 6.34716 8.53468 6.35486 8.54688 6.36328C9.75656 7.197 10.6655 7.4176 11.2256 7.45605C11.5084 7.47542 11.7135 7.44894 11.835 7.42383L11.957 7.39258L12.0283 7.36426C12.3865 7.24394 12.7862 7.41089 12.9482 7.76172C13.1218 8.13768 12.957 8.58311 12.5811 8.75684L12.2666 8.07617C12.5726 8.73846 12.5804 8.75706 12.5801 8.75781H12.5791L12.5771 8.75977C12.5755 8.7605 12.5731 8.76093 12.5713 8.76172C12.5678 8.76327 12.5638 8.76479 12.5596 8.7666C12.5506 8.77046 12.5395 8.77541 12.5273 8.78027C12.503 8.78999 12.4724 8.80203 12.4355 8.81445C12.3615 8.8394 12.2619 8.86807 12.1387 8.89355C11.8915 8.94464 11.5496 8.98234 11.123 8.95312C10.4223 8.90505 9.51919 8.6772 8.44727 8.06934C8.31943 8.38948 8.15686 8.7408 7.95898 9.10156C8.38446 9.26858 8.85996 9.50766 9.30469 9.85059C10.1911 10.5342 10.9442 11.6226 10.9443 13.2559C10.9443 13.6699 10.6084 14.0056 10.1943 14.0059C9.78012 14.0059 9.44434 13.6701 9.44434 13.2559C9.44418 12.1563 8.96471 11.4834 8.38867 11.0391C7.96596 10.7131 7.48509 10.5101 7.09277 10.3857C6.13546 11.5329 4.68002 12.5243 2.65723 12.3193C2.24518 12.2775 1.94464 11.9101 1.98633 11.498C2.02833 11.0864 2.39587 10.7857 2.80762 10.8271C4.20795 10.9691 5.23133 10.3005 5.98535 9.37402C6.55518 8.67365 6.93482 7.86359 7.14941 7.26758C6.324 6.83609 5.67578 6.81807 5.24023 6.8916C4.966 6.93797 4.75372 7.02473 4.61523 7.0957C4.54638 7.13102 4.49655 7.16243 4.46777 7.18164L4.44434 7.19629C4.12314 7.45473 3.65313 7.40608 3.39258 7.08594C3.13116 6.76465 3.1797 6.2917 3.50098 6.03027L3.79785 6.39453C3.52676 6.06118 3.5036 6.03292 3.50195 6.03027L3.50488 6.02734C3.50602 6.02644 3.50749 6.02545 3.50879 6.02441C3.51163 6.02215 3.5149 6.01945 3.51855 6.0166C3.52615 6.01069 3.53583 6.00331 3.54688 5.99512C3.56893 5.97876 3.59818 5.95837 3.63379 5.93457C3.70546 5.88669 3.80541 5.82498 3.93066 5.76074C4.18087 5.63247 4.53942 5.48931 4.99023 5.41309ZM9 2C10.1045 2.00005 11 2.89546 11 4C11 5.10454 10.1045 5.99995 9 6C7.89543 6 7 5.10457 7 4C7 2.89543 7.89543 2 9 2ZM9 3.5C8.72386 3.5 8.5 3.72386 8.5 4C8.5 4.27614 8.72386 4.5 9 4.5C9.2761 4.49995 9.5 4.27611 9.5 4C9.5 3.72389 9.2761 3.50005 9 3.5ZM2.82324 0.00195312C3.23713 0.0021979 3.57306 0.338048 3.57324 0.751953C3.57324 1.16602 3.23725 1.50171 2.82324 1.50195H1.50195V2.82324C1.50171 3.23725 1.16602 3.57324 0.751953 3.57324C0.337891 3.57324 0.00219796 3.23725 0.00195312 2.82324V0.751953C0.00213829 0.337897 0.337854 0.00195312 0.751953 0.00195312H2.82324ZM15.248 0.00195312C15.6621 0.00195312 15.9979 0.337897 15.998 0.751953V2.82324C15.9978 3.23725 15.6621 3.57324 15.248 3.57324C14.834 3.57324 14.4983 3.23725 14.498 2.82324V1.50195H13.1768C12.7628 1.50171 12.4268 1.16602 12.4268 0.751953C12.4269 0.338048 12.7629 0.0021979 13.1768 0.00195312H15.248Z" fill="#EA9794"/>
</g>
<defs>
<clipPath id="clip0_3006_30617">
<rect width="16" height="16" fill="white"/>
</clipPath>
</defs>
</svg>
