<svg width="16" height="16" viewBox="0 0 16 16" fill="none" xmlns="http://www.w3.org/2000/svg">
<g clip-path="url(#clip0_2973_27737)">
<path d="M8 0C12.4183 0 16 3.58172 16 8C16 12.4183 12.4183 16 8 16C3.58172 16 0 12.4183 0 8C0 3.58172 3.58172 0 8 0ZM8 1.5C4.41015 1.5 1.5 4.41015 1.5 8C1.5 11.5899 4.41015 14.5 8 14.5C11.5899 14.5 14.5 11.5899 14.5 8C14.5 4.41015 11.5899 1.5 8 1.5ZM8 2.75C8.41421 2.75 8.75 3.08579 8.75 3.5V7.57422L10.8857 8.85645C11.2408 9.0695 11.3564 9.5306 11.1436 9.88574C10.9305 10.2408 10.4694 10.3564 10.1143 10.1436L7.61426 8.64355C7.38835 8.50801 7.25 8.26345 7.25 8V3.5C7.25 3.08579 7.58579 2.75 8 2.75Z" fill="white"/>
</g>
<defs>
<clipPath id="clip0_2973_27737">
<rect width="16" height="16" fill="white"/>
</clipPath>
</defs>
</svg>
