<svg width="16" height="16" viewBox="0 0 16 16" fill="none" xmlns="http://www.w3.org/2000/svg">
<path d="M8 3.88343L7.20442 3.07817C6.69612 2.56334 6.04853 2.21275 5.34355 2.07072C4.63857 1.92869 3.90785 2.00161 3.24378 2.28025C2.5797 2.55888 2.01209 3.03073 1.6127 3.63614C1.21332 4.24154 1.0001 4.95331 1 5.68146C1 10.1817 8 14 8 14C8 14 15 10.1817 15 5.68146C14.9999 4.95331 14.7867 4.24154 14.3873 3.63614C13.9879 3.03073 13.4203 2.55888 12.7562 2.28025C12.0921 2.00161 11.3614 1.92869 10.6564 2.07072C9.95147 2.21275 9.30389 2.56334 8.79558 3.07817L6.92308 4.97439L8.95442 7.03288L7.46154 8.54522" stroke="white" stroke-opacity="0.4" stroke-width="1.5" stroke-linecap="round" stroke-linejoin="round"/>
</svg>
