<svg width="16" height="16" viewBox="0 0 16 16" fill="none" xmlns="http://www.w3.org/2000/svg">
<path d="M8.35254 0.0332031C10.0754 0.120137 11.7109 0.839862 12.9375 2.06055C14.2458 3.36273 14.9823 5.12964 14.9844 6.97266L14.9736 7.30957C14.8753 8.90087 14.098 10.7554 12.9121 12.4287L12.6523 12.7842C11.9317 13.7388 11.1574 14.524 10.3867 15.0771C9.62853 15.6212 8.80692 15.9883 8.00586 15.9883C7.20429 15.9883 6.38196 15.6205 5.62402 15.0762C4.85361 14.5229 4.07988 13.7372 3.35938 12.7842C1.93871 10.9073 1.0274 8.74505 1.02734 6.97266L1.03613 6.62793C1.12351 4.91041 1.84764 3.28142 3.07422 2.06055C4.38257 0.758479 6.15615 0.0265555 8.00488 0.0244141H8.00684L8.35254 0.0332031ZM8.00586 1.52441C6.5523 1.5263 5.15956 2.10221 4.13281 3.12402C3.10621 4.14583 2.52907 5.53023 2.52734 6.97363C2.52762 8.30021 3.2455 10.1492 4.55566 11.8799H4.55664C5.21006 12.7441 5.87944 13.4124 6.49902 13.8574C7.13124 14.3114 7.64676 14.4883 8.00586 14.4883C8.36535 14.4883 8.88081 14.3119 9.5127 13.8584C10.1322 13.4138 10.8017 12.7453 11.4551 11.8799C12.766 10.1445 13.4841 8.29988 13.4844 6.97363C13.4826 5.53022 12.9055 4.14584 11.8789 3.12402C10.8522 2.1022 9.45943 1.52629 8.00586 1.52441ZM9.04492 11.1064C9.18241 11.1066 9.31391 11.1611 9.41113 11.2578C9.50845 11.3547 9.56348 11.4861 9.56348 11.623C9.56338 11.7599 9.50838 11.8915 9.41113 11.9883C9.31394 12.0848 9.18225 12.1395 9.04492 12.1396H6.96875C6.83125 12.1396 6.69887 12.0849 6.60156 11.9883C6.50431 11.8915 6.44932 11.7599 6.44922 11.623C6.44922 11.4861 6.50425 11.3547 6.60156 11.2578C6.6989 11.1609 6.83109 11.1064 6.96875 11.1064H9.04492ZM4.63184 6.20605C5.31716 6.20605 5.97497 6.47737 6.45996 6.95996C6.94481 7.44254 7.21763 8.09733 7.21777 8.78027C7.21777 9.0524 7.10896 9.31377 6.91602 9.50586C6.7231 9.69776 6.4617 9.8056 6.18945 9.80566C5.50409 9.80566 4.84633 9.53441 4.36133 9.05176C3.87637 8.56905 3.60352 7.91359 3.60352 7.23047C3.6037 6.95852 3.71241 6.6978 3.90527 6.50586C4.09819 6.31394 4.35958 6.20612 4.63184 6.20605ZM11.3799 6.20605C11.6521 6.20611 11.9135 6.31395 12.1064 6.50586C12.2993 6.6978 12.408 6.95852 12.4082 7.23047C12.4082 7.56864 12.3409 7.90442 12.2109 8.2168C12.0809 8.52903 11.8904 8.81287 11.6504 9.05176C11.4103 9.29072 11.1251 9.4801 10.8115 9.60938C10.4979 9.73865 10.1616 9.80566 9.82227 9.80566C9.55002 9.80559 9.28861 9.69776 9.0957 9.50586C8.90276 9.31377 8.79395 9.0524 8.79395 8.78027C8.79409 8.09734 9.06691 7.44254 9.55176 6.95996C10.0367 6.47737 10.6946 6.20606 11.3799 6.20605Z" fill="white"/>
</svg>
