<svg width="16" height="16" viewBox="0 0 16 16" fill="none" xmlns="http://www.w3.org/2000/svg">
<path opacity="0.4" d="M8.35254 0.0332031C10.0754 0.120137 11.7109 0.839862 12.9375 2.06055C14.2458 3.36273 14.9823 5.12964 14.9844 6.97266L14.9736 7.30957C14.8753 8.90087 14.098 10.7554 12.9121 12.4287L12.6523 12.7842C11.9317 13.7388 11.1574 14.524 10.3867 15.0771C9.62853 15.6212 8.80692 15.9883 8.00586 15.9883C7.20429 15.9883 6.38196 15.6205 5.62402 15.0762C4.85361 14.5229 4.07988 13.7372 3.35938 12.7842C1.93871 10.9073 1.0274 8.74505 1.02734 6.97266L1.03613 6.62793C1.12351 4.91041 1.84764 3.28142 3.07422 2.06055C4.38257 0.758479 6.15615 0.0265553 8.00488 0.0244141H8.00684L8.35254 0.0332031ZM8.00586 1.52441C6.5523 1.5263 5.15956 2.10221 4.13281 3.12402C3.10621 4.14583 2.52907 5.53023 2.52734 6.97363C2.52762 8.30021 3.2455 10.1492 4.55566 11.8799H4.55664C5.21006 12.7441 5.87944 13.4124 6.49902 13.8574C7.13124 14.3114 7.64677 14.4883 8.00586 14.4883C8.36535 14.4883 8.88081 14.3119 9.5127 13.8584C10.1322 13.4138 10.8017 12.7453 11.4551 11.8799C12.766 10.1445 13.4841 8.29988 13.4844 6.97363C13.4826 5.53022 12.9055 4.14584 11.8789 3.12402C10.8522 2.1022 9.45943 1.52629 8.00586 1.52441ZM9.04492 11.1064C9.18241 11.1066 9.31391 11.1611 9.41113 11.2578C9.50845 11.3547 9.56348 11.4861 9.56348 11.623C9.56338 11.7599 9.50838 11.8915 9.41113 11.9883C9.31394 12.0848 9.18225 12.1395 9.04492 12.1396H6.96875C6.83125 12.1396 6.69887 12.0849 6.60156 11.9883C6.50431 11.8915 6.44932 11.7599 6.44922 11.623C6.44922 11.4861 6.50425 11.3547 6.60156 11.2578C6.6989 11.1609 6.83109 11.1064 6.96875 11.1064H9.04492ZM4.63184 5.70605C5.44894 5.70605 6.23357 6.02944 6.8125 6.60547C7.39153 7.18176 7.71777 7.96472 7.71777 8.78125C7.71765 9.18666 7.55551 9.57478 7.26855 9.86035C6.98169 10.1458 6.59354 10.3056 6.18945 10.3057C5.37228 10.3057 4.58774 9.98237 4.00879 9.40625C3.42982 8.83003 3.1036 8.04788 3.10352 7.23145C3.10352 6.82591 3.26573 6.43704 3.55273 6.15137C3.83958 5.86608 4.22785 5.70612 4.63184 5.70605ZM11.3799 5.70605C11.7839 5.70611 12.1721 5.86608 12.459 6.15137C12.746 6.43704 12.9082 6.82591 12.9082 7.23145C12.9082 7.63559 12.8282 8.03599 12.6729 8.40918C12.5175 8.78233 12.2895 9.121 12.0029 9.40625C11.7163 9.69153 11.376 9.91806 11.002 10.0723C10.6279 10.2264 10.2269 10.3057 9.82227 10.3057C9.41819 10.3056 9.03002 10.1458 8.74316 9.86035C8.45621 9.57478 8.29407 9.18667 8.29395 8.78125C8.29395 7.96472 8.62019 7.18176 9.19922 6.60547C9.77815 6.02943 10.5628 5.70605 11.3799 5.70605ZM4.61035 7.21484C4.60548 7.21976 4.60352 7.22607 4.60352 7.23145C4.6036 7.64775 4.7695 8.04827 5.06641 8.34375C5.3635 8.63934 5.7678 8.80566 6.18945 8.80566C6.19805 8.8056 6.2059 8.80185 6.21094 8.79688C6.21555 8.79214 6.21766 8.78643 6.21777 8.78125C6.21777 8.36495 6.05172 7.96448 5.75488 7.66895C5.45778 7.37327 5.05355 7.20605 4.63184 7.20605C4.6232 7.20612 4.61539 7.20983 4.61035 7.21484ZM11.3799 7.20605C10.9582 7.20605 10.5539 7.37327 10.2568 7.66895C9.96001 7.96448 9.79395 8.36496 9.79395 8.78125C9.79406 8.78642 9.79618 8.79214 9.80078 8.79688C9.80582 8.80184 9.81369 8.80559 9.82227 8.80566C10.031 8.80566 10.238 8.76495 10.4307 8.68555C10.6232 8.60616 10.7983 8.49003 10.9453 8.34375C11.0923 8.19749 11.2087 8.02361 11.2881 7.83301C11.3674 7.64234 11.4082 7.4376 11.4082 7.23145C11.4082 7.22607 11.4063 7.21976 11.4014 7.21484C11.3963 7.20983 11.3885 7.20611 11.3799 7.20605Z" fill="white"/>
</svg>
