<svg width="16" height="16" viewBox="0 0 16 16" fill="none" xmlns="http://www.w3.org/2000/svg">
<g clip-path="url(#clip0_2973_27710)">
<path d="M6.83398 -0.000976562C10.6083 -0.000959296 13.668 3.05873 13.668 6.83301C13.668 8.35965 13.1663 9.76862 12.3203 10.9062L15.707 14.293C16.0976 14.6835 16.0976 15.3165 15.707 15.707C15.3165 16.0976 14.6835 16.0976 14.293 15.707L10.9062 12.3203C9.76881 13.1658 8.36014 13.667 6.83398 13.667C3.05971 13.667 1.7266e-05 10.6073 0 6.83301C0 3.05872 3.0597 -0.000976562 6.83398 -0.000976562ZM6.83398 1.99902C4.16427 1.99902 2 4.16329 2 6.83301C2.00002 9.50271 4.16428 11.667 6.83398 11.667C9.50368 11.667 11.668 9.5027 11.668 6.83301C11.668 4.1633 9.50369 1.99904 6.83398 1.99902Z" fill="white" fill-opacity="0.4"/>
</g>
<defs>
<clipPath id="clip0_2973_27710">
<rect width="16" height="16" fill="white"/>
</clipPath>
</defs>
</svg>
