<svg width="16" height="16" viewBox="0 0 16 16" fill="none" xmlns="http://www.w3.org/2000/svg">
<path d="M10.9873 0.995117C12.0317 0.995117 13.0448 1.37677 13.8008 2.07227C14.5588 2.76977 14.9979 3.72951 14.998 4.74512V7.67383C14.9983 7.79784 14.9794 7.92149 14.9424 8.03906C14.9377 8.05386 14.9323 8.06853 14.9268 8.08301L13.749 11.1396V14C13.749 14.4142 13.4132 14.75 12.999 14.75H4.99902C4.58498 14.7498 4.24902 14.4141 4.24902 14V11.3789L1.6748 9.4873C1.63027 9.45454 1.58901 9.41673 1.55273 9.375C1.36167 9.15488 1.24974 8.87049 1.25 8.56934V6.74609C1.25 6.12831 1.51748 5.54905 1.96973 5.13281C2.41978 4.71876 3.01814 4.49533 3.62988 4.49512H3.72656C3.79235 3.57323 4.2179 2.71218 4.91309 2.07227C5.66893 1.37677 6.68233 0.995303 7.72656 0.995117H10.9873ZM7.72656 2.49512C7.04175 2.4953 6.39552 2.74625 5.92871 3.17578C5.46419 3.60341 5.21593 4.16967 5.21582 4.74512V6.74609C5.21563 7.16015 4.87992 7.49609 4.46582 7.49609C4.05208 7.49567 3.71601 7.15989 3.71582 6.74609V5.99512H3.62988C3.37752 5.99533 3.1464 6.08912 2.98535 6.2373C2.82651 6.38367 2.75 6.56838 2.75 6.74609V8.41504L5.44336 10.3955C5.63559 10.5368 5.74902 10.7614 5.74902 11V13.25H12.249V11C12.249 10.9079 12.2658 10.8164 12.2988 10.7305L13.498 7.61914V4.74512C13.4979 4.1695 13.2499 3.60346 12.7852 3.17578C12.3182 2.74632 11.6722 2.49512 10.9873 2.49512H7.72656ZM10.6641 9.3291C11.0344 9.14419 11.4847 9.2948 11.6699 9.66504C11.8549 10.0354 11.7043 10.4857 11.334 10.6709L10.6758 11L11.334 11.3291C11.7043 11.5143 11.8549 11.9646 11.6699 12.335C11.4847 12.7052 11.0344 12.8558 10.6641 12.6709L8.99902 11.8379L7.33398 12.6709C6.96364 12.8556 6.51325 12.7052 6.32812 12.335C6.14336 11.9647 6.294 11.5144 6.66406 11.3291L7.32227 11L6.66406 10.6709C6.294 10.4856 6.14336 10.0353 6.32812 9.66504C6.51325 9.29479 6.96364 9.14441 7.33398 9.3291L8.99902 10.1611L10.6641 9.3291Z" fill="white"/>
</svg>
