<svg width="16" height="16" viewBox="0 0 16 16" fill="none" xmlns="http://www.w3.org/2000/svg">
<path d="M10.2507 1C12.8736 1 15.0007 3.12616 15.0007 5.74902C15.0004 8.37164 12.8735 10.498 10.2507 10.498C10.0754 10.498 9.90249 10.4863 9.73211 10.4678L3.88348 14.7559C3.64289 14.9322 3.34689 15.0168 3.0495 14.9941C2.78923 14.9743 2.54246 14.8741 2.34344 14.708L2.26141 14.6328L1.36688 13.7383C1.15619 13.5272 1.02819 13.2476 1.00555 12.9502C0.982929 12.6528 1.06751 12.3568 1.24383 12.1162L5.52997 6.26758C5.51145 6.09726 5.50166 5.92426 5.50165 5.74902C5.50165 4.44669 6.02568 3.26615 6.87469 2.4082C6.88012 2.40242 6.88565 2.39627 6.89129 2.39062C6.89652 2.3854 6.90158 2.38003 6.90692 2.375C7.76512 1.5244 8.94691 1.00012 10.2507 1ZM2.57977 12.8291L3.16961 13.4189L7.95965 9.9082C7.1738 9.47443 6.52418 8.82496 6.09051 8.03906L2.57977 12.8291ZM7.48407 4.04395C7.17806 4.53948 7.00165 5.12392 7.00165 5.74902C7.00193 7.54287 8.45632 8.9978 10.2507 8.99805C10.8757 8.99805 11.4592 8.82046 11.9548 8.51465L7.48407 4.04395ZM10.2507 2.5C9.62483 2.50009 9.04047 2.67682 8.54461 2.9834L13.0163 7.4541C13.3229 6.95837 13.5006 6.37456 13.5007 5.74902C13.5007 3.95478 12.0454 2.5 10.2507 2.5Z" fill="#EA9794"/>
</svg>
