<svg width="16" height="16" viewBox="0 0 16 16" fill="none" xmlns="http://www.w3.org/2000/svg">
<path d="M10.2507 1C12.8735 1.00017 15.0007 3.12626 15.0007 5.74902C15.0004 8.37154 12.8733 10.4979 10.2507 10.498C10.0755 10.498 9.90239 10.4863 9.73212 10.4678L3.88348 14.7559C3.64298 14.9321 3.34679 15.0167 3.0495 14.9941C2.7893 14.9743 2.54243 14.874 2.34344 14.708L2.26141 14.6328L1.36688 13.7383C1.15618 13.5272 1.02819 13.2476 1.00555 12.9502C0.982925 12.6528 1.06751 12.3568 1.24383 12.1162L5.52997 6.26758C5.51145 6.09725 5.50167 5.92428 5.50165 5.74902C5.50165 4.44661 6.0256 3.26616 6.87469 2.4082C6.88008 2.40247 6.8857 2.39622 6.8913 2.39062C6.89652 2.3854 6.90158 2.38003 6.90692 2.375C7.76511 1.52449 8.94699 1.00012 10.2507 1ZM2.57977 12.8291L3.16962 13.4189L7.95966 9.9082C7.17374 9.47445 6.52422 8.82498 6.09051 8.03906L2.57977 12.8291ZM7.48407 4.04395C7.17801 4.53951 7.00165 5.12386 7.00165 5.74902C7.00193 7.54287 8.45632 8.9978 10.2507 8.99805C10.8757 8.99799 11.4592 8.8205 11.9548 8.51465L7.48407 4.04395ZM10.2507 2.5C9.62482 2.50009 9.0395 2.67582 8.54364 2.98242L13.0163 7.4541C13.3228 6.9584 13.5006 6.3745 13.5007 5.74902C13.5007 3.95489 12.0453 2.50017 10.2507 2.5Z" fill="white"/>
</svg>
