<svg width="16" height="16" viewBox="0 0 16 16" fill="none" xmlns="http://www.w3.org/2000/svg">
<g clip-path="url(#clip0_2988_29170)">
<path d="M8 0C11.9961 0 15.25 3.21288 15.25 7.19043C15.2499 9.33002 14.3059 11.2528 12.8125 12.5664V14.1904C12.8124 14.5297 12.6825 14.8601 12.4434 15.1074C12.2032 15.3557 11.8713 15.5 11.5205 15.5H4.47949C4.12871 15.5 3.79681 15.3557 3.55664 15.1074C3.31753 14.8601 3.18761 14.5297 3.1875 14.1904V12.5664C1.69409 11.2528 0.750126 9.33002 0.75 7.19043C0.75 3.21288 4.00392 0 8 0ZM8 1.5C4.819 1.5 2.25 4.05458 2.25 7.19043C2.25013 8.98437 3.08857 10.5883 4.40332 11.6299C4.58275 11.7721 4.6875 11.9888 4.6875 12.2178V14H5.91602V12.25C5.91602 11.8358 6.2518 11.5 6.66602 11.5C7.08023 11.5 7.41602 11.8358 7.41602 12.25V14H8.58398V12.25C8.58398 11.8358 8.91977 11.5 9.33398 11.5C9.7482 11.5 10.084 11.8358 10.084 12.25V14H11.3125V12.2178C11.3125 11.9888 11.4173 11.7721 11.5967 11.6299C12.9114 10.5883 13.7499 8.98437 13.75 7.19043C13.75 4.05458 11.181 1.5 8 1.5ZM5.5 5.75C6.32843 5.75 7 6.42157 7 7.25C7 8.07843 6.32843 8.75 5.5 8.75C4.67157 8.75 4 8.07843 4 7.25C4 6.42157 4.67157 5.75 5.5 5.75ZM10.5 5.75C11.3284 5.75 12 6.42157 12 7.25C12 8.07843 11.3284 8.75 10.5 8.75C9.67157 8.75 9 8.07843 9 7.25C9 6.42157 9.67157 5.75 10.5 5.75Z" fill="white" fill-opacity="0.4"/>
</g>
<defs>
<clipPath id="clip0_2988_29170">
<rect width="16" height="16" fill="white"/>
</clipPath>
</defs>
</svg>
