<svg width="16" height="16" viewBox="0 0 16 16" fill="none" xmlns="http://www.w3.org/2000/svg">
<path d="M14.7705 2.00195C15.0958 2.00705 15.2936 2.0276 15.4541 2.10938C15.6421 2.20522 15.7948 2.35793 15.8906 2.5459C15.9996 2.75976 16 3.03982 16 3.59961V12.4004L15.998 12.7705C15.9929 13.0958 15.9724 13.2936 15.8906 13.4541L15.8086 13.5879C15.7163 13.7148 15.5952 13.8187 15.4541 13.8906L15.3701 13.9268C15.2239 13.9789 15.0416 13.9938 14.7705 13.998L14.4004 14H1.59961C1.03982 14 0.75976 13.9996 0.545898 13.8906C0.404837 13.8187 0.283656 13.7148 0.191406 13.5879L0.109375 13.4541C0.0275993 13.2936 0.00705264 13.0958 0.00195312 12.7705L0 12.4004V3.59961C5.91013e-09 3.03982 0.000406899 2.75976 0.109375 2.5459C0.205215 2.35793 0.357928 2.20522 0.545898 2.10938C0.75976 2.00041 1.03982 2 1.59961 2H14.4004L14.7705 2.00195ZM1.5 12.499C1.53136 12.499 1.56447 12.5 1.59961 12.5H5V3.5H1.5V12.499ZM6.5 12.5H14.4004C14.4352 12.5 14.468 12.499 14.499 12.499C14.499 12.468 14.5 12.4352 14.5 12.4004V3.59961C14.5 3.56447 14.499 3.53136 14.499 3.5H6.5V12.5Z" fill="white" fill-opacity="0.4"/>
</svg>
