<svg width="16" height="16" viewBox="0 0 16 16" fill="none" xmlns="http://www.w3.org/2000/svg">
<g clip-path="url(#clip0_20_97)">
<path d="M11.1211 1.1919C11.4289 0.914985 11.9036 0.940078 12.1807 1.24756C12.4577 1.55547 12.4329 2.03007 12.125 2.30713L9.9541 4.26025H14.6455C15.3165 4.26062 15.9988 4.76773 15.999 5.5542V13.7065C15.999 14.4932 15.3166 15.0001 14.6455 15.0005H1.35547C0.684116 15.0005 0.000976562 14.4935 0.000976562 13.7065V5.5542C0.00118522 4.76744 0.684219 4.26025 1.35547 4.26025H6.04297L3.87207 2.30713C3.56451 2.03003 3.53947 1.55535 3.81641 1.24756C4.0934 0.939852 4.56809 0.915124 4.87598 1.1919L7.99805 4.00147L11.1211 1.1919ZM1.50098 13.5005H14.499V5.76025H1.50098V13.5005Z" fill="white"/>
</g>
<defs>
<clipPath id="clip0_20_97">
<rect width="16" height="16" fill="white"/>
</clipPath>
</defs>
</svg>
