<svg width="16" height="16" viewBox="0 0 16 16" fill="none" xmlns="http://www.w3.org/2000/svg">
  <defs>
    <filter id="uploadPosterHoverGlow" x="-35%" y="-35%" width="170%" height="170%" color-interpolation-filters="sRGB">
      <feDropShadow dx="0" dy="0" stdDeviation="0.6" flood-color="#FFFFFF" flood-opacity="0.55" />
    </filter>
  </defs>
  <path
    filter="url(#uploadPosterHoverGlow)"
    d="M10.2959 13.5C10.7101 13.5 11.0459 13.8358 11.0459 14.25C11.0459 14.6642 10.7101 15 10.2959 15H5.70117C5.28696 15 4.95117 14.6642 4.95117 14.25C4.95117 13.8358 5.28696 13.5 5.70117 13.5H10.2959ZM14.7705 1.00195C15.0958 1.00705 15.2936 1.0276 15.4541 1.10938C15.6421 1.20522 15.7948 1.35793 15.8906 1.5459C15.9996 1.75976 16 2.03982 16 2.59961V11.4004L15.998 11.7705C15.9929 12.0958 15.9724 12.2936 15.8906 12.4541L15.8086 12.5879C15.7163 12.7148 15.5952 12.8187 15.4541 12.8906L15.3701 12.9268C15.2239 12.9789 15.0416 12.9938 14.7705 12.998L14.4004 13H1.59961C1.03982 13 0.75976 12.9996 0.545898 12.8906C0.404837 12.8187 0.283656 12.7148 0.191406 12.5879L0.109375 12.4541C0.0275993 12.2936 0.00705264 12.0958 0.00195312 11.7705L0 11.4004V2.59961C5.91013e-09 2.03982 0.000406899 1.75976 0.109375 1.5459C0.205215 1.35793 0.357928 1.20522 0.545898 1.10938C0.75976 1.00041 1.03982 1 1.59961 1H14.4004L14.7705 1.00195ZM1.5 11.499C1.53136 11.499 1.56447 11.5 1.59961 11.5H14.4004C14.4352 11.5 14.468 11.499 14.499 11.499C14.499 11.468 14.5 11.4352 14.5 11.4004V2.59961C14.5 2.56447 14.499 2.53136 14.499 2.5H1.5V11.499ZM8.06445 3.69629C8.07097 3.69651 8.07747 3.69687 8.08398 3.69727C8.12298 3.69957 8.16107 3.70485 8.19824 3.71289C8.23152 3.72011 8.26366 3.73138 8.2959 3.74316C8.30838 3.74773 8.32182 3.74968 8.33398 3.75488C8.35307 3.76304 8.37018 3.77535 8.38867 3.78516C8.41248 3.79779 8.43679 3.80918 8.45898 3.82422C8.49782 3.85055 8.53493 3.88064 8.56934 3.91504L10.5693 5.91504C10.8622 6.20793 10.8622 6.68269 10.5693 6.97559C10.2764 7.26848 9.80168 7.26848 9.50879 6.97559L8.78906 6.25586V9.44531C8.78906 9.85953 8.45328 10.1953 8.03906 10.1953C7.62485 10.1953 7.28906 9.85953 7.28906 9.44531V6.25586L6.56934 6.97559C6.27644 7.26848 5.80168 7.26848 5.50879 6.97559C5.2159 6.68269 5.2159 6.20793 5.50879 5.91504L7.50879 3.91504L7.56543 3.86328C7.57563 3.85496 7.58714 3.84852 7.59766 3.84082C7.61319 3.82946 7.6291 3.81876 7.64551 3.80859C7.66941 3.7938 7.69368 3.78041 7.71875 3.76855C7.73692 3.75994 7.75547 3.75228 7.77441 3.74512C7.80199 3.73473 7.83 3.72675 7.8584 3.71973C7.87846 3.71475 7.89828 3.70841 7.91895 3.70508C7.93 3.7033 7.94104 3.70148 7.95215 3.7002C7.98066 3.69691 8.00967 3.69531 8.03906 3.69531C8.04757 3.69531 8.05602 3.69601 8.06445 3.69629Z"
    fill="#FFFFFF"
  />
</svg>
