<svg width="16" height="16" viewBox="0 0 16 16" fill="none" xmlns="http://www.w3.org/2000/svg">
<path d="M14.1025 11.0049C14.6067 11.0562 15 11.4823 15 12V14L14.9951 14.1025C14.9472 14.573 14.573 14.9472 14.1025 14.9951L14 15H2C1.44772 15 1 14.5523 1 14V12C1 11.4477 1.44772 11 2 11H14L14.1025 11.0049ZM5 14H14V12H5V14ZM14.1025 6.00488C14.6067 6.05621 15 6.48232 15 7V9L14.9951 9.10254C14.9472 9.57297 14.573 9.94722 14.1025 9.99512L14 10H2C1.44772 10 1 9.55228 1 9V7C1 6.44772 1.44772 6 2 6H14L14.1025 6.00488ZM5 9H14V7H5V9ZM14.1025 1.00488C14.6067 1.05621 15 1.48232 15 2V4L14.9951 4.10254C14.9472 4.57297 14.573 4.94722 14.1025 4.99512L14 5H2C1.44772 5 1 4.55228 1 4V2C1 1.44772 1.44772 1 2 1H14L14.1025 1.00488ZM5 4H14V2H5V4Z" fill="white"/>
</svg>
