<svg width="16" height="16" viewBox="0 0 16 16" fill="none" xmlns="http://www.w3.org/2000/svg">
<path d="M14.1025 1.00488C14.6067 1.05621 15 1.48232 15 2V14L14.9951 14.1025C14.9472 14.573 14.573 14.9472 14.1025 14.9951L14 15H2C1.48232 15 1.05621 14.6067 1.00488 14.1025L1 14V2C1 1.44772 1.44772 1 2 1H14L14.1025 1.00488ZM2.75 10.75V13.5H5.25V10.75H2.75ZM6.75 10.75V13.5H9.25V10.75H6.75ZM10.75 10.75V13.5H13.25V10.75H10.75ZM2.75 9.25H5.25V6.75H2.75V9.25ZM6.75 9.25H9.25V6.75H6.75V9.25ZM10.75 9.25H13.25V6.75H10.75V9.25ZM2.75 5.25H5.25V2.5H2.75V5.25ZM6.75 5.25H9.25V2.5H6.75V5.25ZM10.75 5.25H13.25V2.5H10.75V5.25Z" fill="white" fill-opacity="0.4"/>
</svg>
