<svg width="16" height="16" viewBox="0 0 16 16" fill="none" xmlns="http://www.w3.org/2000/svg">
<path d="M3.2002 11C3.47986 11 3.61967 11.0003 3.72656 11.0547C3.82064 11.1026 3.89738 11.1794 3.94531 11.2734C3.99966 11.3803 4 11.5201 4 11.7998V13.2002C4 13.4799 3.99966 13.6197 3.94531 13.7266C3.89738 13.8206 3.82064 13.8974 3.72656 13.9453C3.61967 13.9997 3.47986 14 3.2002 14H1.7998C1.52014 14 1.38033 13.9997 1.27344 13.9453C1.17936 13.8974 1.10262 13.8206 1.05469 13.7266C1.00034 13.6197 1 13.4799 1 13.2002V11.7998C1 11.5201 1.00034 11.3803 1.05469 11.2734C1.10262 11.1794 1.17936 11.1026 1.27344 11.0547C1.38033 11.0003 1.52014 11 1.7998 11H3.2002ZM14 12.25C14.4142 12.25 14.75 12.5858 14.75 13C14.75 13.4142 14.4142 13.75 14 13.75H6C5.58579 13.75 5.25 13.4142 5.25 13C5.25 12.5858 5.58579 12.25 6 12.25H14ZM3.2002 6C3.47986 6 3.61967 6.00034 3.72656 6.05469C3.82064 6.10262 3.89738 6.17936 3.94531 6.27344C3.99966 6.38033 4 6.52014 4 6.7998V8.2002C4 8.47986 3.99966 8.61967 3.94531 8.72656C3.89738 8.82064 3.82064 8.89738 3.72656 8.94531C3.61967 8.99966 3.47986 9 3.2002 9H1.7998C1.52014 9 1.38033 8.99966 1.27344 8.94531C1.17936 8.89738 1.10262 8.82064 1.05469 8.72656C1.00034 8.61967 1 8.47986 1 8.2002V6.7998C1 6.52014 1.00034 6.38033 1.05469 6.27344C1.10262 6.17936 1.17936 6.10262 1.27344 6.05469C1.38033 6.00034 1.52014 6 1.7998 6H3.2002ZM14 7.25C14.4142 7.25 14.75 7.58579 14.75 8C14.75 8.41421 14.4142 8.75 14 8.75H6C5.58579 8.75 5.25 8.41421 5.25 8C5.25 7.58579 5.58579 7.25 6 7.25H14ZM3.2002 1C3.47986 1 3.61967 1.00034 3.72656 1.05469C3.82064 1.10262 3.89738 1.17936 3.94531 1.27344C3.99966 1.38033 4 1.52014 4 1.7998V3.2002C4 3.47986 3.99966 3.61967 3.94531 3.72656C3.89738 3.82064 3.82064 3.89738 3.72656 3.94531C3.61967 3.99966 3.47986 4 3.2002 4H1.7998C1.52014 4 1.38033 3.99966 1.27344 3.94531C1.17936 3.89738 1.10262 3.82064 1.05469 3.72656C1.00034 3.61967 1 3.47986 1 3.2002V1.7998C1 1.52014 1.00034 1.38033 1.05469 1.27344C1.10262 1.17936 1.17936 1.10262 1.27344 1.05469C1.38033 1.00034 1.52014 1 1.7998 1H3.2002ZM14 2.25C14.4142 2.25 14.75 2.58579 14.75 3C14.75 3.41421 14.4142 3.75 14 3.75H6C5.58579 3.75 5.25 3.41421 5.25 3C5.25 2.58579 5.58579 2.25 6 2.25H14Z" fill="white" fill-opacity="0.4"/>
</svg>
