<svg width="16" height="16" viewBox="0 0 16 16" fill="none" xmlns="http://www.w3.org/2000/svg">
<g clip-path="url(#clip0_2988_29201)">
<path d="M9.78516 13.9896C10.1819 13.871 10.6 14.0968 10.7188 14.4935C10.8374 14.8903 10.6117 15.3084 10.2148 15.4271C9.51219 15.6373 8.76854 15.7503 8 15.7503C7.23146 15.7503 6.48781 15.6373 5.78516 15.4271C5.38833 15.3084 5.16257 14.8903 5.28125 14.4935C5.39997 14.0968 5.8181 13.871 6.21484 13.9896C6.77958 14.1585 7.37863 14.2503 8 14.2503C8.62137 14.2503 9.22042 14.1585 9.78516 13.9896ZM1 7.21421C1.41417 7.21421 1.74993 7.55005 1.75 7.96421C1.75001 9.3074 2.16782 10.5503 2.87988 11.5707C3.11691 11.9103 3.03396 12.3775 2.69434 12.6146C2.35468 12.8516 1.88745 12.7687 1.65039 12.4291C0.767914 11.1646 0.250009 9.62384 0.25 7.96421C0.25007 7.55005 0.58583 7.21421 1 7.21421ZM15 7.21421C15.4142 7.21421 15.7499 7.55005 15.75 7.96421C15.75 9.62384 15.2321 11.1646 14.3496 12.4291C14.1126 12.7687 13.6453 12.8516 13.3057 12.6146C12.966 12.3775 12.8831 11.9103 13.1201 11.5707C13.8322 10.5503 14.25 9.3074 14.25 7.96421C14.2501 7.55005 14.5858 7.21421 15 7.21421ZM7.52441 3.46421C7.67409 3.00355 8.32591 3.00355 8.47559 3.46421L9.34668 6.14585H12.168C12.652 6.14625 12.8527 6.76651 12.4609 7.05112L10.1797 8.70835L11.0508 11.391C11.2004 11.8516 10.6741 12.2341 10.2822 11.9496L8 10.2923L5.71777 11.9496C5.32593 12.2341 4.79956 11.8516 4.94922 11.391L5.82031 8.70835L3.53906 7.05112C3.14733 6.76651 3.34801 6.14625 3.83203 6.14585H6.65332L7.52441 3.46421ZM5.78516 0.501317C6.18195 0.382708 6.60006 0.608431 6.71875 1.00522C6.83733 1.40201 6.61162 1.82013 6.21484 1.93882C4.82668 2.3541 3.63819 3.2428 2.83691 4.42124C2.60412 4.76364 2.13743 4.85301 1.79492 4.62046C1.45246 4.38765 1.36306 3.92099 1.5957 3.57847C2.58636 2.12123 4.05863 1.01777 5.78516 0.501317ZM9.28125 1.00522C9.39994 0.608432 9.81805 0.382708 10.2148 0.501317C11.9414 1.01777 13.4136 2.12123 14.4043 3.57847C14.6369 3.92099 14.5475 4.38765 14.2051 4.62046C13.8626 4.85301 13.3959 4.76364 13.1631 4.42124C12.3618 3.2428 11.1733 2.3541 9.78516 1.93882C9.38838 1.82013 9.16267 1.40201 9.28125 1.00522Z" fill="white"/>
</g>
<defs>
<clipPath id="clip0_2988_29201">
<rect width="16" height="16" fill="white"/>
</clipPath>
</defs>
</svg>
