<svg width="16" height="16" viewBox="0 0 16 16" fill="none" xmlns="http://www.w3.org/2000/svg">
<g clip-path="url(#clip0_2988_29197)">
<path d="M9.78516 13.9896C10.1818 13.8711 10.5999 14.0969 10.7188 14.4935C10.8374 14.8903 10.6116 15.3083 10.2148 15.4271C9.51219 15.6372 8.76854 15.7503 8 15.7503C7.23146 15.7503 6.48781 15.6372 5.78516 15.4271C5.38837 15.3083 5.16255 14.8903 5.28125 14.4935C5.40008 14.0969 5.81822 13.8711 6.21484 13.9896C6.77959 14.1585 7.37862 14.2503 8 14.2503C8.62138 14.2503 9.22041 14.1585 9.78516 13.9896ZM1 7.21416C1.41407 7.21416 1.74977 7.55014 1.75 7.96416C1.75 9.30729 2.1679 10.5502 2.87988 11.5706C3.1169 11.9102 3.03385 12.3775 2.69434 12.6146C2.35466 12.8516 1.88745 12.7687 1.65039 12.429C0.767991 11.1645 0.25 9.62372 0.25 7.96416C0.250231 7.55014 0.585929 7.21416 1 7.21416ZM15 7.21416C15.4141 7.21416 15.7498 7.55014 15.75 7.96416C15.75 9.62372 15.232 11.1645 14.3496 12.429C14.1126 12.7687 13.6453 12.8516 13.3057 12.6146C12.9661 12.3775 12.8831 11.9102 13.1201 11.5706C13.8321 10.5502 14.25 9.30729 14.25 7.96416C14.2502 7.55014 14.5859 7.21416 15 7.21416ZM7.52441 3.46416C7.67409 3.00351 8.32591 3.00351 8.47559 3.46416L9.34668 6.14678H12.168C12.652 6.14718 12.8527 6.76647 12.4609 7.05108L10.1797 8.70928L11.0508 11.3909C11.2004 11.8514 10.674 12.2346 10.2822 11.9505L8 10.2923L5.71777 11.9505C5.32596 12.2346 4.7996 11.8514 4.94922 11.3909L5.82031 8.70928L3.53906 7.05108C3.14733 6.76647 3.34801 6.14718 3.83203 6.14678H6.65332L7.52441 3.46416ZM5.78516 0.501272C6.18184 0.382744 6.59996 0.608582 6.71875 1.00518C6.83735 1.40195 6.61159 1.82005 6.21484 1.93877C4.82675 2.35403 3.63819 3.24285 2.83691 4.42119C2.60412 4.76363 2.13744 4.85299 1.79492 4.62041C1.45256 4.38756 1.36307 3.9209 1.5957 3.57842C2.58636 2.12128 4.05871 1.0177 5.78516 0.501272ZM9.28125 1.00518C9.40004 0.608582 9.81816 0.382745 10.2148 0.501272C11.9413 1.0177 13.4136 2.12128 14.4043 3.57842C14.6369 3.9209 14.5474 4.38756 14.2051 4.62041C13.8626 4.85299 13.3959 4.76363 13.1631 4.42119C12.3618 3.24285 11.1732 2.35403 9.78516 1.93877C9.38842 1.82005 9.16265 1.40195 9.28125 1.00518Z" fill="white" fill-opacity="0.4"/>
</g>
<defs>
<clipPath id="clip0_2988_29197">
<rect width="16" height="16" fill="white"/>
</clipPath>
</defs>
</svg>
