<svg width="16" height="16" viewBox="0 0 16 16" fill="none" xmlns="http://www.w3.org/2000/svg">
<g clip-path="url(#clip0_3038_30963)">
<path d="M11.7499 0C12.3081 0 12.8612 0.109657 13.3769 0.323242C13.8924 0.536812 14.3602 0.850579 14.7548 1.24512C15.1495 1.63978 15.4631 2.10837 15.6767 2.62402C15.8902 3.13954 15.9999 3.69203 15.9999 4.25C15.9999 4.80814 15.8903 5.3613 15.6767 5.87695C15.4636 6.3912 15.1509 6.85798 14.7577 7.25195L14.7333 7.27539C14.7311 7.27769 14.7288 7.27996 14.7265 7.28223L10.4296 11.6309L10.4267 11.6348C10.1926 11.8686 9.87478 11.9997 9.54387 12H5.06048L2.0302 15.0303C1.73731 15.3232 1.26254 15.3232 0.969656 15.0303C0.676781 14.7374 0.676781 14.2626 0.969656 13.9697L3.99993 10.9395V6.45703L4.00579 6.33301C4.0343 6.04752 4.16072 5.77906 4.36516 5.57422L4.36907 5.57031L8.74798 1.24219C9.54474 0.447019 10.6241 7.44715e-06 11.7499 0ZM9.56048 7.5L6.56048 10.5H9.43841L12.4042 7.5H9.56048ZM5.49993 6.56152V9.43945L6.99993 7.93945V5.07812L5.49993 6.56152ZM11.7499 1.5C11.0206 1.50001 10.3213 1.78997 9.80559 2.30566L9.80266 2.30859L8.49993 3.5957V6.43945L11.7197 3.21973C12.0125 2.92684 12.4873 2.92685 12.7802 3.21973C13.0731 3.51262 13.0731 3.98738 12.7802 4.28027L11.0605 6H13.871C14.0443 5.7899 14.1864 5.5551 14.2909 5.30273C14.4292 4.96907 14.4999 4.61116 14.4999 4.25C14.4999 3.8889 14.4291 3.53088 14.2909 3.19727C14.1527 2.86373 13.9496 2.56095 13.6943 2.30566C13.4389 2.05037 13.1362 1.84717 12.8027 1.70898C12.469 1.57078 12.1111 1.5 11.7499 1.5Z" fill="#E99896"/>
</g>
<defs>
<clipPath id="clip0_3038_30963">
<rect width="16" height="16" fill="white"/>
</clipPath>
</defs>
</svg>
