<svg width="16" height="16" viewBox="0 0 16 16" fill="none" xmlns="http://www.w3.org/2000/svg">
<g clip-path="url(#clip0_2973_27738)">
<path d="M6.5 0C10.0899 0 13 2.91015 13 6.5C13 7.93401 12.5336 9.25809 11.7471 10.333L15.707 14.293C16.0976 14.6835 16.0976 15.3165 15.707 15.707C15.3165 16.0976 14.6835 16.0976 14.293 15.707L10.333 11.7471C9.25809 12.5336 7.93401 13 6.5 13C2.91015 13 0 10.0899 0 6.5C0 2.91015 2.91015 0 6.5 0ZM6.5 3C5.94772 3 5.5 3.44772 5.5 4V5.5H4C3.44772 5.5 3 5.94772 3 6.5C3 7.05228 3.44772 7.5 4 7.5H5.5V9C5.5 9.55228 5.94772 10 6.5 10C7.05228 10 7.5 9.55228 7.5 9V7.5H9C9.55228 7.5 10 7.05228 10 6.5C10 5.94772 9.55228 5.5 9 5.5H7.5V4C7.5 3.44772 7.05228 3 6.5 3Z" fill="white" fill-opacity="0.8"/>
</g>
<defs>
<clipPath id="clip0_2973_27738">
<rect width="16" height="16" fill="white"/>
</clipPath>
</defs>
</svg>
