<svg width="60" height="32" viewBox="0 0 60 32" fill="none" xmlns="http://www.w3.org/2000/svg">
<path d="M5.16406 7.02832H9.92545V25.2097H5.16406V7.02832Z" fill="white" fill-opacity="0.4"/>
<path d="M19.9977 15.4041C19.5886 12.6332 19.3611 11.093 19.3163 10.7855C19.117 9.30225 18.927 8.01149 18.7455 6.91016C18.3333 6.91016 16.2766 6.91016 12.5723 6.91016V25.0915H16.743L16.7577 13.0865L18.5128 25.0915H21.4836L23.1479 12.8195L23.1636 25.0915H27.3208V6.91016H21.1006L19.9977 15.4041Z" fill="white" fill-opacity="0.4"/>
<path d="M36.1784 10.6924C36.2306 10.9242 36.2577 11.4501 36.2577 12.2719C36.2577 12.9768 36.2577 18.616 36.2577 19.3209C36.2577 20.5309 36.1784 21.272 36.0209 21.5453C35.8623 21.8185 35.4407 21.9541 34.7572 21.9541C34.7572 20.7607 34.7572 11.213 34.7572 10.0196C35.2758 10.0196 35.6296 10.0744 35.8174 10.1821C36.0052 10.2908 36.1263 10.4605 36.1784 10.6924ZM38.329 24.9062C38.8957 24.783 39.3715 24.5657 39.7576 24.2562C40.1426 23.9457 40.4129 23.5161 40.5673 22.9665C40.7228 22.4179 40.8146 21.3279 40.8146 19.6977C40.8146 19.06 40.8146 13.9519 40.8146 13.3132C40.8146 11.5929 40.7468 10.4398 40.6414 9.85395C40.535 9.26705 40.271 8.73398 39.8483 8.25577C39.4247 7.77756 38.807 7.43391 37.9951 7.22482C37.1823 7.01574 35.857 6.91016 33.552 6.91016C33.3151 6.91016 32.1318 6.91016 30 6.91016V25.0915H35.7683C37.0977 25.0501 37.9513 24.989 38.329 24.9062Z" fill="white" fill-opacity="0.4"/>
<path d="M49.4961 22.1873C49.4084 22.4182 49.0244 22.5351 48.7343 22.5351C48.4505 22.5351 48.2616 22.4233 48.1656 22.1987C48.0696 21.9751 48.0227 21.4648 48.0227 20.6657C48.0227 20.1855 48.0227 16.3411 48.0227 15.8609C48.0227 15.0328 48.0644 14.5163 48.1489 14.3103C48.2324 14.1064 48.4161 14.0029 48.6999 14.0029C48.99 14.0029 49.3792 14.1198 49.4794 14.3548C49.5785 14.5898 49.6286 15.0918 49.6286 15.8609C49.6286 16.1714 49.6286 17.724 49.6286 20.5198C49.5983 21.4773 49.5545 22.0331 49.4961 22.1873ZM43.4355 24.9314H47.7222C47.9006 24.2368 47.9987 23.8507 48.0185 23.7731C48.4067 24.2389 48.8335 24.5887 49.302 24.8206C49.7684 25.0535 50.4665 25.1694 51.007 25.1694C51.7594 25.1694 52.4084 24.9738 52.9562 24.5815C53.503 24.1902 53.8516 23.7265 53.9997 23.1934C54.1479 22.6593 54.222 21.8478 54.222 20.7568C54.222 20.2465 54.222 16.1662 54.222 15.6559C54.222 14.5587 54.1969 13.8424 54.1479 13.506C54.0989 13.1696 53.9528 12.827 53.7096 12.4761C53.4665 12.1252 53.1128 11.853 52.6495 11.6584C52.1862 11.4638 51.6394 11.3665 51.0091 11.3665C50.4613 11.3665 49.7601 11.4752 49.2926 11.6894C48.8262 11.9037 48.4025 12.2287 48.0227 12.6645C48.0227 12.2701 48.0227 10.2993 48.0227 6.75H43.4355V24.9314Z" fill="white" fill-opacity="0.4"/>
</svg>
