<svg width="32" height="32" viewBox="0 0 32 32" fill="none" xmlns="http://www.w3.org/2000/svg">
<path fill-rule="evenodd" clip-rule="evenodd" d="M3.83205 14.8205C1.68871 13.9588 0.422908 12.1182 1.41369 10.1432C2.16049 8.66132 4.34699 8.05998 6.018 8.70964C8.02114 9.48548 8.33927 11.5526 9.36565 12.4132C10.2499 13.1542 11.4578 13.2455 12.2488 12.7381C12.8338 12.3623 13.0252 11.5381 12.8069 10.7837C12.5157 9.78238 11.7393 9.15958 10.9844 8.54481C9.63904 7.45756 7.74048 6.52064 8.88954 3.54911C9.83047 1.11422 12.5907 1.0283 12.5907 1.0283C13.6879 0.894134 14.6693 1.24302 15.47 1.94643C16.5403 2.89676 16.7479 4.17192 16.5673 5.52816C16.4055 6.76575 15.9634 7.853 15.7342 9.07985C15.4646 10.5054 16.233 11.9416 17.6889 11.9969C19.6004 12.0775 20.1746 10.6063 20.4102 9.67744C20.7526 8.31904 21.2029 7.05729 22.4673 6.26454C24.2844 5.12361 26.8077 5.37327 27.9788 7.56387C28.9036 9.2981 28.607 11.6839 27.1862 12.987C26.5499 13.5722 25.7816 13.7762 24.9539 13.7843C23.7649 13.7933 22.5759 13.7639 21.4722 14.3158C20.72 14.6943 20.3938 15.3064 20.3938 16.1305C20.3938 16.9332 20.8144 17.4567 21.4938 17.7977C22.7744 18.4393 24.1871 18.5708 25.5702 18.8125C27.576 19.1614 29.34 19.8648 30.4718 21.7182L30.4989 21.7719C31.7984 23.9651 30.445 27.1249 27.8837 27.2581C22.1956 27.556 21.0339 21.0742 18.8013 21.1203C17.8496 21.1384 17.1001 22.1297 17.429 23.2841C17.6179 23.9176 18.1138 24.8492 18.4293 25.4264C19.5454 27.464 17.8954 29.7684 15.9651 29.9628C12.7568 30.2876 11.4185 28.4326 11.5021 26.5367C11.5829 24.4079 13.4082 22.2315 11.5559 21.3061C9.6067 20.3343 8.02222 24.1305 6.15604 24.9764C4.46831 25.7416 2.12413 25.1376 1.2913 23.2825C0.706263 21.9697 0.811424 19.4438 3.41849 18.4814C5.04689 17.8801 8.67333 19.268 8.85936 17.5069C9.07499 15.4801 5.04876 15.3083 3.83663 14.8223L3.83205 14.8205Z" fill="#02902E"/>
</svg>
