<svg width="31" height="32" viewBox="0 0 31 32" fill="none" xmlns="http://www.w3.org/2000/svg">
<path d="M4.70515 9.50329C-1.584 15.761 1.65385 23.3253 3.42404 25.7992C11.3006 35.3038 24.1559 31.5397 28.4229 24.4609C29.4866 22.6026 33.462 12.348 23.0661 6.78809L4.70515 9.50329Z" fill="#6C6C6C"/>
<path d="M9.05273 9.14882L10.1202 7.14144L16.4668 6L18.951 8.08611L9.05273 9.14882Z" fill="#6C6C6C"/>
<path d="M8.81017 1.94188L10.8139 0.745117L12.3235 4.25186C13.1709 2.81949 15.4045 0.555496 17.8955 3.19424C16.8391 3.48051 16.2162 4.06766 16.1663 5.11465C19.55 4.17001 23.169 5.84248 23.6596 7.17423C21.2129 6.1969 17.4719 9.52512 14.327 7.70299C14.329 11.1114 11.5081 11.4719 9.88046 11.5715C10.3445 10.4397 11.1296 9.30741 10.2098 8.17625C8.50774 10.0274 7.11001 10.5931 2.79883 9.23378C3.88824 8.85341 6.1151 6.65339 8.26108 6.64546C6.74739 6.08657 5.51521 6.17266 4.28102 6.3113C4.93275 5.41395 6.99539 2.86844 10.6765 4.39108L8.81017 1.94188Z" fill="#606060"/>
</svg>
